<?xml version="1.0" encoding="utf-8"?>
<!-- Generator: Adobe Illustrator 27.9.0, SVG Export Plug-In . SVG Version: 6.00 Build 0)  -->
<svg version="1.1" xmlns="http://www.w3.org/2000/svg" xmlns:xlink="http://www.w3.org/1999/xlink" x="0px" y="0px"
	 viewBox="0 0 52 52" style="enable-background:new 0 0 52 52;" xml:space="preserve">
<style type="text/css">
	.st0{display:none;}
	.st1{display:inline;fill:#353535;}
	.st2{display:inline;fill:none;}
	.st3{display:inline;}
	.st4{fill:#353535;}
	.st5{fill:#FFFFFF;}
</style>
<g id="圖層_3" class="st0">
	<rect x="-44.5" y="-25.7" class="st1" width="16.7" height="16.7"/>
</g>
<g id="圖層_1" class="st0">
	<rect x="-235.7" y="-57.8" class="st2" width="55" height="55"/>
	<g class="st3">
		<path class="st4" d="M23.2,48.9c-0.4,0-0.8-0.3-0.8-0.8v-8.6l-1.7-1.2c-0.2-0.1-0.3-0.4-0.3-0.6v-4.9c0-1.7,1.2-3.1,2.8-3.5
			c-0.5-0.6-0.7-1.3-0.7-2.1c0-2,1.6-3.6,3.6-3.6s3.6,1.6,3.6,3.6c0,0.8-0.2,1.5-0.7,2.1c1.6,0.4,2.8,1.8,2.8,3.5v4.9
			c0,0.3-0.1,0.5-0.3,0.6l-1.7,1.2v8.6c0,0.4-0.3,0.8-0.8,0.8H23.2L23.2,48.9z M28,47.4v-8.3c0-0.3,0.1-0.5,0.3-0.6l1.7-1.2v-4.5
			c0-1.1-0.9-2-2-2h-4.2c-1.1,0-2,0.9-2,2v4.5l1.7,1.2c0.2,0.1,0.3,0.4,0.3,0.6v8.3H28L28,47.4z M26,25.3c-1.1,0-2,0.9-2,2
			s0.9,2,2,2s2-0.9,2-2S27.1,25.3,26,25.3z"/>
		<path class="st4" d="M26,23.8c1.9,0,3.5,1.6,3.5,3.5c0,0.8-0.3,1.6-0.8,2.1c1.6,0.3,2.8,1.7,2.8,3.4v4.9c0,0.2-0.1,0.4-0.3,0.6
			l-1.8,1.2v8.7c0,0.4-0.3,0.7-0.7,0.7h-5.6c-0.4,0-0.7-0.3-0.7-0.7v-8.7l-1.8-1.2c-0.2-0.1-0.3-0.3-0.3-0.6v-4.9
			c0-1.7,1.2-3.1,2.8-3.4c-0.5-0.6-0.8-1.3-0.8-2.1C22.5,25.4,24.1,23.8,26,23.8 M26,29.4c1.1,0,2.1-0.9,2.1-2.1
			c0-1.1-0.9-2.1-2.1-2.1c-1.1,0-2.1,0.9-2.1,2.1C23.9,28.5,24.9,29.4,26,29.4z M23.9,47.5h4.2v-8.3c0-0.2,0.1-0.4,0.3-0.6l1.8-1.2
			v-4.5c0-1.1-0.9-2.1-2.1-2.1h-4.2c-1.1,0-2.1,0.9-2.1,2.1v4.5l1.8,1.2c0.2,0.1,0.3,0.3,0.3,0.6V47.5z M26,23.7
			c-2,0-3.6,1.6-3.6,3.6c0,0.7,0.2,1.4,0.7,2c-1.6,0.4-2.7,1.8-2.7,3.5v4.9c0,0.3,0.1,0.5,0.4,0.7l1.7,1.1v8.6
			c0,0.5,0.4,0.8,0.8,0.8h5.6c0.5,0,0.8-0.4,0.8-0.8v-8.6l1.7-1.1c0.2-0.2,0.4-0.4,0.4-0.7v-4.9c0-1.7-1.1-3.1-2.7-3.5
			c0.4-0.6,0.7-1.3,0.7-2C29.6,25.3,28,23.7,26,23.7L26,23.7z M26,29.2c-1.1,0-1.9-0.9-1.9-1.9c0-1.1,0.9-1.9,1.9-1.9
			c1.1,0,1.9,0.9,1.9,1.9C27.9,28.4,27.1,29.2,26,29.2z M22,37.3v-4.4c0-1.1,0.9-1.9,1.9-1.9h4.2c1.1,0,1.9,0.9,1.9,1.9v4.4
			l-1.7,1.1c-0.2,0.2-0.4,0.4-0.4,0.7v8.2h-3.9v-8.2c0-0.3-0.1-0.5-0.4-0.7L22,37.3L22,37.3z"/>
		<path class="st4" d="M40.6,19.7c-1.3,0-2.5-0.4-3.5-1.1c-1.8-1.2-2.8-3.1-2.8-5.3c0-3.5,2.8-6.3,6.3-6.3c3.5,0,6.3,2.8,6.3,6.3
			c0,2.1-1.1,4.1-2.8,5.3C43.1,19.4,41.8,19.7,40.6,19.7L40.6,19.7z M37.9,17.4C37.9,17.4,37.9,17.4,37.9,17.4
			c0.8,0.5,1.7,0.8,2.7,0.8c1,0,1.9-0.3,2.7-0.8c0,0,0,0,0,0c-0.1-1-1-1.8-2-1.8h-1.4C38.9,15.6,38,16.4,37.9,17.4L37.9,17.4z
			 M40.6,8.6c-2.6,0-4.8,2.1-4.8,4.8c0,1,0.3,1.9,0.9,2.7c0.3-0.7,0.9-1.3,1.6-1.7c-0.4-0.5-0.6-1.1-0.6-1.7c0-1.6,1.3-2.9,2.9-2.9
			c1.6,0,2.9,1.3,2.9,2.9c0,0.6-0.2,1.2-0.6,1.7c0.7,0.4,1.3,1,1.6,1.7c0.6-0.8,0.9-1.7,0.9-2.7C45.4,10.8,43.2,8.6,40.6,8.6z
			 M40.6,11.4c-0.7,0-1.3,0.6-1.3,1.3c0,0.7,0.6,1.3,1.3,1.3c0.7,0,1.3-0.6,1.3-1.3C41.9,12,41.3,11.4,40.6,11.4z"/>
		<path class="st4" d="M40.6,7.2c3.4,0,6.3,2.8,6.3,6.3c0,2.1-1,4-2.8,5.2c-1,0.7-2.2,1.1-3.5,1.1c-1.2,0-2.4-0.4-3.5-1.1
			c-1.7-1.2-2.8-3.1-2.8-5.2C34.3,10,37.1,7.2,40.6,7.2 M36.7,16.3c0.3-0.8,1-1.5,1.8-1.8c-0.4-0.5-0.6-1.1-0.6-1.7
			c0-1.5,1.2-2.8,2.8-2.8c1.5,0,2.8,1.2,2.8,2.8c0,0.7-0.2,1.2-0.6,1.7c0.8,0.4,1.4,1,1.8,1.8c0.6-0.8,1-1.8,1-2.9
			c0-2.7-2.2-4.9-4.9-4.9c-2.7,0-4.9,2.2-4.9,4.9C35.7,14.5,36.1,15.5,36.7,16.3 M40.6,14.1c0.8,0,1.4-0.6,1.4-1.4s-0.6-1.4-1.4-1.4
			c-0.8,0-1.4,0.6-1.4,1.4S39.8,14.1,40.6,14.1z M40.6,18.3c1,0,1.9-0.3,2.7-0.8c0,0,0,0,0.1,0c-0.1-1.1-1-1.9-2.1-1.9h-1.4
			c-1.1,0-2,0.8-2.1,1.9c0,0,0,0,0.1,0C38.7,18,39.6,18.3,40.6,18.3 M40.6,7c-3.5,0-6.4,2.9-6.4,6.4c0,2.1,1.1,4.1,2.8,5.3
			c1.1,0.7,2.3,1.1,3.6,1.1c1.3,0,2.5-0.4,3.6-1.1c1.8-1.2,2.8-3.2,2.8-5.3C47,9.9,44.1,7,40.6,7L40.6,7z M36.6,16
			c-0.5-0.8-0.8-1.6-0.8-2.6c0-2.6,2.1-4.7,4.7-4.7c2.6,0,4.7,2.1,4.7,4.7c0,0.9-0.3,1.8-0.8,2.6c-0.3-0.7-0.9-1.2-1.5-1.6
			c0.4-0.5,0.5-1.1,0.5-1.7c0-1.6-1.3-2.9-2.9-2.9s-2.9,1.3-2.9,2.9c0,0.6,0.2,1.2,0.5,1.7C37.5,14.7,37,15.3,36.6,16z M40.6,13.9
			c-0.7,0-1.2-0.6-1.2-1.2c0-0.7,0.6-1.2,1.2-1.2c0.7,0,1.2,0.6,1.2,1.2C41.8,13.4,41.3,13.9,40.6,13.9z M38,17.3
			c0.1-1,0.9-1.7,1.9-1.7h1.4c1,0,1.8,0.7,1.9,1.7c-0.8,0.5-1.7,0.8-2.6,0.8C39.6,18.1,38.8,17.8,38,17.3L38,17.3z"/>
		<path class="st4" d="M11.4,32.9c-1.3,0-2.5-0.4-3.5-1.1c-1.8-1.2-2.8-3.1-2.8-5.3c0-3.5,2.8-6.3,6.3-6.3c3.5,0,6.3,2.8,6.3,6.3
			c0,2.1-1.1,4.1-2.8,5.3C13.9,32.6,12.7,32.9,11.4,32.9L11.4,32.9z M8.7,30.6c0.8,0.5,1.7,0.8,2.7,0.8s1.9-0.3,2.7-0.8c0,0,0,0,0,0
			c-0.1-1-1-1.8-2-1.8h-1.4C9.7,28.8,8.8,29.6,8.7,30.6C8.7,30.6,8.7,30.6,8.7,30.6L8.7,30.6z M11.4,21.8c-2.6,0-4.8,2.1-4.8,4.8
			c0,1,0.3,1.9,0.9,2.7c0.3-0.7,0.9-1.3,1.6-1.7c-0.4-0.5-0.6-1.1-0.6-1.7c0-1.6,1.3-2.9,2.9-2.9c1.6,0,2.9,1.3,2.9,2.9
			c0,0.6-0.2,1.2-0.6,1.7c0.7,0.4,1.3,1,1.6,1.7c0.6-0.8,0.9-1.7,0.9-2.7C16.2,24,14,21.8,11.4,21.8z M11.4,24.6
			c-0.7,0-1.3,0.6-1.3,1.3c0,0.7,0.6,1.3,1.3,1.3s1.3-0.6,1.3-1.3C12.7,25.2,12.1,24.6,11.4,24.6z"/>
		<path class="st4" d="M11.4,20.4c3.4,0,6.3,2.8,6.3,6.3c0,2.1-1,4-2.8,5.2c-1,0.7-2.2,1.1-3.5,1.1c-1.2,0-2.4-0.4-3.5-1.1
			c-1.7-1.2-2.8-3.1-2.8-5.2C5.2,23.2,8,20.4,11.4,20.4z M7.5,29.5c0.3-0.8,1-1.5,1.8-1.8c-0.4-0.5-0.6-1.1-0.6-1.7
			c0-1.5,1.2-2.8,2.8-2.8c1.5,0,2.8,1.2,2.8,2.8c0,0.7-0.2,1.2-0.6,1.7c0.8,0.4,1.4,1,1.8,1.8c0.6-0.8,1-1.8,1-2.9
			c0-2.7-2.2-4.9-4.9-4.9c-2.7,0-4.9,2.2-4.9,4.9C6.5,27.7,6.9,28.7,7.5,29.5 M11.4,27.3c0.8,0,1.4-0.6,1.4-1.4
			c0-0.8-0.6-1.4-1.4-1.4S10,25.2,10,25.9C10,26.7,10.6,27.3,11.4,27.3z M11.4,31.5c1,0,1.9-0.3,2.7-0.8c0,0,0,0,0.1,0
			c-0.1-1.1-1-1.9-2.1-1.9h-1.4c-1.1,0-2,0.8-2.1,1.9c0,0,0,0,0.1,0C9.5,31.2,10.5,31.5,11.4,31.5 M11.4,20.2
			c-3.5,0-6.4,2.9-6.4,6.4c0,2.1,1.1,4.1,2.8,5.3c1.1,0.7,2.3,1.1,3.6,1.1c1.3,0,2.5-0.4,3.6-1.1c1.8-1.2,2.8-3.2,2.8-5.3
			C17.8,23.1,14.9,20.2,11.4,20.2L11.4,20.2z M7.5,29.2c-0.5-0.8-0.8-1.6-0.8-2.6c0-2.6,2.1-4.7,4.7-4.7c2.6,0,4.7,2.1,4.7,4.7
			c0,0.9-0.3,1.8-0.8,2.6c-0.3-0.7-0.9-1.2-1.5-1.6c0.4-0.5,0.5-1.1,0.5-1.7c0-1.6-1.3-2.9-2.9-2.9c-1.6,0-2.9,1.3-2.9,2.9
			c0,0.6,0.2,1.2,0.5,1.7C8.3,27.9,7.8,28.5,7.5,29.2z M11.4,27.1c-0.7,0-1.2-0.6-1.2-1.2s0.6-1.2,1.2-1.2c0.7,0,1.2,0.6,1.2,1.2
			S12.1,27.1,11.4,27.1z M8.8,30.5c0.1-1,0.9-1.7,1.9-1.7h1.4c1,0,1.8,0.7,1.9,1.7c-0.8,0.5-1.7,0.8-2.6,0.8
			C10.5,31.3,9.6,31,8.8,30.5L8.8,30.5z"/>
		<path class="st4" d="M25.3,21.1c-0.2,0-0.5-0.1-0.6-0.3l-1.9-2.5h-1.7c-0.4,0-0.8-0.3-0.8-0.8v-4.2c0-0.4,0.3-0.8,0.8-0.8h6.9
			c0.4,0,0.8,0.3,0.8,0.8v4.2c0,0.4-0.3,0.8-0.8,0.8h-1.5l-0.5,2.2c-0.1,0.3-0.3,0.5-0.6,0.6C25.4,21.1,25.4,21.1,25.3,21.1z
			 M23.2,16.8c0.2,0,0.5,0.1,0.6,0.3l1.1,1.5l0.3-1.2c0.1-0.3,0.4-0.6,0.7-0.6h1.3v-2.6h-5.4v2.6H23.2z"/>
		<path class="st4" d="M28.1,12.7c0.4,0,0.7,0.3,0.7,0.7v4.2c0,0.4-0.3,0.7-0.7,0.7h-1.5L26,20.5c-0.1,0.3-0.3,0.5-0.5,0.5
			c0,0-0.1,0-0.1,0c-0.2,0-0.4-0.1-0.6-0.3l-1.9-2.5h-1.7c-0.4,0-0.7-0.3-0.7-0.7v-4.2c0-0.4,0.3-0.7,0.7-0.7L28.1,12.7 M21.8,16.9
			h1.4c0.2,0,0.4,0.1,0.6,0.3l1.2,1.6l0.3-1.4c0.1-0.3,0.4-0.5,0.7-0.5h1.4v-2.8h-5.6V16.9 M28.1,12.6h-6.9c-0.5,0-0.8,0.4-0.8,0.8
			v4.2c0,0.5,0.4,0.8,0.8,0.8h1.7l1.8,2.4c0.2,0.2,0.4,0.3,0.7,0.3c0.1,0,0.1,0,0.2,0c0.3-0.1,0.6-0.3,0.7-0.6l0.5-2.1h1.4
			c0.5,0,0.8-0.4,0.8-0.8v-4.2C28.9,12.9,28.6,12.6,28.1,12.6L28.1,12.6z M22,14.3h5.2v2.5H26c-0.4,0-0.7,0.3-0.8,0.6l-0.3,1l-1-1.4
			c-0.2-0.2-0.4-0.3-0.7-0.3H22V14.3z"/>
		<path class="st4" d="M41.9,39.7c-0.2,0-0.4-0.1-0.5-0.2l-2.9-2.9c-0.4-0.4-0.6-1-0.6-1.5c0-0.6,0.2-1.1,0.6-1.5
			c0.4-0.4,0.9-0.6,1.5-0.6c0.6,0,1.1,0.2,1.5,0.6l0.4,0.4l0.4-0.4c0.4-0.4,1-0.6,1.5-0.6c0.6,0,1.1,0.2,1.5,0.6
			c0.4,0.4,0.6,1,0.6,1.5c0,0.6-0.2,1.1-0.6,1.5l-2.9,2.9C42.3,39.6,42.1,39.7,41.9,39.7z M39.9,34.3c-0.2,0-0.3,0.1-0.4,0.2
			c-0.1,0.1-0.2,0.3-0.2,0.4c0,0.2,0.1,0.3,0.2,0.4l2.4,2.4l2.4-2.4c0.1-0.1,0.2-0.3,0.2-0.4c0-0.2-0.1-0.3-0.2-0.4
			c-0.1-0.1-0.3-0.2-0.4-0.2s-0.3,0.1-0.4,0.2l-1,1c-0.1,0.1-0.3,0.2-0.5,0.2c-0.2,0-0.4-0.1-0.5-0.2l-1-1
			C40.2,34.4,40.1,34.3,39.9,34.3L39.9,34.3z"/>
		<path class="st4" d="M43.8,32.9c0.5,0,1.1,0.2,1.5,0.6c0.4,0.4,0.6,0.9,0.6,1.5c0,0.6-0.2,1.1-0.6,1.5l-2.9,2.9
			c-0.1,0.1-0.3,0.2-0.5,0.2s-0.4-0.1-0.5-0.2l-2.9-2.9C38,36,37.8,35.5,37.8,35c0-0.6,0.2-1.1,0.6-1.5c0.4-0.4,0.9-0.6,1.5-0.6
			c0.5,0,1.1,0.2,1.5,0.6l0.5,0.5l0.5-0.5C42.8,33.1,43.3,32.9,43.8,32.9z M41.9,37.9l2.5-2.5c0.1-0.1,0.2-0.3,0.2-0.5
			s-0.1-0.4-0.2-0.5c-0.1-0.1-0.3-0.2-0.5-0.2c-0.2,0-0.4,0.1-0.5,0.2l-1,1c-0.1,0.1-0.3,0.2-0.5,0.2c-0.2,0-0.4-0.1-0.5-0.2l-1-1
			c-0.1-0.1-0.3-0.2-0.5-0.2c-0.2,0-0.4,0.1-0.5,0.2c-0.1,0.1-0.2,0.3-0.2,0.5s0.1,0.4,0.2,0.5L41.9,37.9z M43.8,32.7
			c-0.6,0-1.2,0.2-1.6,0.7l-0.4,0.4l-0.4-0.4c-0.4-0.4-1-0.6-1.6-0.6c-0.6,0-1.2,0.2-1.6,0.6c-0.4,0.4-0.7,1-0.7,1.6
			c0,0.6,0.2,1.2,0.7,1.6l2.9,2.9c0.2,0.2,0.4,0.2,0.6,0.2c0.2,0,0.4-0.1,0.6-0.2l2.9-2.9c0.4-0.4,0.7-1,0.7-1.6
			c0-0.6-0.2-1.2-0.7-1.6C45,32.9,44.4,32.7,43.8,32.7L43.8,32.7z M41.9,37.7l-2.3-2.3c-0.1-0.1-0.2-0.2-0.2-0.4
			c0-0.1,0.1-0.3,0.2-0.4c0.1-0.1,0.2-0.2,0.4-0.2s0.3,0.1,0.4,0.2l1,1c0.2,0.2,0.4,0.2,0.6,0.2c0.2,0,0.4-0.1,0.6-0.2l1-1
			c0.1-0.1,0.2-0.2,0.4-0.2s0.3,0.1,0.4,0.2c0.1,0.1,0.2,0.2,0.2,0.4c0,0.1-0.1,0.3-0.2,0.4L41.9,37.7L41.9,37.7z"/>
		<path class="st4" d="M32.4,34.7L32.4,34.7c2.5-2,3.9-5,3.9-8.1c0-4.2-2.5-8-6.5-9.6l-0.1,0l0.6-1.4l0.1,0c4.5,1.8,7.4,6.2,7.4,11
			c0,3.6-1.6,7-4.5,9.3l-0.1,0L32.4,34.7L32.4,34.7z"/>
		<path class="st4" d="M30.4,15.7c4.5,1.8,7.4,6.1,7.4,11c0,3.6-1.6,7-4.4,9.2l-0.9-1.1c2.5-2,3.9-5,3.9-8.1c0-4.3-2.6-8.1-6.5-9.7
			L30.4,15.7z M30.3,15.5l-0.1,0.1l-0.5,1.3L29.7,17l0.1,0.1c3.9,1.6,6.4,5.3,6.4,9.5c0,3.1-1.4,6.1-3.8,8l-0.1,0.1l0.1,0.1l0.9,1.1
			l0.1,0.1l0.1-0.1c2.9-2.3,4.5-5.7,4.5-9.3c0-4.9-2.9-9.3-7.5-11.1L30.3,15.5L30.3,15.5z"/>
		<path class="st4" d="M15.7,20.7L15.7,20.7c0.8-1.4,1.7-2.5,2.9-3.4l0.1,0l1,1.2l-0.1,0c-1,0.8-1.8,1.8-2.5,2.9l0,0.1L15.7,20.7
			L15.7,20.7z"/>
		<path class="st4" d="M18.6,17.4l0.9,1.1c-1,0.8-1.9,1.8-2.5,2.9l-1.2-0.7C16.5,19.4,17.5,18.3,18.6,17.4 M18.6,17.2l-0.1,0.1
			c-1.2,0.9-2.1,2.1-2.9,3.4l-0.1,0.1l0.1,0.1l1.2,0.7l0.1,0.1l0.1-0.1c0.6-1.1,1.5-2.1,2.5-2.9l0.1-0.1l-0.1-0.1l-0.9-1.1
			L18.6,17.2L18.6,17.2z"/>
		<path class="st4" d="M18.6,35.9c-1.2-0.9-2.1-2.1-2.9-3.3l0-0.1l1.3-0.8l0,0.1c0.6,1.1,1.5,2.1,2.5,2.9l0.1,0L18.6,35.9L18.6,35.9
			z"/>
		<path class="st4" d="M17,31.8c0.7,1.1,1.5,2.1,2.5,2.9l-0.9,1.1c-1.2-0.9-2.1-2-2.8-3.3L17,31.8z M17,31.6l-0.1,0.1l-1.2,0.7
			l-0.1,0.1l0.1,0.1c0.7,1.3,1.7,2.4,2.9,3.4l0.1,0.1l0.1-0.1l0.9-1.1l0.1-0.1l-0.1-0.1c-1-0.8-1.8-1.8-2.5-2.9L17,31.6L17,31.6z"/>
		<path class="st4" d="M20.8,44c-4.9-1.4-9.1-4.8-11.5-9.4l0-0.1l1.4-0.7l0,0.1c2.2,4.2,6,7.4,10.6,8.6l0.1,0L20.8,44L20.8,44z"/>
		<path class="st4" d="M10.6,33.9c2.2,4.2,6.1,7.4,10.6,8.7L20.8,44c-4.9-1.4-9.1-4.8-11.5-9.4L10.6,33.9z M10.6,33.7l-0.1,0.1
			l-1.2,0.6l-0.1,0.1l0.1,0.1c2.4,4.6,6.6,8,11.6,9.5l0.1,0l0-0.1l0.4-1.3l0-0.1l-0.1,0c-4.5-1.3-8.4-4.4-10.5-8.6L10.6,33.7
			L10.6,33.7z"/>
		<path class="st4" d="M30.6,42.6L30.6,42.6c2.7-0.8,5.2-2.2,7.2-4l0.1-0.1l1.1,1.1l-0.1,0.1c-2.2,2.1-4.9,3.6-7.8,4.4l-0.1,0
			L30.6,42.6L30.6,42.6z"/>
		<path class="st4" d="M37.9,38.6l0.9,1c-2.2,2.1-4.9,3.6-7.8,4.4l-0.4-1.3C33.3,41.9,35.8,40.5,37.9,38.6z M37.9,38.4l-0.1,0.1
			c-2,1.9-4.5,3.3-7.1,4l-0.2,0l0,0.2l0.4,1.3l0,0.2l0.2,0c2.9-0.8,5.6-2.3,7.8-4.4l0.1-0.1l-0.1-0.1l-0.9-1L37.9,38.4L37.9,38.4z"
			/>
		<path class="st4" d="M42.4,31.3L42.4,31.3c0.6-1.8,0.9-3.6,0.9-5.4c0-1.6-0.2-3.1-0.6-4.7l0-0.1l1.5-0.4l0,0.1
			c0.5,1.6,0.7,3.3,0.7,5.1c0,2-0.3,3.9-0.9,5.8l0,0.1L42.4,31.3L42.4,31.3z"/>
		<path class="st4" d="M44.1,20.9c0.5,1.6,0.7,3.3,0.7,5.1c0,2-0.3,3.9-0.9,5.8l-1.3-0.4c0.6-1.7,0.8-3.5,0.8-5.3
			c0-1.6-0.2-3.2-0.6-4.7L44.1,20.9z M44.2,20.7l-0.2,0l-1.3,0.4l-0.2,0l0,0.2c0.4,1.5,0.6,3.1,0.6,4.6c0,1.8-0.3,3.6-0.8,5.3l0,0.1
			l0.1,0l1.3,0.4l0.1,0l0-0.1c0.6-1.9,0.9-3.8,0.9-5.8c0-1.7-0.2-3.4-0.7-5.1L44.2,20.7L44.2,20.7z"/>
		<path class="st4" d="M33.3,10.2C31,9.2,28.6,8.6,26,8.6c-2.3,0-4.6,0.4-6.7,1.3l-0.1,0l-0.6-1.4l0.1,0c2.3-1,4.7-1.4,7.3-1.4
			c2.8,0,5.5,0.6,8,1.8l0.1,0L33.3,10.2L33.3,10.2L33.3,10.2z"/>
		<path class="st4" d="M26,7.2c2.8,0,5.4,0.6,7.9,1.8l-0.6,1.3C31,9.1,28.6,8.5,26,8.5c-2.3,0-4.6,0.5-6.7,1.3l-0.5-1.3
			C21.1,7.6,23.5,7.2,26,7.2z M26,7c-2.5,0-5,0.5-7.3,1.5l-0.1,0.1l0.1,0.1l0.5,1.3l0.1,0.1l0.1-0.1c2.1-0.9,4.3-1.3,6.6-1.3
			c2.5,0,5,0.5,7.3,1.6l0.1,0.1l0.1-0.1L34.1,9l0.1-0.1L34,8.8C31.5,7.6,28.8,7,26,7z"/>
		<path class="st4" d="M8.6,18.7L8.6,18.7c0.4-1,0.9-2,1.5-2.9l0-0.1l1.3,0.8l0,0.1c-0.5,0.8-1,1.7-1.3,2.6l0,0.1L8.6,18.7L8.6,18.7
			z"/>
		<path class="st4" d="M10.1,15.9l1.2,0.7c-0.5,0.8-1,1.7-1.3,2.6l-1.3-0.5C9.1,17.7,9.6,16.8,10.1,15.9 M10.1,15.7L10,15.8
			c-0.6,0.9-1.1,1.8-1.5,2.8l-0.1,0.1l0.1,0.1l1.3,0.5l0.1,0.1l0.1-0.1c0.4-0.9,0.8-1.7,1.3-2.5l0.1-0.1l-0.1-0.1l-1.2-0.7
			L10.1,15.7L10.1,15.7z"/>
		<path class="st4" d="M12,15.6c-0.2,0-0.3,0-0.4-0.1c-0.2-0.2-0.4-0.5-0.3-0.8l0.3-2.1L10.2,11c-0.2-0.2-0.3-0.5-0.2-0.8
			c0.1-0.3,0.3-0.5,0.6-0.5l2-0.3l0.9-1.9c0.1-0.3,0.4-0.4,0.7-0.4c0.3,0,0.6,0.2,0.7,0.4l0.9,1.9l2,0.3c0.3,0,0.5,0.2,0.6,0.5
			c0.1,0.3,0,0.6-0.2,0.8l-1.5,1.5l0.3,2.1c0,0.3-0.1,0.6-0.3,0.8c-0.1,0.1-0.3,0.1-0.4,0.1c-0.1,0-0.3,0-0.4-0.1l-1.8-1l-1.8,1
			C12.3,15.5,12.2,15.6,12,15.6L12,15.6z M13,11.7c0.2,0.2,0.2,0.4,0.2,0.7l-0.2,0.9l0.8-0.4c0.1-0.1,0.2-0.1,0.4-0.1
			c0.1,0,0.3,0,0.4,0.1l0.8,0.4l-0.2-0.9c0-0.2,0-0.5,0.2-0.7l0.7-0.7l-0.9-0.1c-0.3,0-0.5-0.2-0.6-0.4l-0.4-0.8l-0.4,0.8
			c-0.1,0.2-0.3,0.4-0.6,0.4L12.3,11L13,11.7L13,11.7z"/>
		<path class="st4" d="M14.2,7.2c0.3,0,0.5,0.2,0.6,0.4l0.9,2l2,0.3c0.3,0,0.5,0.2,0.6,0.5c0.1,0.2,0,0.5-0.2,0.7l-1.5,1.5l0.4,2.2
			c0,0.3-0.1,0.5-0.3,0.7c-0.1,0.1-0.3,0.1-0.4,0.1c-0.1,0-0.2,0-0.3-0.1l-1.8-1l-1.8,1c-0.1,0.1-0.2,0.1-0.3,0.1
			c-0.1,0-0.3,0-0.4-0.1c-0.2-0.2-0.3-0.4-0.3-0.7l0.4-2.2L10.2,11c-0.2-0.2-0.2-0.5-0.2-0.7c0.1-0.2,0.3-0.4,0.6-0.5l2-0.3l0.9-2
			C13.7,7.3,13.9,7.2,14.2,7.2z M13,13.5l0.9-0.5c0.1-0.1,0.2-0.1,0.3-0.1s0.2,0,0.3,0.1l0.9,0.5l-0.2-1.1c0-0.2,0-0.4,0.2-0.6
			l0.8-0.8l-1.1-0.2c-0.2,0-0.4-0.2-0.5-0.4l-0.4-0.9l-0.4,0.9c-0.1,0.2-0.3,0.4-0.5,0.4L12.2,11l0.8,0.8c0.2,0.2,0.2,0.4,0.2,0.6
			L13,13.5z M14.2,7c-0.3,0-0.6,0.2-0.8,0.5l-0.9,1.9l-2,0.3c-0.3,0-0.6,0.3-0.7,0.6c-0.1,0.3,0,0.6,0.2,0.9l1.4,1.5l-0.3,2.1
			c-0.1,0.3,0.1,0.6,0.3,0.8c0.1,0.1,0.3,0.2,0.5,0.2c0.1,0,0.3,0,0.4-0.1l1.7-1l1.7,1c0.1,0.1,0.3,0.1,0.4,0.1
			c0.2,0,0.3-0.1,0.5-0.2c0.3-0.2,0.4-0.5,0.3-0.8l-0.3-2.1l1.4-1.5c0.2-0.2,0.3-0.6,0.2-0.9c-0.1-0.3-0.4-0.5-0.7-0.6l-2-0.3
			L15,7.5C14.8,7.2,14.5,7,14.2,7L14.2,7z M12.5,11.1l0.8-0.1c0.3,0,0.5-0.2,0.6-0.5l0.3-0.6l0.3,0.6c0.1,0.3,0.4,0.4,0.6,0.5
			l0.8,0.1l-0.6,0.6c-0.2,0.2-0.3,0.5-0.2,0.7l0.1,0.8l-0.6-0.3c-0.1-0.1-0.3-0.1-0.4-0.1c-0.1,0-0.3,0-0.4,0.1l-0.6,0.3l0.1-0.8
			c0-0.3,0-0.5-0.2-0.7L12.5,11.1L12.5,11.1z"/>
	</g>
</g>
<g id="圖層_2" class="st0">
	<g class="st3">
		<path class="st4" d="M13.4,28h25.2c0.4,0,0.8-0.4,0.8-0.8v-8.8c0-0.5-0.4-0.8-0.8-0.8c-0.4,0-0.8,0.4-0.8,0.8v8H14.2V7.4h23.6v8.2
			c0,0.5,0.4,0.8,0.8,0.8c0.4,0,0.8-0.4,0.8-0.8v-9c0-0.5-0.4-0.8-0.8-0.8H13.4c-0.4,0-0.8,0.4-0.8,0.8v20.5
			C12.6,27.6,12.9,28,13.4,28z"/>
		<path class="st4" d="M19.7,10c0.4,0,0.8-0.4,0.8-0.8c0-0.5-0.4-0.8-0.8-0.8h-3.8c-0.4,0-0.8,0.4-0.8,0.8v15.4
			c0,0.5,0.4,0.8,0.8,0.8h20.2c0.4,0,0.8-0.4,0.8-0.8V9.2c0-0.5-0.4-0.8-0.8-0.8H22.4c-0.4,0-0.8,0.4-0.8,0.8c0,0.5,0.4,0.8,0.8,0.8
			h12.9v9.5L33,16.4l0,0l0,0c-0.2-0.2-0.4-0.3-0.6-0.3s-0.4,0.1-0.6,0.3l0,0l0,0l-3.2,4.4l-6.9-7c-0.2-0.2-0.4-0.2-0.6-0.2
			s-0.4,0.1-0.6,0.2l-3.7,3.7V10H19.7L19.7,10z M29.6,21.9l2.7-3.7l3,4v1.5h-3.9L29.6,21.9L29.6,21.9z M16.7,23.8v-4l4.2-4.3
			l8.1,8.3L16.7,23.8L16.7,23.8z"/>
		<path class="st4" d="M30.6,13c0-1.2-0.9-2.1-2.1-2.1c-1.1,0-2.1,0.9-2.1,2.1c0,1.2,0.9,2.1,2.1,2.1C29.7,15.1,30.6,14.2,30.6,13z
			 M28.1,13c0-0.3,0.2-0.5,0.5-0.5c0.2,0,0.5,0.2,0.5,0.5c0,0.3-0.2,0.5-0.5,0.5C28.3,13.5,28.1,13.3,28.1,13z"/>
		<path class="st4" d="M44.3,29.2c-1.5,0-2.7,1.2-2.7,2.7c0,0.4,0.1,0.7,0.2,1c-1.9,1.3-4.2,2-6.6,2s-4.7-0.7-6.7-2
			c0.1-0.3,0.2-0.6,0.2-1c0-1.5-1.2-2.7-2.7-2.7s-2.7,1.2-2.7,2.7c0,0.3,0.1,0.7,0.2,1c-2,1.3-4.3,2-6.7,2s-4.6-0.7-6.6-2
			c0.1-0.3,0.2-0.7,0.2-1c0-1.5-1.2-2.7-2.7-2.7S5,30.4,5,31.9c0,0.6,0.2,1.3,0.6,1.8v11.7c0,0.5,0.4,0.8,0.8,0.8H9
			c0.4,0,0.8-0.4,0.8-0.8v-4.5c0-0.5-0.4-0.8-0.8-0.8s-0.8,0.4-0.8,0.8v3.7H7.3v-9.9c0.2,0,0.3,0,0.5,0s0.3,0,0.5,0v3.6
			C8.2,38.7,8.5,39,9,39s0.8-0.4,0.8-0.8v-3.6c2.1,1.3,4.5,1.9,7,1.9s5-0.7,7.1-2v10.9c0,0.5,0.4,0.8,0.8,0.8h2.5
			c0.4,0,0.8-0.4,0.8-0.8V34.5c2.1,1.3,4.6,2,7.1,2c2.6,0,4.9-0.7,7-1.9v10.8c0,0.5,0.4,0.8,0.8,0.8h2.5c0.4,0,0.8-0.4,0.8-0.8V33.7
			c0.4-0.5,0.6-1.1,0.6-1.8C47,30.4,45.8,29.2,44.3,29.2L44.3,29.2z M44.3,33c-0.6,0-1.1-0.5-1.1-1.1c0-0.6,0.5-1.1,1.1-1.1
			c0.6,0,1.1,0.5,1.1,1.1C45.4,32.5,44.9,33,44.3,33z M43.8,34.6c0.2,0,0.3,0,0.5,0c0.1,0,0.3,0,0.5,0v9.9h-0.9V34.6z M27.1,31.9
			c0,0.6-0.5,1.1-1.1,1.1s-1.1-0.5-1.1-1.1c0-0.6,0.5-1.1,1.1-1.1S27.1,31.3,27.1,31.9z M26.5,34.6v9.9h-0.9v-9.9c0.2,0,0.3,0,0.5,0
			S26.3,34.6,26.5,34.6z M8.8,31.9c0,0.6-0.5,1.1-1.1,1.1s-1.1-0.5-1.1-1.1c0-0.6,0.5-1.1,1.1-1.1S8.8,31.3,8.8,31.9z"/>
	</g>
</g>
<g id="圖層_4">
	<g>
		<path class="st5" d="M46.4,24.8c0-4.8-1.8-9.5-5.1-13.1c-3-3.3-7-5.5-11.4-6.3L30,5.3c0.2-0.3,0.2-0.6,0-0.9
			C29.9,4.2,29.6,4,29.3,4h-6.5c-0.3,0-0.6,0.2-0.8,0.4c-0.2,0.3-0.2,0.6,0,0.9L22,5.4c-4.4,0.8-8.4,3-11.4,6.3
			C7.4,15.3,5.6,20,5.6,24.8c0,5.3,2.1,10.2,6,14c1.2,1.2,2.6,2.2,4,3L14.5,47c-0.1,0.3,0,0.5,0.2,0.7c0.2,0.2,0.4,0.3,0.7,0.3h21.3
			c0.3,0,0.5-0.1,0.7-0.3c0.2-0.2,0.2-0.5,0.2-0.7l-1.1-5.2c1.4-0.8,2.8-1.8,4-3C44.3,35,46.4,30.1,46.4,24.8L46.4,24.8z M31.7,42
			l-4-14.3l10.8,10.5C36.6,39.9,34.3,41.2,31.7,42z M13.5,38.1l10.8-10.5l-4,14.3C17.7,41.2,15.4,39.9,13.5,38.1z M8.2,30.3L23,26.5
			L12.2,36.9C10.4,35,9.1,32.8,8.2,30.3z M7.3,24.8c0-1.3,0.1-2.6,0.4-3.8l14.8,3.8L7.8,28.6C7.5,27.4,7.3,26.1,7.3,24.8z
			 M38.5,11.5L27.7,21.9l4-14.3C34.3,8.4,36.6,9.7,38.5,11.5L38.5,11.5z M44.7,24.8c0,1.3-0.1,2.6-0.4,3.8l-14.8-3.8L44.2,21
			C44.5,22.2,44.7,23.5,44.7,24.8z M27.3,24.8c0,0.7-0.6,1.3-1.3,1.3c-0.7,0-1.3-0.6-1.3-1.3s0.6-1.3,1.3-1.3
			C26.7,23.5,27.3,24.1,27.3,24.8z M26,28.1l4,14.3c-1.3,0.3-2.6,0.4-4,0.4c-1.4,0-2.7-0.1-4-0.4L26,28.1z M29,26.5l14.8,3.8
			c-0.8,2.5-2.2,4.7-4,6.6L29,26.5z M43.8,19.3L29,23.1l10.8-10.5C41.6,14.6,42.9,16.8,43.8,19.3L43.8,19.3z M27.7,5.7l-1.7,3
			l-1.7-3H27.7z M25.2,10.9c0.2,0.3,0.5,0.4,0.8,0.4s0.6-0.2,0.8-0.4L29,7c0.3,0,0.6,0.1,0.9,0.2l-4,14.3L22,7.2
			C22.3,7.1,22.6,7,23,7L25.2,10.9z M12.2,12.7l2.6,2.6c0.2,0.2,0.4,0.3,0.6,0.3c0.2,0,0.5-0.1,0.6-0.3c0.3-0.3,0.3-0.9,0-1.2
			l-2.6-2.6c1.9-1.7,4.3-3,6.9-3.8l4,14.3l-2.5-2.4c-0.3-0.3-0.9-0.3-1.3,0c-0.3,0.3-0.3,0.9,0,1.2l2.5,2.4L8.2,19.3
			C9.1,16.8,10.4,14.6,12.2,12.7z M35.6,46.3H16.4l0.8-3.6c2.7,1.3,5.7,1.9,8.8,1.9c3.1,0,6.1-0.7,8.8-1.9L35.6,46.3L35.6,46.3z"/>
		<path class="st5" d="M18.3,18.2c0.5,0,0.9-0.4,0.9-0.9c0-0.5-0.4-0.9-0.9-0.9c-0.5,0-0.9,0.4-0.9,0.9
			C17.4,17.8,17.8,18.2,18.3,18.2z"/>
	</g>
</g>
<g id="圖層_5" class="st0">
	<g class="st3">
		<path class="st5" d="M39.7,8h-9.1c-1.8,0-3.3,1.5-3.3,3.4v9.4c0,1.9,1.5,3.4,3.3,3.4h9.1c1.8,0,3.3-1.5,3.3-3.4v-9.4
			C43,9.5,41.5,8,39.7,8z M40.7,20.8c0,0.6-0.5,1.1-1,1.1h-9.1c-0.6,0-1-0.5-1-1.1v-9.4c0-0.6,0.5-1.1,1-1.1h9.1c0.6,0,1,0.5,1,1.1
			V20.8L40.7,20.8z"/>
		<path class="st5" d="M20.4,27.8h-9.1c-1.8,0-3.3,1.5-3.3,3.4v9.4c0,1.9,1.5,3.4,3.3,3.4h9.1c1.8,0,3.3-1.5,3.3-3.4v-9.4
			C23.7,29.3,22.2,27.8,20.4,27.8L20.4,27.8z M10.3,31.2c0-0.6,0.5-1.1,1-1.1h9.1c0.6,0,1,0.5,1,1.1v9.4c0,0.6-0.5,1.1-1,1.1h-9.1
			c-0.6,0-1-0.5-1-1.1V31.2z"/>
		<path class="st5" d="M20.4,8h-9.1C9.5,8,8,9.5,8,11.4v9.4c0,1.9,1.5,3.4,3.3,3.4h9.1c1.8,0,3.3-1.5,3.3-3.4v-9.4
			C23.7,9.5,22.2,8,20.4,8L20.4,8z M10.3,11.4c0-0.6,0.5-1.1,1-1.1h9.1c0.6,0,1,0.5,1,1.1v9.4c0,0.6-0.5,1.1-1,1.1h-9.1
			c-0.6,0-1-0.5-1-1.1V11.4z"/>
		<path class="st5" d="M41.3,39.5c0.9-1.3,1.4-2.8,1.4-4.4c0-2-0.8-3.9-2.1-5.3c-1.4-1.4-3.2-2.2-5.2-2.2c-2,0-3.8,0.8-5.2,2.2
			C28.8,31.1,28,33,28,35c0,2,0.8,3.9,2.1,5.3c1.4,1.4,3.2,2.2,5.2,2.2c1.5,0,3-0.5,4.3-1.4l2.4,2.5c0.2,0.2,0.5,0.4,0.8,0.4
			s0.6-0.1,0.8-0.4c0.2-0.2,0.3-0.5,0.3-0.9c0-0.3-0.1-0.6-0.3-0.9L41.3,39.5L41.3,39.5z M40.3,35c0,1.4-0.5,2.7-1.5,3.6
			c-0.9,1-2.2,1.5-3.5,1.5c-1.3,0-2.6-0.5-3.5-1.5c-0.9-1-1.5-2.3-1.5-3.6c0-1.4,0.5-2.7,1.5-3.6c0.9-1,2.2-1.5,3.5-1.5
			c1.3,0,2.6,0.5,3.5,1.5C39.8,32.4,40.3,33.7,40.3,35z"/>
	</g>
</g>
<g id="圖層_6" class="st0">
	<g class="st3">
		<path class="st5" d="M25.6,43.4c-0.2,0-0.4-0.1-0.6-0.2c-0.2-0.2-0.3-0.4-0.3-0.6c0-0.2,0.1-0.4,0.3-0.6c0.2-0.2,0.4-0.2,0.6-0.2
			s0.4,0.1,0.6,0.2c0.2,0.2,0.3,0.4,0.3,0.6c0,0.2-0.1,0.4-0.3,0.6C26,43.3,25.8,43.4,25.6,43.4z"/>
		<path class="st5" d="M25.6,41.7c0.2,0,0.4,0.1,0.6,0.2c0.2,0.1,0.2,0.4,0.2,0.6c0,0.2-0.1,0.4-0.2,0.6c-0.2,0.1-0.4,0.2-0.6,0.2
			c-0.2,0-0.4-0.1-0.6-0.2c-0.2-0.1-0.2-0.4-0.2-0.6c0-0.2,0.1-0.4,0.2-0.6C25.2,41.8,25.4,41.7,25.6,41.7z M25.6,41.6
			c-0.2,0-0.5,0.1-0.6,0.3c-0.2,0.2-0.3,0.4-0.3,0.6c0,0.2,0.1,0.5,0.3,0.6c0.2,0.2,0.4,0.3,0.6,0.3c0.2,0,0.5-0.1,0.6-0.3
			c0.2-0.2,0.3-0.4,0.3-0.6c0-0.2-0.1-0.5-0.3-0.6C26.1,41.7,25.8,41.6,25.6,41.6z"/>
		<path class="st5" d="M11.9,46.6c-1.6,0-2.8-1.2-2.8-2.8V8.2c0-1.5,1.3-2.8,2.8-2.8h27.4c1.6,0,2.8,1.2,2.8,2.8V20l3.7-3.6
			c0.6-0.6,1.3-0.9,2.1-0.9c0.8,0,1.6,0.3,2.1,0.9c1.2,1.2,1.2,3,0,4.2l-7.9,7.8v15.4c0,1.5-1.3,2.8-2.8,2.8L11.9,46.6L11.9,46.6z
			 M11.9,7.1c-0.6,0-1.1,0.5-1.1,1.1v35.6c0,0.6,0.5,1.1,1.1,1.1h27.4c0.6,0,1.1-0.5,1.1-1.1V30c-0.1,0-0.1,0.1-0.2,0.1l-1.4,0.6
			v11.8c0,0.5-0.4,0.8-0.9,0.8h-9.1c-0.5,0-0.9-0.4-0.9-0.8c0-0.5,0.4-0.8,0.9-0.8h8.3V31.5l-2.4,1.1c-0.1,0-0.2,0.1-0.4,0.1
			c-0.2,0-0.4-0.1-0.6-0.2c-0.3-0.2-0.3-0.6-0.2-0.9L36,26c0-0.1,0.1-0.2,0.2-0.3l0.9-0.9V10.3h-4.6v0c0,1.4-1.2,2.5-2.6,2.5h-8.8
			c-1.4,0-2.6-1.1-2.6-2.5v0H14v31.3h8.3c0.5,0,0.9,0.4,0.9,0.8c0,0.5-0.4,0.8-0.9,0.8h-9.1c-0.5,0-0.9-0.4-0.9-0.8v-33
			c0-0.5,0.4-0.8,0.9-0.8h5.4V7.1H11.9z M36.1,30.1l2.3-1l-1.3-1.3L36.1,30.1z M39.9,28.2l7.3-7.2l-1.8-1.8l-7.3,7.2L39.9,28.2z
			 M38,8.6c0.5,0,0.9,0.4,0.9,0.8v13.7l1.5-1.5V8.2c0-0.6-0.5-1.1-1.1-1.1h-6.7v1.5H38L38,8.6z M48.4,19.8l0.4-0.4
			c0.5-0.5,0.5-1.3,0-1.8c-0.2-0.2-0.6-0.4-0.9-0.4s-0.7,0.1-0.9,0.4L46.6,18L48.4,19.8L48.4,19.8z M20.3,10.4
			c0,0.5,0.4,0.9,0.9,0.9H30c0.5,0,0.9-0.4,0.9-0.9V7.1H20.3V10.4z"/>
		<path class="st5" d="M39.3,5.5c1.5,0,2.8,1.2,2.8,2.7v11.9l3.7-3.7c0.6-0.6,1.3-0.9,2.1-0.9c0.8,0,1.5,0.3,2.1,0.9
			c1.2,1.1,1.2,3,0,4.1l-7.9,7.8v15.5c0,1.5-1.2,2.7-2.8,2.7H11.9c-1.5,0-2.8-1.2-2.8-2.7V8.2c0-1.5,1.2-2.7,2.8-2.7H39.3z
			 M32.5,8.7H38c0.5,0,0.8,0.4,0.8,0.8v13.8l1.6-1.6V8.2c0-0.6-0.5-1.1-1.1-1.1h-6.8L32.5,8.7 M21.2,11.3H30c0.5,0,0.9-0.4,0.9-0.9
			V7.1H20.3v3.3C20.3,10.9,20.7,11.3,21.2,11.3 M11.9,44.9h27.4c0.6,0,1.1-0.5,1.1-1.1V29.9c-0.1,0.1-0.1,0.1-0.2,0.2l-1.4,0.6v11.8
			c0,0.4-0.4,0.8-0.8,0.8h-9.1c-0.5,0-0.8-0.4-0.8-0.8c0-0.4,0.4-0.8,0.8-0.8h8.3V31.4l-2.5,1.1c-0.1,0-0.2,0.1-0.3,0.1
			c-0.2,0-0.4-0.1-0.6-0.2c-0.2-0.2-0.3-0.6-0.2-0.9l2.5-5.4c0-0.1,0.1-0.2,0.2-0.2l0.9-0.9V10.3h-4.6v0.1c0,1.4-1.1,2.5-2.6,2.5
			h-8.8c-1.4,0-2.6-1.1-2.6-2.5v-0.1H14v31.4h8.3c0.5,0,0.8,0.4,0.8,0.8c0,0.4-0.4,0.8-0.8,0.8h-9.1c-0.5,0-0.8-0.4-0.8-0.8v-33
			c0-0.4,0.4-0.8,0.8-0.8h5.5V7.1h-6.8c-0.6,0-1.1,0.5-1.1,1.1v35.6C10.7,44.4,11.2,44.9,11.9,44.9 M48.4,19.9l0.5-0.5
			c0.5-0.5,0.5-1.4,0-1.9c-0.3-0.3-0.6-0.4-1-0.4c-0.3,0-0.7,0.1-1,0.4L46.5,18L48.4,19.9 M39.9,28.2l5.9-5.8l1.4-1.4l-1.9-1.9
			L38,26.4L39.9,28.2z M36,30.2l2.5-1.1l-1.4-1.3L36,30.2 M39.3,5.4H11.9C10.3,5.4,9,6.7,9,8.2v35.6c0,1.6,1.3,2.8,2.9,2.8h27.4
			c1.6,0,2.9-1.3,2.9-2.8V28.4l7.9-7.8c0.6-0.6,0.9-1.3,0.9-2.1c0-0.8-0.3-1.6-0.9-2.1c-0.6-0.6-1.3-0.9-2.2-0.9
			c-0.8,0-1.6,0.3-2.2,0.9l-3.6,3.5V8.2C42.2,6.7,40.9,5.4,39.3,5.4z M32.6,7.2h6.7c0.6,0,1.1,0.5,1.1,1v13.4l-1.5,1.4V9.5
			c0-0.5-0.4-0.9-0.9-0.9h-5.4V7.2z M20.4,7.2h10.5v3.2c0,0.4-0.4,0.8-0.8,0.8h-8.8c-0.5,0-0.8-0.4-0.8-0.8L20.4,7.2L20.4,7.2z
			 M11.9,44.8c-0.6,0-1.1-0.5-1.1-1V8.2c0-0.6,0.5-1,1.1-1h6.7v1.4h-5.4c-0.5,0-0.9,0.4-0.9,0.9v33c0,0.5,0.4,0.9,0.9,0.9h9.1
			c0.5,0,0.9-0.4,0.9-0.9c0-0.5-0.4-0.9-0.9-0.9h-8.2V10.4h4.5c0,1.4,1.2,2.6,2.6,2.6H30c1.4,0,2.6-1.1,2.6-2.6h4.5v14.5l-0.9,0.9
			c-0.1,0.1-0.1,0.2-0.2,0.3l-2.5,5.4c-0.2,0.3-0.1,0.7,0.2,1c0.2,0.2,0.4,0.3,0.6,0.3c0.1,0,0.3,0,0.4-0.1l2.3-1v10.1h-8.2
			c-0.5,0-0.9,0.4-0.9,0.9c0,0.5,0.4,0.9,0.9,0.9H38c0.5,0,0.9-0.4,0.9-0.9V30.8l1.3-0.6c0,0,0.1,0,0.1-0.1v13.7c0,0.6-0.5,1-1.1,1
			L11.9,44.8L11.9,44.8z M46.6,18l0.4-0.4c0.2-0.2,0.6-0.4,0.9-0.4s0.6,0.1,0.9,0.4c0.5,0.5,0.5,1.3,0,1.7l-0.4,0.4L46.6,18L46.6,18
			z M38.1,26.4l7.2-7.1l1.8,1.7l-1.4,1.3l-5.9,5.8L38.1,26.4L38.1,26.4z M36.2,30l1-2.1l1.2,1.2L36.2,30z"/>
		<path class="st5" d="M17.1,21.9c-0.5,0-0.9-0.4-0.9-0.8v-5.1c0-0.5,0.4-0.8,0.9-0.8h5.2c0.5,0,0.9,0.4,0.9,0.8V21
			c0,0.5-0.4,0.8-0.9,0.8H17.1z M21.5,20.2v-3.4H18v3.4H21.5z"/>
		<path class="st5" d="M22.3,15.1c0.5,0,0.8,0.4,0.8,0.8V21c0,0.4-0.4,0.8-0.8,0.8h-5.2c-0.5,0-0.8-0.4-0.8-0.8v-5.1
			c0-0.4,0.4-0.8,0.8-0.8H22.3z M17.9,20.2h3.6v-3.5h-3.6V20.2z M22.3,15h-5.2c-0.5,0-0.9,0.4-0.9,0.9V21c0,0.5,0.4,0.9,0.9,0.9h5.2
			c0.5,0,0.9-0.4,0.9-0.9v-5.1C23.2,15.4,22.8,15,22.3,15z M18,16.8h3.4v3.3H18V16.8z"/>
		<path class="st5" d="M17.1,30.7c-0.5,0-0.9-0.4-0.9-0.8v-5.1c0-0.5,0.4-0.8,0.9-0.8h5.2c0.5,0,0.9,0.4,0.9,0.8v5.1
			c0,0.5-0.4,0.8-0.9,0.8H17.1z M21.5,29v-3.4H18V29H21.5z"/>
		<path class="st5" d="M22.3,23.9c0.5,0,0.8,0.4,0.8,0.8v5.1c0,0.4-0.4,0.8-0.8,0.8h-5.2c-0.5,0-0.8-0.4-0.8-0.8v-5.1
			c0-0.4,0.4-0.8,0.8-0.8H22.3z M17.9,29h3.6v-3.5h-3.6V29z M22.3,23.8h-5.2c-0.5,0-0.9,0.4-0.9,0.9v5.1c0,0.5,0.4,0.9,0.9,0.9h5.2
			c0.5,0,0.9-0.4,0.9-0.9v-5.1C23.2,24.2,22.8,23.8,22.3,23.8z M18,25.6h3.4V29H18V25.6z"/>
		<path class="st5" d="M17.1,39.5c-0.5,0-0.9-0.4-0.9-0.8v-5.1c0-0.5,0.4-0.8,0.9-0.8h5.2c0.5,0,0.9,0.4,0.9,0.8v5.1
			c0,0.5-0.4,0.8-0.9,0.8H17.1z M21.5,37.8v-3.4H18v3.4H21.5z"/>
		<path class="st5" d="M22.3,32.7c0.5,0,0.8,0.4,0.8,0.8v5.1c0,0.4-0.4,0.8-0.8,0.8h-5.2c-0.5,0-0.8-0.4-0.8-0.8v-5.1
			c0-0.4,0.4-0.8,0.8-0.8H22.3z M17.9,37.9h3.6v-3.5h-3.6V37.9z M22.3,32.6h-5.2c-0.5,0-0.9,0.4-0.9,0.9v5.1c0,0.5,0.4,0.9,0.9,0.9
			h5.2c0.5,0,0.9-0.4,0.9-0.9v-5.1C23.2,33,22.8,32.6,22.3,32.6z M18,34.4h3.4v3.3H18V34.4z"/>
		<path class="st5" d="M28.7,21.1c-0.2,0-0.4-0.1-0.6-0.2l-1.8-1.8c-0.3-0.3-0.3-0.9,0-1.2c0.2-0.2,0.4-0.2,0.6-0.2
			c0.2,0,0.4,0.1,0.6,0.2l1.2,1.2l3.1-3c0.2-0.2,0.4-0.2,0.6-0.2c0.2,0,0.4,0.1,0.6,0.2c0.3,0.3,0.3,0.9,0,1.2l-3.7,3.6
			C29.2,21,29,21.1,28.7,21.1L28.7,21.1z"/>
		<path class="st5" d="M32.4,15.9c0.2,0,0.4,0.1,0.6,0.2c0.3,0.3,0.3,0.8,0,1.1l-3.7,3.6c-0.2,0.2-0.4,0.2-0.6,0.2
			c-0.2,0-0.4-0.1-0.6-0.2l-1.8-1.8c-0.3-0.3-0.3-0.8,0-1.1c0.2-0.2,0.4-0.2,0.6-0.2c0.2,0,0.4,0.1,0.6,0.2l1.2,1.2l3.1-3.1
			C32,15.9,32.2,15.9,32.4,15.9 M32.4,15.8c-0.2,0-0.5,0.1-0.6,0.3l-3,3l-1.2-1.2c-0.2-0.2-0.4-0.3-0.6-0.3s-0.5,0.1-0.6,0.3
			c-0.4,0.3-0.4,0.9,0,1.3l1.8,1.8c0.2,0.2,0.4,0.3,0.6,0.3c0.2,0,0.5-0.1,0.6-0.3l3.7-3.6c0.4-0.3,0.4-0.9,0-1.3
			C32.9,15.9,32.7,15.8,32.4,15.8L32.4,15.8z"/>
		<path class="st5" d="M28.7,29.9c-0.2,0-0.4-0.1-0.6-0.2l-1.8-1.8c-0.3-0.3-0.3-0.9,0-1.2c0.2-0.2,0.4-0.2,0.6-0.2
			c0.2,0,0.4,0.1,0.6,0.2l1.2,1.2l3.1-3c0.2-0.2,0.4-0.2,0.6-0.2c0.2,0,0.4,0.1,0.6,0.2c0.3,0.3,0.3,0.9,0,1.2l-3.7,3.6
			C29.2,29.8,29,29.9,28.7,29.9L28.7,29.9z"/>
		<path class="st5" d="M32.4,24.7c0.2,0,0.4,0.1,0.6,0.2c0.3,0.3,0.3,0.8,0,1.1l-3.7,3.6c-0.2,0.1-0.4,0.2-0.6,0.2
			c-0.2,0-0.4-0.1-0.6-0.2l-1.8-1.8c-0.3-0.3-0.3-0.8,0-1.1c0.2-0.2,0.4-0.2,0.6-0.2c0.2,0,0.4,0.1,0.6,0.2l1.2,1.2l3.1-3.1
			C32,24.8,32.2,24.7,32.4,24.7 M32.4,24.6c-0.2,0-0.5,0.1-0.6,0.3l-3,3l-1.2-1.2c-0.2-0.2-0.4-0.3-0.6-0.3s-0.5,0.1-0.6,0.3
			c-0.4,0.3-0.4,0.9,0,1.3l1.8,1.8c0.2,0.2,0.4,0.3,0.6,0.3c0.2,0,0.5-0.1,0.6-0.3l3.7-3.6c0.4-0.3,0.4-0.9,0-1.3
			C32.9,24.7,32.7,24.6,32.4,24.6L32.4,24.6z"/>
		<path class="st5" d="M31.5,38.8c-0.2,0-0.4-0.1-0.6-0.2l-1.2-1.2l-1.2,1.2c-0.2,0.2-0.4,0.2-0.6,0.2c-0.2,0-0.4-0.1-0.6-0.2
			c-0.3-0.3-0.3-0.9,0-1.2l1.2-1.2l-1.2-1.2c-0.3-0.3-0.3-0.9,0-1.2c0.2-0.2,0.4-0.2,0.6-0.2c0.2,0,0.4,0.1,0.6,0.2l1.2,1.2l1.2-1.2
			c0.2-0.2,0.4-0.2,0.6-0.2c0.2,0,0.4,0.1,0.6,0.2s0.3,0.4,0.3,0.6c0,0.2-0.1,0.4-0.3,0.6l-1.2,1.2l1.2,1.2c0.2,0.2,0.3,0.4,0.3,0.6
			c0,0.2-0.1,0.4-0.3,0.6C32,38.7,31.8,38.8,31.5,38.8z"/>
		<path class="st5" d="M31.5,33.5c0.2,0,0.4,0.1,0.6,0.2c0.3,0.3,0.3,0.8,0,1.1l-1.3,1.2l1.3,1.2c0.3,0.3,0.3,0.8,0,1.1
			c-0.2,0.2-0.4,0.2-0.6,0.2c-0.2,0-0.4-0.1-0.6-0.2l-1.3-1.2l-1.3,1.2c-0.2,0.2-0.4,0.2-0.6,0.2c-0.2,0-0.4-0.1-0.6-0.2
			c-0.3-0.3-0.3-0.8,0-1.1l1.3-1.2l-1.3-1.2c-0.3-0.3-0.3-0.8,0-1.1c0.2-0.2,0.4-0.2,0.6-0.2c0.2,0,0.4,0.1,0.6,0.2l1.3,1.2l1.3-1.2
			C31.1,33.6,31.3,33.5,31.5,33.5z M31.5,33.4c-0.2,0-0.5,0.1-0.6,0.3l-1.2,1.2l-1.2-1.2c-0.2-0.2-0.4-0.3-0.6-0.3
			c-0.2,0-0.5,0.1-0.6,0.3c-0.4,0.3-0.4,0.9,0,1.3l1.2,1.2l-1.2,1.2c-0.4,0.3-0.4,0.9,0,1.3c0.2,0.2,0.4,0.3,0.6,0.3
			c0.2,0,0.5-0.1,0.6-0.3l1.2-1.2l1.2,1.2c0.2,0.2,0.4,0.3,0.6,0.3c0.2,0,0.5-0.1,0.6-0.3c0.2-0.2,0.3-0.4,0.3-0.6
			c0-0.2-0.1-0.5-0.3-0.6L31,36.1l1.2-1.2c0.2-0.2,0.3-0.4,0.3-0.6c0-0.2-0.1-0.5-0.3-0.6C32,33.5,31.8,33.4,31.5,33.4z"/>
	</g>
</g>
<g id="圖層_7" class="st0">
	<g class="st3">
		<path class="st5" d="M44.7,21c0-0.3-0.1-0.5-0.3-0.7L37.3,13c-0.2-0.2-0.4-0.3-0.7-0.3h-1.3l1.7-1.8c0.2-0.2,0.3-0.4,0.3-0.7
			c0-0.3-0.1-0.5-0.3-0.7l-6-6.2C30.9,3.1,30.7,3,30.4,3s-0.5,0.1-0.7,0.3l-2.5,2.6l-6.6,6.8c0,0,0,0,0,0h-5.3
			c-0.3,0-0.5,0.1-0.7,0.3l-7.1,7.4l0,0.1v0c-0.1,0.2-0.2,0.4-0.2,0.6v23c0,0.5,0.4,1,1,1h35.5c0.5,0,1-0.4,1-1v-8.2
			c0-0.5-0.4-1-1-1s-1,0.4-1,1V43H9.2V22h33.6v7.2c0,0.5,0.4,1,1,1s1-0.4,1-1V21z M21.3,14.8l7.3-7.6l1.8-1.9l4.6,4.8l-6,6.2h-6.3
			L21.3,14.8L21.3,14.8z M19.3,15.5l0.8,0.8H18c-0.5,0-1,0.4-1,1c0,0.5,0.4,1,1,1h16c0.5,0,1-0.4,1-1c0-0.5-0.4-1-1-1h-2.2l1.6-1.7
			h2.8l5.2,5.4H10.6l5.2-5.4H19C19,15,19,15.3,19.3,15.5L19.3,15.5z"/>
		<path class="st5" d="M18.9,32.5c0,4,3.2,7.3,7.1,7.3s7.1-3.3,7.1-7.3s-3.2-7.3-7.1-7.3S18.9,28.5,18.9,32.5z M20.8,32.5
			c0-3,2.3-5.4,5.2-5.4s5.2,2.4,5.2,5.4s-2.3,5.4-5.2,5.4S20.8,35.5,20.8,32.5z"/>
		<path class="st5" d="M24.6,34.6c0.2,0.2,0.4,0.3,0.7,0.3s0.5-0.1,0.7-0.3l3.1-3.3c0.2-0.2,0.3-0.4,0.3-0.7c0-0.3-0.1-0.5-0.3-0.7
			c-0.2-0.2-0.4-0.3-0.7-0.3s-0.5,0.1-0.7,0.3l-2.5,2.6l-1-1.1c-0.2-0.2-0.4-0.3-0.7-0.3c-0.3,0-0.5,0.1-0.7,0.3
			c-0.4,0.4-0.4,1,0,1.4L24.6,34.6L24.6,34.6z"/>
		<path class="st5" d="M43.8,31.7c-0.2,0-0.4,0.1-0.6,0.2C43,32.1,43,32.3,43,32.5c0,0.2,0.1,0.4,0.2,0.6c0.1,0.2,0.3,0.2,0.6,0.2
			c0.2,0,0.4-0.1,0.6-0.2c0.1-0.2,0.2-0.4,0.2-0.6c0-0.2-0.1-0.4-0.2-0.6C44.2,31.8,44,31.7,43.8,31.7z"/>
	</g>
</g>
</svg>
