<?xml version="1.0" encoding="utf-8"?>
<!-- Generator: Adobe Illustrator 27.9.0, SVG Export Plug-In . SVG Version: 6.00 Build 0)  -->
<svg version="1.1" id="圖層_1" xmlns="http://www.w3.org/2000/svg" xmlns:xlink="http://www.w3.org/1999/xlink" x="0px" y="0px"
	 viewBox="0 0 52 52" style="enable-background:new 0 0 52 52;" xml:space="preserve">
<style type="text/css">
	.st0{display:none;}
	.st1{display:inline;fill:#353535;}
	.st2{fill:#FFFFFF;}
	.st3{display:inline;fill:none;}
	.st4{display:inline;}
</style>
<g id="圖層_3" class="st0">
	<rect x="-44.5" y="-25.7" class="st1" width="16.7" height="16.7"/>
</g>
<g>
	<path class="st2" d="M14,12.3c-1.7,0-3.1,1.4-3.1,3.1c0,1.7,1.4,3.1,3.1,3.1s3.1-1.4,3.1-3.1S15.7,12.3,14,12.3z"/>
	<path class="st2" d="M14,22.9c-1.7,0-3.1,1.4-3.1,3.1s1.4,3.1,3.1,3.1s3.1-1.4,3.1-3.1C17.1,24.3,15.7,22.9,14,22.9z"/>
	<path class="st2" d="M14,33.5c-1.7,0-3.1,1.4-3.1,3.1c0,1.7,1.4,3.1,3.1,3.1s3.1-1.4,3.1-3.1C17.1,34.9,15.7,33.5,14,33.5z"/>
	<path class="st2" d="M26,12.3c-1.7,0-3.1,1.4-3.1,3.1c0,1.7,1.4,3.1,3.1,3.1s3.1-1.4,3.1-3.1S27.7,12.3,26,12.3z"/>
	<path class="st2" d="M26,22.9c-1.7,0-3.1,1.4-3.1,3.1s1.4,3.1,3.1,3.1s3.1-1.4,3.1-3.1C29.1,24.3,27.7,22.9,26,22.9z"/>
	<path class="st2" d="M26,33.5c-1.7,0-3.1,1.4-3.1,3.1c0,1.7,1.4,3.1,3.1,3.1s3.1-1.4,3.1-3.1C29.1,34.9,27.7,33.5,26,33.5z"/>
	<path class="st2" d="M38,12.3c-1.7,0-3.1,1.4-3.1,3.1c0,1.7,1.4,3.1,3.1,3.1s3.1-1.4,3.1-3.1S39.7,12.3,38,12.3z"/>
	<path class="st2" d="M38,22.9c-1.7,0-3.1,1.4-3.1,3.1s1.4,3.1,3.1,3.1s3.1-1.4,3.1-3.1S39.7,22.9,38,22.9z"/>
	<path class="st2" d="M38,33.5c-1.7,0-3.1,1.4-3.1,3.1c0,1.7,1.4,3.1,3.1,3.1s3.1-1.4,3.1-3.1S39.7,33.5,38,33.5z"/>
</g>
<g id="圖層_1_00000049914449306077749010000005971706930205600947_" class="st0">
	<rect x="-235.7" y="-57.8" class="st3" width="55" height="55"/>
	<g class="st4">
		<path class="st2" d="M23,50.9c-0.5,0-0.8-0.4-0.8-0.8v-9.4l-1.9-1.3c-0.2-0.2-0.4-0.4-0.4-0.7v-5.3c0-1.8,1.3-3.4,3.1-3.8
			c-0.5-0.7-0.8-1.5-0.8-2.3c0-2.1,1.7-3.9,3.9-3.9s3.9,1.7,3.9,3.9c0,0.8-0.3,1.6-0.8,2.3c1.8,0.4,3.1,2,3.1,3.8v5.3
			c0,0.3-0.1,0.5-0.4,0.7L30,40.7v9.4c0,0.5-0.4,0.8-0.8,0.8L23,50.9L23,50.9z M28.2,49.2v-9c0-0.3,0.1-0.5,0.4-0.7l1.9-1.3v-4.9
			c0-1.2-1-2.2-2.2-2.2h-4.6c-1.2,0-2.2,1-2.2,2.2v4.9l1.9,1.3c0.2,0.2,0.4,0.4,0.4,0.7v9H28.2L28.2,49.2z M26,25
			c-1.2,0-2.2,1-2.2,2.2s1,2.2,2.2,2.2s2.2-1,2.2-2.2S27.2,25,26,25z"/>
		<path class="st2" d="M26,23.4c2.1,0,3.8,1.7,3.8,3.8c0,0.9-0.3,1.7-0.8,2.4c1.8,0.3,3.1,1.9,3.1,3.7v5.3c0,0.3-0.1,0.5-0.3,0.6
			l-1.9,1.3V50c0,0.4-0.3,0.8-0.8,0.8H23c-0.4,0-0.8-0.3-0.8-0.8v-9.5l-1.9-1.3c-0.2-0.1-0.3-0.4-0.3-0.6v-5.3
			c0-1.9,1.3-3.4,3.1-3.7c-0.5-0.6-0.8-1.5-0.8-2.4C22.2,25.1,23.9,23.4,26,23.4 M26,29.5c1.3,0,2.3-1,2.3-2.3s-1-2.3-2.3-2.3
			s-2.3,1-2.3,2.3S24.7,29.5,26,29.5z M23.7,49.3h4.6v-9.1c0-0.3,0.1-0.5,0.3-0.6l1.9-1.3v-4.9c0-1.3-1-2.3-2.3-2.3h-4.6
			c-1.3,0-2.3,1-2.3,2.3v4.9l1.9,1.3c0.2,0.1,0.3,0.4,0.3,0.6v9.1H23.7z M26,23.3c-2.2,0-4,1.8-4,4c0,0.8,0.2,1.6,0.7,2.2
			c-1.8,0.4-3,2-3,3.8v5.3c0,0.3,0.2,0.6,0.4,0.8l1.9,1.2V50c0,0.5,0.4,0.9,0.9,0.9H29c0.5,0,0.9-0.4,0.9-0.9v-9.4l1.9-1.2
			c0.3-0.2,0.4-0.5,0.4-0.8v-5.3c0-1.8-1.2-3.4-3-3.8c0.5-0.7,0.7-1.4,0.7-2.2C30,25,28.2,23.3,26,23.3L26,23.3z M26,29.4
			c-1.2,0-2.1-0.9-2.1-2.1s0.9-2.1,2.1-2.1s2.1,0.9,2.1,2.1C28.1,28.4,27.2,29.4,26,29.4z M21.6,38.2v-4.8c0-1.2,0.9-2.1,2.1-2.1
			h4.6c1.2,0,2.1,0.9,2.1,2.1v4.8l-1.9,1.2c-0.3,0.2-0.4,0.5-0.4,0.8v9h-4.2v-9c0-0.3-0.2-0.6-0.4-0.8L21.6,38.2L21.6,38.2z"/>
		<path class="st2" d="M42,19c-1.4,0-2.7-0.4-3.9-1.2C36.2,16.5,35,14.3,35,12c0-3.8,3.1-6.9,6.9-6.9c3.8,0,6.9,3.1,6.9,6.9
			c0,2.3-1.2,4.5-3.1,5.8C44.7,18.6,43.4,19,42,19L42,19z M39,16.4C39,16.4,39.1,16.4,39,16.4c0.9,0.6,1.9,0.9,2.9,0.9
			c1.1,0,2.1-0.3,2.9-0.9l0,0c-0.1-1.1-1.1-2-2.2-2h-1.5C40.1,14.4,39.2,15.3,39,16.4L39,16.4z M42,6.8c-2.9,0-5.2,2.4-5.2,5.2
			c0,1.1,0.3,2.1,0.9,3c0.4-0.8,1-1.5,1.8-1.9c-0.4-0.6-0.6-1.2-0.6-1.9c0-1.7,1.4-3.1,3.1-3.1c1.7,0,3.1,1.4,3.1,3.1
			c0,0.7-0.2,1.3-0.6,1.9c0.8,0.4,1.4,1.1,1.8,1.9c0.6-0.9,0.9-1.9,0.9-3C47.2,9.1,44.9,6.8,42,6.8z M42,9.8c-0.8,0-1.4,0.6-1.4,1.4
			c0,0.8,0.6,1.4,1.4,1.4c0.8,0,1.4-0.6,1.4-1.4C43.4,10.5,42.8,9.8,42,9.8z"/>
		<path class="st2" d="M42,5.2c3.8,0,6.8,3.1,6.8,6.8c0,2.3-1.1,4.4-3,5.7c-1.1,0.8-2.4,1.2-3.8,1.2c-1.4,0-2.7-0.4-3.8-1.2
			c-1.9-1.3-3-3.4-3-5.7C35.1,8.2,38.2,5.2,42,5.2 M37.7,15.2c0.4-0.9,1.1-1.6,1.9-2c-0.4-0.5-0.7-1.2-0.7-1.9c0-1.7,1.4-3,3-3
			c1.7,0,3,1.4,3,3c0,0.7-0.3,1.4-0.7,1.9c0.9,0.4,1.6,1.1,1.9,2c0.7-0.9,1-2,1-3.2c0-2.9-2.4-5.3-5.3-5.3s-5.3,2.4-5.3,5.3
			C36.7,13.2,37,14.3,37.7,15.2 M42,12.8c0.8,0,1.5-0.7,1.5-1.5S42.8,9.7,42,9.7s-1.5,0.7-1.5,1.5S41.1,12.8,42,12.8z M42,17.3
			c1,0,2.1-0.3,3-0.9c0,0,0,0,0.1-0.1c-0.1-1.2-1.1-2.1-2.3-2.1h-1.5c-1.2,0-2.2,0.9-2.3,2.1c0,0,0,0,0.1,0
			C39.9,17,40.9,17.3,42,17.3 M42,5c-3.9,0-7,3.1-7,7c0,2.3,1.2,4.5,3.1,5.8c1.2,0.8,2.5,1.2,3.9,1.2s2.7-0.4,3.9-1.2
			c2-1.3,3.1-3.5,3.1-5.8C49,8.2,45.9,5,42,5L42,5z M37.7,14.8C37.1,14,36.8,13,36.8,12c0-2.8,2.3-5.2,5.2-5.2
			c2.8,0,5.2,2.3,5.2,5.2c0,1-0.3,2-0.8,2.8c-0.4-0.7-1-1.3-1.7-1.7c0.4-0.5,0.6-1.2,0.6-1.8C45.2,9.5,43.8,8,42,8s-3.2,1.4-3.2,3.2
			c0,0.7,0.2,1.3,0.6,1.8C38.6,13.5,38,14.1,37.7,14.8z M42,12.6c-0.7,0-1.4-0.6-1.4-1.4c0-0.7,0.6-1.4,1.4-1.4
			c0.7,0,1.4,0.6,1.4,1.4C43.3,12,42.7,12.6,42,12.6z M39.1,16.3c0.1-1,1-1.8,2.1-1.8h1.5c1.1,0,2,0.8,2.1,1.8
			C44,16.9,43,17.2,42,17.2C40.9,17.2,40,16.9,39.1,16.3L39.1,16.3z"/>
		<path class="st2" d="M10,33.4c-1.4,0-2.7-0.4-3.9-1.2C4.2,30.9,3,28.8,3,26.4c0-3.8,3.1-6.9,6.9-6.9s6.9,3.1,6.9,6.9
			c0,2.3-1.2,4.5-3.1,5.8C12.7,33,11.4,33.4,10,33.4L10,33.4z M7.1,30.8C8,31.4,9,31.7,10,31.7s2.1-0.3,2.9-0.9l0,0
			c-0.1-1.1-1.1-2-2.2-2H9.3C8.1,28.8,7.2,29.7,7.1,30.8L7.1,30.8L7.1,30.8z M10,21.2c-2.9,0-5.2,2.4-5.2,5.2c0,1.1,0.3,2.1,0.9,3
			c0.4-0.8,1-1.5,1.8-1.9c-0.4-0.6-0.6-1.2-0.6-1.9c0-1.7,1.4-3.1,3.1-3.1s3.1,1.4,3.1,3.1c0,0.7-0.2,1.3-0.6,1.9
			c0.8,0.4,1.4,1.1,1.8,1.9c0.6-0.9,0.9-1.9,0.9-3C15.3,23.6,12.9,21.2,10,21.2z M10,24.3c-0.8,0-1.4,0.6-1.4,1.4s0.6,1.4,1.4,1.4
			c0.8,0,1.4-0.6,1.4-1.4C11.5,24.9,10.8,24.3,10,24.3z"/>
		<path class="st2" d="M10,19.6c3.8,0,6.8,3.1,6.8,6.8c0,2.3-1.1,4.4-3,5.7c-1.1,0.8-2.4,1.2-3.8,1.2s-2.7-0.4-3.8-1.2
			c-1.9-1.3-3-3.4-3-5.7C3.2,22.7,6.2,19.6,10,19.6z M5.7,29.6c0.4-0.9,1.1-1.6,1.9-2C7.2,27.1,7,26.4,7,25.7c0-1.7,1.4-3,3-3
			c1.7,0,3,1.4,3,3c0,0.7-0.3,1.4-0.7,1.9c0.9,0.4,1.6,1.1,1.9,2c0.7-0.9,1-2,1-3.2c0-2.9-2.4-5.3-5.3-5.3s-5.3,2.4-5.3,5.3
			C4.7,27.6,5.1,28.7,5.7,29.6 M10,27.2c0.8,0,1.5-0.7,1.5-1.5s-0.7-1.5-1.5-1.5s-1.5,0.7-1.5,1.5C8.5,26.6,9.2,27.2,10,27.2z
			 M10,31.8c1,0,2.1-0.3,3-0.9c0,0,0,0,0.1-0.1c-0.1-1.2-1.1-2.1-2.3-2.1H9.3c-1.2,0-2.2,0.9-2.3,2.1c0,0,0,0,0.1,0
			C7.9,31.5,9,31.8,10,31.8 M10,19.5c-3.9,0-7,3.1-7,7c0,2.3,1.2,4.5,3.1,5.8c1.2,0.8,2.5,1.2,3.9,1.2s2.7-0.4,3.9-1.2
			c2-1.3,3.1-3.5,3.1-5.8C17,22.6,13.9,19.5,10,19.5L10,19.5z M5.7,29.3c-0.5-0.8-0.8-1.8-0.8-2.8c0-2.8,2.3-5.2,5.2-5.2
			c2.8,0,5.2,2.3,5.2,5.2c0,1-0.3,2-0.8,2.8c-0.4-0.7-1-1.3-1.7-1.7c0.4-0.5,0.6-1.2,0.6-1.8c0-1.8-1.4-3.2-3.2-3.2S7,24,7,25.8
			c0,0.7,0.2,1.3,0.6,1.8C6.7,27.9,6.1,28.5,5.7,29.3z M10,27.1c-0.7,0-1.4-0.6-1.4-1.4s0.6-1.4,1.4-1.4c0.7,0,1.4,0.6,1.4,1.4
			S10.8,27.1,10,27.1z M7.2,30.8c0.1-1,1-1.8,2.1-1.8h1.5c1.1,0,2,0.8,2.1,1.8c-0.8,0.5-1.8,0.8-2.8,0.8C9,31.6,8,31.3,7.2,30.8
			L7.2,30.8z"/>
		<path class="st2" d="M25.2,20.5c-0.3,0-0.5-0.1-0.7-0.3l-2-2.7h-1.9c-0.5,0-0.8-0.4-0.8-0.8V12c0-0.5,0.4-0.8,0.8-0.8h7.6
			c0.5,0,0.8,0.4,0.8,0.8v4.6c0,0.5-0.4,0.8-0.8,0.8h-1.6L26,19.8c-0.1,0.3-0.3,0.6-0.7,0.6C25.4,20.5,25.3,20.5,25.2,20.5z
			 M23,15.7c0.3,0,0.5,0.1,0.7,0.3l1.2,1.6l0.3-1.3c0.1-0.4,0.4-0.6,0.8-0.6h1.4v-2.9h-5.9v2.9C21.5,15.7,23,15.7,23,15.7z"/>
		<path class="st2" d="M28.3,11.3c0.4,0,0.8,0.3,0.8,0.8v4.6c0,0.4-0.3,0.8-0.8,0.8h-1.7L26,19.8c-0.1,0.3-0.3,0.5-0.6,0.6
			c0,0-0.1,0-0.2,0c-0.2,0-0.5-0.1-0.6-0.3l-2.1-2.7h-1.9c-0.4,0-0.8-0.3-0.8-0.8V12c0-0.4,0.3-0.8,0.8-0.8L28.3,11.3 M21.4,15.8H23
			c0.2,0,0.5,0.1,0.6,0.3l1.3,1.8l0.4-1.5c0.1-0.3,0.4-0.6,0.7-0.6h1.5v-3h-6.1V15.8 M28.3,11.1h-7.6c-0.5,0-0.9,0.4-0.9,0.9v4.6
			c0,0.5,0.4,0.9,0.9,0.9h1.8l2,2.7c0.2,0.2,0.5,0.4,0.7,0.4c0.1,0,0.1,0,0.2,0c0.3-0.1,0.6-0.3,0.7-0.7l0.6-2.3h1.6
			c0.5,0,0.9-0.4,0.9-0.9V12C29.2,11.5,28.8,11.1,28.3,11.1L28.3,11.1z M21.6,13h5.7v2.7H26c-0.4,0-0.8,0.3-0.9,0.7l-0.3,1.1
			L23.7,16c-0.2-0.2-0.5-0.4-0.7-0.4h-1.4V13z"/>
		<path class="st2" d="M43.4,40.8c-0.2,0-0.4-0.1-0.6-0.2l-3.2-3.2c-0.4-0.4-0.7-1-0.7-1.7c0-0.6,0.2-1.2,0.7-1.7
			c0.4-0.4,1-0.7,1.7-0.7c0.6,0,1.2,0.2,1.7,0.7l0.5,0.5L44,34c0.4-0.4,1-0.7,1.7-0.7c0.6,0,1.2,0.2,1.7,0.7c0.4,0.4,0.7,1,0.7,1.7
			c0,0.6-0.2,1.2-0.7,1.7L44,40.5C43.8,40.7,43.6,40.8,43.4,40.8z M41.2,34.9c-0.2,0-0.4,0.1-0.5,0.2c-0.1,0.1-0.2,0.3-0.2,0.5
			s0.1,0.4,0.2,0.5l2.6,2.6l2.6-2.6c0.1-0.1,0.2-0.3,0.2-0.5s-0.1-0.4-0.2-0.5c-0.1-0.1-0.3-0.2-0.5-0.2S45.2,35,45,35.1l-1,1.1
			c-0.2,0.2-0.4,0.2-0.6,0.2c-0.2,0-0.4-0.1-0.6-0.2l-1.1-1.1C41.6,35,41.4,34.9,41.2,34.9L41.2,34.9z"/>
		<path class="st2" d="M45.5,33.3c0.6,0,1.2,0.2,1.6,0.7c0.4,0.4,0.7,1,0.7,1.6s-0.2,1.2-0.7,1.6l-3.2,3.2c-0.1,0.1-0.3,0.2-0.5,0.2
			s-0.4-0.1-0.5-0.2l-3.2-3.2c-0.4-0.4-0.7-1-0.7-1.6s0.2-1.2,0.7-1.6c0.4-0.4,1-0.6,1.6-0.6s1.2,0.2,1.6,0.6l0.5,0.5l0.5-0.5
			C44.4,33.6,44.9,33.3,45.5,33.3z M43.4,38.8l2.7-2.7c0.1-0.1,0.2-0.3,0.2-0.5s-0.1-0.4-0.2-0.5c-0.1-0.1-0.3-0.2-0.5-0.2
			s-0.4,0.1-0.5,0.2L44,36.2c-0.1,0.1-0.3,0.2-0.5,0.2s-0.4-0.1-0.5-0.2l-1.1-1.1c-0.1-0.1-0.3-0.2-0.5-0.2S41,35,40.9,35.1
			c-0.1,0.1-0.2,0.3-0.2,0.5s0.1,0.4,0.2,0.5L43.4,38.8z M45.5,33.2c-0.7,0-1.3,0.3-1.7,0.7l-0.4,0.4L43,33.9
			c-0.4-0.4-1.1-0.7-1.7-0.7c-0.7,0-1.3,0.3-1.7,0.7c-0.5,0.5-0.7,1.1-0.7,1.7c0,0.7,0.3,1.3,0.7,1.7l3.2,3.2
			c0.2,0.2,0.4,0.3,0.7,0.3s0.5-0.1,0.7-0.3l3.2-3.2c0.5-0.5,0.7-1.1,0.7-1.7c0-0.7-0.3-1.3-0.7-1.7C46.8,33.4,46.2,33.2,45.5,33.2
			L45.5,33.2z M43.4,38.6L40.8,36c-0.1-0.1-0.2-0.3-0.2-0.4c0-0.2,0.1-0.3,0.2-0.4c0.1-0.1,0.3-0.2,0.4-0.2s0.3,0.1,0.4,0.2l1.1,1.1
			c0.2,0.2,0.4,0.3,0.7,0.3c0.2,0,0.5-0.1,0.7-0.3l1.1-1.1c0.1-0.1,0.3-0.2,0.4-0.2s0.3,0.1,0.4,0.2c0.1,0.1,0.2,0.3,0.2,0.4
			c0,0.2-0.1,0.3-0.2,0.4L43.4,38.6L43.4,38.6z"/>
		<path class="st2" d="M33,35.4L33,35.4c2.8-2.2,4.3-5.4,4.3-8.9c0-4.6-2.8-8.8-7.1-10.5h-0.1l0.6-1.6h0.1c4.9,2,8.1,6.7,8.1,12.1
			c0,4-1.8,7.7-4.9,10.2l-0.1,0.1L33,35.4L33,35.4z"/>
		<path class="st2" d="M30.8,14.5c4.9,2,8.1,6.7,8.1,12c0,3.9-1.8,7.6-4.9,10.1l-1-1.2c2.7-2.2,4.3-5.4,4.3-8.9
			c0-4.7-2.8-8.8-7.1-10.6L30.8,14.5z M30.8,14.3l-0.1,0.2l-0.6,1.4l0,0.1l0.2,0.1c4.3,1.7,7,5.8,7,10.4c0,3.4-1.5,6.6-4.2,8.8
			L33,35.4l0.1,0.1l1,1.2l0.1,0.1l0.1-0.1c3.1-2.5,4.9-6.2,4.9-10.2c0-5.4-3.2-10.1-8.2-12.2L30.8,14.3L30.8,14.3z"/>
		<path class="st2" d="M14.7,20L14.7,20c0.9-1.5,1.9-2.7,3.2-3.7l0.1-0.1l1.1,1.3L19,17.6c-1.1,0.9-2,2-2.7,3.2v0.1L14.7,20L14.7,20
			z"/>
		<path class="st2" d="M17.9,16.4l1,1.2c-1.1,0.9-2,2-2.8,3.2L14.8,20C15.6,18.6,16.6,17.4,17.9,16.4 M17.9,16.1l-0.1,0.1
			c-1.3,1-2.3,2.3-3.2,3.7L14.5,20l0.1,0.1l1.3,0.8L16,21l0.1-0.1c0.7-1.2,1.6-2.3,2.7-3.2l0.1-0.1l0.1-0.1l-1-1.2L17.9,16.1
			L17.9,16.1z"/>
		<path class="st2" d="M17.9,36.6c-1.3-1-2.3-2.2-3.1-3.7v-0.1l1.5-0.8v0.1c0.7,1.2,1.6,2.3,2.7,3.2l0.1,0.1L17.9,36.6L17.9,36.6z"
			/>
		<path class="st2" d="M16.1,32.2c0.7,1.2,1.6,2.3,2.8,3.2l-1,1.2c-1.3-1-2.3-2.2-3.1-3.6L16.1,32.2z M16.2,32H16l-1.3,0.8l-0.1,0.1
			l0.1,0.1c0.8,1.4,1.9,2.7,3.2,3.7l0.1,0.1l0.1-0.1l1-1.2l0.1-0.1L19,35.3C17.9,34.4,17,33.4,16.2,32L16.2,32L16.2,32z"/>
		<path class="st2" d="M20.3,45.6c-5.4-1.5-10-5.3-12.6-10.3v-0.1l1.5-0.8v0.1c2.4,4.6,6.6,8.1,11.6,9.5h0.1L20.3,45.6L20.3,45.6z"
			/>
		<path class="st2" d="M9.1,34.5c2.4,4.6,6.7,8.1,11.6,9.5l-0.4,1.5c-5.4-1.5-10-5.3-12.6-10.3L9.1,34.5z M9.2,34.3H9L7.7,35
			l-0.2,0.1l0.1,0.2c2.6,5,7.2,8.8,12.7,10.4h0.2v-0.2l0.4-1.5v-0.2h-0.2C15.8,42.4,11.6,39,9.2,34.3L9.2,34.3L9.2,34.3z"/>
		<path class="st2" d="M31,44L31,44c3-0.8,5.7-2.4,7.9-4.4l0.1-0.1l1.2,1.2l-0.1,0.1c-2.4,2.3-5.4,3.9-8.5,4.8h-0.1L31,44L31,44z"/>
		<path class="st2" d="M39,39.6l1,1.1c-2.4,2.2-5.3,3.9-8.5,4.8L31.1,44C34,43.2,36.8,41.7,39,39.6z M39,39.4L39,39.4
			c-2.3,2.2-5,3.7-7.9,4.5h-0.2v0.2l0.4,1.5v0.2h0.2c3.2-0.9,6.1-2.6,8.6-4.8l0.1-0.1l-0.1-0.1l-1-1.1L39,39.4L39,39.4z"/>
		<path class="st2" d="M44,31.6L44,31.6c0.6-2,0.9-3.9,0.9-5.9c0-1.7-0.2-3.4-0.7-5.1v-0.1l1.6-0.5v0.1c0.5,1.8,0.8,3.7,0.8,5.6
			c0,2.2-0.3,4.3-1,6.3v0.1L44,31.6L44,31.6z"/>
		<path class="st2" d="M45.8,20.2c0.5,1.8,0.8,3.7,0.8,5.5c0,2.2-0.3,4.3-1,6.3l-1.4-0.5c0.6-1.9,0.9-3.9,0.9-5.9
			c0-1.7-0.2-3.5-0.7-5.1L45.8,20.2z M45.9,20h-0.2l-1.5,0.4H44v0.2c0.5,1.6,0.7,3.4,0.7,5.1c0,2-0.3,3.9-0.9,5.8l-0.1,0.2l0.2,0.1
			l1.4,0.5l0.2,0.1l0.1-0.2c0.7-2.1,1-4.2,1-6.4c0-1.9-0.3-3.8-0.8-5.6L45.9,20L45.9,20z"/>
		<path class="st2" d="M34,8.6c-2.5-1.2-5.2-1.8-8-1.8c-2.5,0-5,0.5-7.3,1.5h-0.1L18,6.7h0.1c2.5-1.1,5.2-1.6,7.9-1.6
			c3,0,6,0.6,8.7,1.9h0.1L34,8.6L34,8.6L34,8.6z"/>
		<path class="st2" d="M26,5.2c3,0,6,0.6,8.7,1.9L34,8.5c-2.5-1.2-5.2-1.8-8-1.8c-2.5,0-5,0.5-7.3,1.5l-0.6-1.4
			C20.6,5.7,23.3,5.2,26,5.2z M26,5c-2.8,0-5.5,0.5-8,1.6l-0.2,0.1l0.1,0.2l0.6,1.4l0.1,0.2l0.2-0.1c2.3-1,4.7-1.4,7.3-1.4
			c2.8,0,5.5,0.6,8,1.8l0.2,0.1l0.1-0.2L35,7.3L34.9,7l-0.2-0.1C32,5.7,29.1,5,26,5z"/>
		<path class="st2" d="M6.9,17.8L6.9,17.8c0.5-1.1,1-2.2,1.6-3.1v-0.1l1.4,0.9v0.1c-0.6,0.9-1.1,1.8-1.5,2.8v0.1L6.9,17.8L6.9,17.8z
			"/>
		<path class="st2" d="M8.6,14.8l1.3,0.8c-0.6,0.9-1.1,1.8-1.5,2.8L7,17.8C7.5,16.8,8,15.7,8.6,14.8 M8.6,14.5l-0.1,0.1
			c-0.6,1-1.2,2-1.6,3.1l-0.1,0.2L7,18l1.4,0.6l0.2,0.1l0.1-0.2c0.4-1,0.9-1.9,1.4-2.8l0.1-0.1L10,15.4L8.6,14.5L8.6,14.5L8.6,14.5z
			"/>
		<path class="st2" d="M10.7,14.4c-0.2,0-0.3-0.1-0.5-0.2c-0.3-0.2-0.4-0.5-0.3-0.8l0.4-2.3L8.7,9.4C8.4,9.2,8.4,8.9,8.5,8.6
			C8.6,8.3,8.8,8.1,9.1,8l2.2-0.3l1-2.1c0.1-0.3,0.4-0.5,0.8-0.5c0.3,0,0.6,0.2,0.8,0.5l1,2.1L17,8c0.3,0,0.6,0.3,0.7,0.6
			s0,0.6-0.2,0.9l-1.6,1.6l0.4,2.3c0.1,0.3-0.1,0.6-0.3,0.8c-0.1,0.1-0.3,0.2-0.5,0.2c-0.1,0-0.3,0-0.4-0.1l-1.9-1.1l-1.9,1.1
			C11,14.4,10.9,14.4,10.7,14.4L10.7,14.4z M11.8,10.2c0.2,0.2,0.3,0.5,0.2,0.7l-0.2,1l0.8-0.5c0.1-0.1,0.3-0.1,0.4-0.1
			c0.1,0,0.3,0,0.4,0.1l0.8,0.5l-0.2-1c0-0.3,0-0.5,0.2-0.7L15,9.4l-1-0.2c-0.3,0-0.5-0.2-0.6-0.5L13,7.8l-0.4,0.9
			C12.5,9,12.2,9.1,12,9.2l-1,0.2L11.8,10.2L11.8,10.2z"/>
		<path class="st2" d="M13.1,5.2c0.3,0,0.6,0.2,0.7,0.4l1,2.1L17,8.1c0.3,0,0.5,0.2,0.6,0.5s0,0.6-0.2,0.8L15.8,11l0.4,2.4
			c0,0.3-0.1,0.6-0.3,0.7c-0.1,0.1-0.3,0.1-0.4,0.1c-0.1,0-0.3,0-0.4-0.1l-2-1.1l-2,1.1c-0.1,0.1-0.2,0.1-0.4,0.1s-0.3,0-0.4-0.1
			C10,14,9.9,13.7,10,13.4l0.4-2.4L8.7,9.4C8.5,9.2,8.4,8.9,8.5,8.6c0.1-0.3,0.3-0.5,0.6-0.5l2.2-0.3l1-2.1
			C12.5,5.3,12.8,5.2,13.1,5.2z M11.7,12.1l1-0.5c0.1-0.1,0.2-0.1,0.4-0.1s0.3,0,0.4,0.1l1,0.5l-0.2-1.2c0-0.2,0-0.5,0.2-0.7
			l0.9-0.9l-1.2-0.2c-0.3,0-0.5-0.2-0.6-0.4l-0.5-1l-0.5,1C12.5,9,12.3,9.1,12,9.2l-1.2,0.2l0.9,0.9c0.2,0.2,0.2,0.4,0.2,0.7
			L11.7,12.1z M13.1,5c-0.4,0-0.7,0.2-0.8,0.5l-1,2.1L9.1,7.9C8.8,8,8.5,8.2,8.4,8.5s0,0.7,0.2,0.9l1.6,1.6l-0.4,2.3
			c-0.1,0.3,0.1,0.7,0.4,0.9c0.2,0.1,0.3,0.2,0.5,0.2s0.3,0,0.4-0.1l1.9-1.1l1.9,1.1c0.1,0.1,0.3,0.1,0.4,0.1c0.2,0,0.4-0.1,0.5-0.2
			c0.3-0.2,0.4-0.6,0.4-0.9L16,11.1l1.6-1.6c0.2-0.3,0.3-0.6,0.2-0.9C17.6,8.2,17.4,8,17,7.9l-2.1-0.3l-1-2.1
			C13.8,5.2,13.4,5,13.1,5L13.1,5z M11.2,9.5L12,9.4c0.3,0,0.6-0.2,0.7-0.5L13,8.2l0.3,0.7c0.1,0.3,0.4,0.5,0.7,0.5l0.8,0.1
			l-0.6,0.7c-0.2,0.2-0.3,0.5-0.3,0.8l0.1,0.9l-0.7-0.4c-0.1-0.1-0.3-0.1-0.4-0.1c-0.2,0-0.3,0-0.4,0.1l-0.7,0.4l0.1-0.9
			c0-0.3,0-0.6-0.3-0.8L11.2,9.5L11.2,9.5z"/>
	</g>
</g>
<g id="圖層_2_00000071559279025803803500000009532397112462229939_" class="st0">
	<g class="st4">
		<path class="st2" d="M13.4,28h25.2c0.4,0,0.8-0.4,0.8-0.8v-8.8c0-0.5-0.4-0.8-0.8-0.8c-0.4,0-0.8,0.4-0.8,0.8v8H14.2v-19h23.6v8.2
			c0,0.5,0.4,0.8,0.8,0.8c0.4,0,0.8-0.4,0.8-0.8v-9c0-0.5-0.4-0.8-0.8-0.8H13.4c-0.4,0-0.8,0.4-0.8,0.8v20.5
			C12.6,27.6,12.9,28,13.4,28z"/>
		<path class="st2" d="M19.7,10c0.4,0,0.8-0.4,0.8-0.8c0-0.5-0.4-0.8-0.8-0.8h-3.8c-0.4,0-0.8,0.4-0.8,0.8v15.4
			c0,0.5,0.4,0.8,0.8,0.8h20.2c0.4,0,0.8-0.4,0.8-0.8V9.2c0-0.5-0.4-0.8-0.8-0.8H22.4c-0.4,0-0.8,0.4-0.8,0.8c0,0.5,0.4,0.8,0.8,0.8
			h12.9v9.5L33,16.4l0,0l0,0c-0.2-0.2-0.4-0.3-0.6-0.3s-0.4,0.1-0.6,0.3l0,0l0,0l-3.2,4.4l-6.9-7c-0.2-0.2-0.4-0.2-0.6-0.2
			s-0.4,0.1-0.6,0.2l-3.7,3.7V10H19.7L19.7,10z M29.6,21.9l2.7-3.7l3,4v1.5h-3.9L29.6,21.9L29.6,21.9z M16.7,23.8v-4l4.2-4.3
			l8.1,8.3H16.7L16.7,23.8z"/>
		<path class="st2" d="M30.6,13c0-1.2-0.9-2.1-2.1-2.1c-1.1,0-2.1,0.9-2.1,2.1s0.9,2.1,2.1,2.1S30.6,14.2,30.6,13z M28.1,13
			c0-0.3,0.2-0.5,0.5-0.5c0.2,0,0.5,0.2,0.5,0.5s-0.2,0.5-0.5,0.5C28.3,13.5,28.1,13.3,28.1,13z"/>
		<path class="st2" d="M44.3,29.2c-1.5,0-2.7,1.2-2.7,2.7c0,0.4,0.1,0.7,0.2,1c-1.9,1.3-4.2,2-6.6,2s-4.7-0.7-6.7-2
			c0.1-0.3,0.2-0.6,0.2-1c0-1.5-1.2-2.7-2.7-2.7s-2.7,1.2-2.7,2.7c0,0.3,0.1,0.7,0.2,1c-2,1.3-4.3,2-6.7,2s-4.6-0.7-6.6-2
			c0.1-0.3,0.2-0.7,0.2-1c0-1.5-1.2-2.7-2.7-2.7S5,30.4,5,31.9c0,0.6,0.2,1.3,0.6,1.8v11.7c0,0.5,0.4,0.8,0.8,0.8H9
			c0.4,0,0.8-0.4,0.8-0.8v-4.5c0-0.5-0.4-0.8-0.8-0.8s-0.8,0.4-0.8,0.8v3.7H7.3v-9.9c0.2,0,0.3,0,0.5,0s0.3,0,0.5,0v3.6
			C8.2,38.7,8.5,39,9,39s0.8-0.4,0.8-0.8v-3.6c2.1,1.3,4.5,1.9,7,1.9s5-0.7,7.1-2v10.9c0,0.5,0.4,0.8,0.8,0.8h2.5
			c0.4,0,0.8-0.4,0.8-0.8V34.5c2.1,1.3,4.6,2,7.1,2c2.6,0,4.9-0.7,7-1.9v10.8c0,0.5,0.4,0.8,0.8,0.8h2.5c0.4,0,0.8-0.4,0.8-0.8V33.7
			c0.4-0.5,0.6-1.1,0.6-1.8C47,30.4,45.8,29.2,44.3,29.2L44.3,29.2z M44.3,33c-0.6,0-1.1-0.5-1.1-1.1s0.5-1.1,1.1-1.1
			s1.1,0.5,1.1,1.1C45.4,32.5,44.9,33,44.3,33z M43.8,34.6c0.2,0,0.3,0,0.5,0c0.1,0,0.3,0,0.5,0v9.9h-0.9L43.8,34.6L43.8,34.6z
			 M27.1,31.9c0,0.6-0.5,1.1-1.1,1.1s-1.1-0.5-1.1-1.1s0.5-1.1,1.1-1.1S27.1,31.3,27.1,31.9z M26.5,34.6v9.9h-0.9v-9.9
			c0.2,0,0.3,0,0.5,0S26.3,34.6,26.5,34.6z M8.8,31.9c0,0.6-0.5,1.1-1.1,1.1s-1.1-0.5-1.1-1.1s0.5-1.1,1.1-1.1S8.8,31.3,8.8,31.9z"
			/>
	</g>
</g>
<g id="圖層_4" class="st0">
	<g class="st4">
		<path class="st2" d="M46.4,24.8c0-4.8-1.8-9.5-5.1-13.1c-3-3.3-7-5.5-11.4-6.3L30,5.3c0.2-0.3,0.2-0.6,0-0.9
			C29.9,4.2,29.6,4,29.3,4h-6.5c-0.3,0-0.6,0.2-0.8,0.4c-0.2,0.3-0.2,0.6,0,0.9v0.1c-4.4,0.8-8.4,3-11.4,6.3c-3.2,3.6-5,8.3-5,13.1
			c0,5.3,2.1,10.2,6,14c1.2,1.2,2.6,2.2,4,3L14.5,47c-0.1,0.3,0,0.5,0.2,0.7s0.4,0.3,0.7,0.3h21.3c0.3,0,0.5-0.1,0.7-0.3
			s0.2-0.5,0.2-0.7l-1.1-5.2c1.4-0.8,2.8-1.8,4-3C44.3,35,46.4,30.1,46.4,24.8L46.4,24.8z M31.7,42l-4-14.3l10.8,10.5
			C36.6,39.9,34.3,41.2,31.7,42z M13.5,38.1l10.8-10.5l-4,14.3C17.7,41.2,15.4,39.9,13.5,38.1z M8.2,30.3L23,26.5L12.2,36.9
			C10.4,35,9.1,32.8,8.2,30.3z M7.3,24.8c0-1.3,0.1-2.6,0.4-3.8l14.8,3.8L7.8,28.6C7.5,27.4,7.3,26.1,7.3,24.8z M38.5,11.5
			L27.7,21.9l4-14.3C34.3,8.4,36.6,9.7,38.5,11.5L38.5,11.5z M44.7,24.8c0,1.3-0.1,2.6-0.4,3.8l-14.8-3.8L44.2,21
			C44.5,22.2,44.7,23.5,44.7,24.8z M27.3,24.8c0,0.7-0.6,1.3-1.3,1.3c-0.7,0-1.3-0.6-1.3-1.3s0.6-1.3,1.3-1.3
			C26.7,23.5,27.3,24.1,27.3,24.8z M26,28.1l4,14.3c-1.3,0.3-2.6,0.4-4,0.4s-2.7-0.1-4-0.4L26,28.1z M29,26.5l14.8,3.8
			c-0.8,2.5-2.2,4.7-4,6.6L29,26.5z M43.8,19.3L29,23.1l10.8-10.5C41.6,14.6,42.9,16.8,43.8,19.3L43.8,19.3z M27.7,5.7l-1.7,3
			l-1.7-3H27.7z M25.2,10.9c0.2,0.3,0.5,0.4,0.8,0.4s0.6-0.2,0.8-0.4L29,7c0.3,0,0.6,0.1,0.9,0.2l-4,14.3L22,7.2
			C22.3,7.1,22.6,7,23,7L25.2,10.9z M12.2,12.7l2.6,2.6c0.2,0.2,0.4,0.3,0.6,0.3c0.2,0,0.5-0.1,0.6-0.3c0.3-0.3,0.3-0.9,0-1.2
			l-2.6-2.6c1.9-1.7,4.3-3,6.9-3.8l4,14.3l-2.5-2.4c-0.3-0.3-0.9-0.3-1.3,0c-0.3,0.3-0.3,0.9,0,1.2l2.5,2.4L8.2,19.3
			C9.1,16.8,10.4,14.6,12.2,12.7z M35.6,46.3H16.4l0.8-3.6c2.7,1.3,5.7,1.9,8.8,1.9s6.1-0.7,8.8-1.9L35.6,46.3L35.6,46.3z"/>
		<path class="st2" d="M18.3,18.2c0.5,0,0.9-0.4,0.9-0.9s-0.4-0.9-0.9-0.9s-0.9,0.4-0.9,0.9C17.4,17.8,17.8,18.2,18.3,18.2z"/>
	</g>
</g>
<g id="圖層_5" class="st0">
	<g class="st4">
		<path class="st2" d="M39.7,8h-9.1c-1.8,0-3.3,1.5-3.3,3.4v9.4c0,1.9,1.5,3.4,3.3,3.4h9.1c1.8,0,3.3-1.5,3.3-3.4v-9.4
			C43,9.5,41.5,8,39.7,8z M40.7,20.8c0,0.6-0.5,1.1-1,1.1h-9.1c-0.6,0-1-0.5-1-1.1v-9.4c0-0.6,0.5-1.1,1-1.1h9.1c0.6,0,1,0.5,1,1.1
			V20.8L40.7,20.8z"/>
		<path class="st2" d="M20.4,27.8h-9.1c-1.8,0-3.3,1.5-3.3,3.4v9.4c0,1.9,1.5,3.4,3.3,3.4h9.1c1.8,0,3.3-1.5,3.3-3.4v-9.4
			C23.7,29.3,22.2,27.8,20.4,27.8L20.4,27.8z M10.3,31.2c0-0.6,0.5-1.1,1-1.1h9.1c0.6,0,1,0.5,1,1.1v9.4c0,0.6-0.5,1.1-1,1.1h-9.1
			c-0.6,0-1-0.5-1-1.1C10.3,40.6,10.3,31.2,10.3,31.2z"/>
		<path class="st2" d="M20.4,8h-9.1C9.5,8,8,9.5,8,11.4v9.4c0,1.9,1.5,3.4,3.3,3.4h9.1c1.8,0,3.3-1.5,3.3-3.4v-9.4
			C23.7,9.5,22.2,8,20.4,8L20.4,8z M10.3,11.4c0-0.6,0.5-1.1,1-1.1h9.1c0.6,0,1,0.5,1,1.1v9.4c0,0.6-0.5,1.1-1,1.1h-9.1
			c-0.6,0-1-0.5-1-1.1C10.3,20.8,10.3,11.4,10.3,11.4z"/>
		<path class="st2" d="M41.3,39.5c0.9-1.3,1.4-2.8,1.4-4.4c0-2-0.8-3.9-2.1-5.3c-1.4-1.4-3.2-2.2-5.2-2.2s-3.8,0.8-5.2,2.2
			C28.8,31.1,28,33,28,35s0.8,3.9,2.1,5.3c1.4,1.4,3.2,2.2,5.2,2.2c1.5,0,3-0.5,4.3-1.4l2.4,2.5c0.2,0.2,0.5,0.4,0.8,0.4
			s0.6-0.1,0.8-0.4c0.2-0.2,0.3-0.5,0.3-0.9c0-0.3-0.1-0.6-0.3-0.9L41.3,39.5L41.3,39.5z M40.3,35c0,1.4-0.5,2.7-1.5,3.6
			c-0.9,1-2.2,1.5-3.5,1.5s-2.6-0.5-3.5-1.5c-0.9-1-1.5-2.3-1.5-3.6c0-1.4,0.5-2.7,1.5-3.6c0.9-1,2.2-1.5,3.5-1.5s2.6,0.5,3.5,1.5
			C39.8,32.4,40.3,33.7,40.3,35z"/>
	</g>
</g>
<g id="圖層_6" class="st0">
	<g class="st4">
		<path class="st2" d="M25.6,43.4c-0.2,0-0.4-0.1-0.6-0.2c-0.2-0.2-0.3-0.4-0.3-0.6c0-0.2,0.1-0.4,0.3-0.6c0.2-0.2,0.4-0.2,0.6-0.2
			s0.4,0.1,0.6,0.2c0.2,0.2,0.3,0.4,0.3,0.6c0,0.2-0.1,0.4-0.3,0.6C26,43.3,25.8,43.4,25.6,43.4z"/>
		<path class="st2" d="M25.6,41.7c0.2,0,0.4,0.1,0.6,0.2c0.2,0.1,0.2,0.4,0.2,0.6c0,0.2-0.1,0.4-0.2,0.6c-0.2,0.1-0.4,0.2-0.6,0.2
			s-0.4-0.1-0.6-0.2c-0.2-0.1-0.2-0.4-0.2-0.6c0-0.2,0.1-0.4,0.2-0.6C25.2,41.8,25.4,41.7,25.6,41.7z M25.6,41.6
			c-0.2,0-0.5,0.1-0.6,0.3c-0.2,0.2-0.3,0.4-0.3,0.6c0,0.2,0.1,0.5,0.3,0.6c0.2,0.2,0.4,0.3,0.6,0.3s0.5-0.1,0.6-0.3
			c0.2-0.2,0.3-0.4,0.3-0.6c0-0.2-0.1-0.5-0.3-0.6C26.1,41.7,25.8,41.6,25.6,41.6z"/>
		<path class="st2" d="M11.9,46.6c-1.6,0-2.8-1.2-2.8-2.8V8.2c0-1.5,1.3-2.8,2.8-2.8h27.4c1.6,0,2.8,1.2,2.8,2.8V20l3.7-3.6
			c0.6-0.6,1.3-0.9,2.1-0.9s1.6,0.3,2.1,0.9c1.2,1.2,1.2,3,0,4.2l-7.9,7.8v15.4c0,1.5-1.3,2.8-2.8,2.8L11.9,46.6L11.9,46.6z
			 M11.9,7.1c-0.6,0-1.1,0.5-1.1,1.1v35.6c0,0.6,0.5,1.1,1.1,1.1h27.4c0.6,0,1.1-0.5,1.1-1.1V30c-0.1,0-0.1,0.1-0.2,0.1l-1.4,0.6
			v11.8c0,0.5-0.4,0.8-0.9,0.8h-9.1c-0.5,0-0.9-0.4-0.9-0.8c0-0.5,0.4-0.8,0.9-0.8h8.3V31.5l-2.4,1.1c-0.1,0-0.2,0.1-0.4,0.1
			s-0.4-0.1-0.6-0.2c-0.3-0.2-0.3-0.6-0.2-0.9L36,26c0-0.1,0.1-0.2,0.2-0.3l0.9-0.9V10.3h-4.6l0,0c0,1.4-1.2,2.5-2.6,2.5h-8.8
			c-1.4,0-2.6-1.1-2.6-2.5l0,0H14v31.3h8.3c0.5,0,0.9,0.4,0.9,0.8c0,0.5-0.4,0.8-0.9,0.8h-9.1c-0.5,0-0.9-0.4-0.9-0.8v-33
			c0-0.5,0.4-0.8,0.9-0.8h5.4V7.1H11.9z M36.1,30.1l2.3-1l-1.3-1.3L36.1,30.1z M39.9,28.2l7.3-7.2l-1.8-1.8l-7.3,7.2L39.9,28.2z
			 M38,8.6c0.5,0,0.9,0.4,0.9,0.8v13.7l1.5-1.5V8.2c0-0.6-0.5-1.1-1.1-1.1h-6.7v1.5H38L38,8.6z M48.4,19.8l0.4-0.4
			c0.5-0.5,0.5-1.3,0-1.8c-0.2-0.2-0.6-0.4-0.9-0.4s-0.7,0.1-0.9,0.4L46.6,18L48.4,19.8L48.4,19.8z M20.3,10.4
			c0,0.5,0.4,0.9,0.9,0.9H30c0.5,0,0.9-0.4,0.9-0.9V7.1H20.3V10.4z"/>
		<path class="st2" d="M39.3,5.5c1.5,0,2.8,1.2,2.8,2.7v11.9l3.7-3.7c0.6-0.6,1.3-0.9,2.1-0.9s1.5,0.3,2.1,0.9c1.2,1.1,1.2,3,0,4.1
			l-7.9,7.8v15.5c0,1.5-1.2,2.7-2.8,2.7H11.9c-1.5,0-2.8-1.2-2.8-2.7V8.2c0-1.5,1.2-2.7,2.8-2.7H39.3z M32.5,8.7H38
			c0.5,0,0.8,0.4,0.8,0.8v13.8l1.6-1.6V8.2c0-0.6-0.5-1.1-1.1-1.1h-6.8V8.7 M21.2,11.3H30c0.5,0,0.9-0.4,0.9-0.9V7.1H20.3v3.3
			C20.3,10.9,20.7,11.3,21.2,11.3 M11.9,44.9h27.4c0.6,0,1.1-0.5,1.1-1.1V29.9c-0.1,0.1-0.1,0.1-0.2,0.2l-1.4,0.6v11.8
			c0,0.4-0.4,0.8-0.8,0.8h-9.1c-0.5,0-0.8-0.4-0.8-0.8c0-0.4,0.4-0.8,0.8-0.8h8.3V31.4l-2.5,1.1c-0.1,0-0.2,0.1-0.3,0.1
			c-0.2,0-0.4-0.1-0.6-0.2c-0.2-0.2-0.3-0.6-0.2-0.9l2.5-5.4c0-0.1,0.1-0.2,0.2-0.2l0.9-0.9V10.3h-4.6v0.1c0,1.4-1.1,2.5-2.6,2.5
			h-8.8c-1.4,0-2.6-1.1-2.6-2.5v-0.1H14v31.4h8.3c0.5,0,0.8,0.4,0.8,0.8c0,0.4-0.4,0.8-0.8,0.8h-9.1c-0.5,0-0.8-0.4-0.8-0.8v-33
			c0-0.4,0.4-0.8,0.8-0.8h5.5V7.1h-6.8c-0.6,0-1.1,0.5-1.1,1.1v35.6C10.7,44.4,11.2,44.9,11.9,44.9 M48.4,19.9l0.5-0.5
			c0.5-0.5,0.5-1.4,0-1.9c-0.3-0.3-0.6-0.4-1-0.4c-0.3,0-0.7,0.1-1,0.4L46.5,18L48.4,19.9 M39.9,28.2l5.9-5.8l1.4-1.4l-1.9-1.9
			L38,26.4L39.9,28.2z M36,30.2l2.5-1.1l-1.4-1.3L36,30.2 M39.3,5.4H11.9C10.3,5.4,9,6.7,9,8.2v35.6c0,1.6,1.3,2.8,2.9,2.8h27.4
			c1.6,0,2.9-1.3,2.9-2.8V28.4l7.9-7.8c0.6-0.6,0.9-1.3,0.9-2.1c0-0.8-0.3-1.6-0.9-2.1c-0.6-0.6-1.3-0.9-2.2-0.9
			c-0.8,0-1.6,0.3-2.2,0.9l-3.6,3.5V8.2C42.2,6.7,40.9,5.4,39.3,5.4z M32.6,7.2h6.7c0.6,0,1.1,0.5,1.1,1v13.4L38.9,23V9.5
			c0-0.5-0.4-0.9-0.9-0.9h-5.4C32.6,8.6,32.6,7.2,32.6,7.2z M20.4,7.2h10.5v3.2c0,0.4-0.4,0.8-0.8,0.8h-8.8c-0.5,0-0.8-0.4-0.8-0.8
			L20.4,7.2L20.4,7.2z M11.9,44.8c-0.6,0-1.1-0.5-1.1-1V8.2c0-0.6,0.5-1,1.1-1h6.7v1.4h-5.4c-0.5,0-0.9,0.4-0.9,0.9v33
			c0,0.5,0.4,0.9,0.9,0.9h9.1c0.5,0,0.9-0.4,0.9-0.9s-0.4-0.9-0.9-0.9h-8.2V10.4h4.5c0,1.4,1.2,2.6,2.6,2.6H30
			c1.4,0,2.6-1.1,2.6-2.6h4.5v14.5l-0.9,0.9c-0.1,0.1-0.1,0.2-0.2,0.3l-2.5,5.4c-0.2,0.3-0.1,0.7,0.2,1c0.2,0.2,0.4,0.3,0.6,0.3
			c0.1,0,0.3,0,0.4-0.1l2.3-1v10.1h-8.2c-0.5,0-0.9,0.4-0.9,0.9s0.4,0.9,0.9,0.9H38c0.5,0,0.9-0.4,0.9-0.9V30.8l1.3-0.6
			c0,0,0.1,0,0.1-0.1v13.7c0,0.6-0.5,1-1.1,1H11.9L11.9,44.8z M46.6,18l0.4-0.4c0.2-0.2,0.6-0.4,0.9-0.4s0.6,0.1,0.9,0.4
			c0.5,0.5,0.5,1.3,0,1.7l-0.4,0.4L46.6,18L46.6,18z M38.1,26.4l7.2-7.1l1.8,1.7l-1.4,1.3l-5.9,5.8L38.1,26.4L38.1,26.4z M36.2,30
			l1-2.1l1.2,1.2L36.2,30z"/>
		<path class="st2" d="M17.1,21.9c-0.5,0-0.9-0.4-0.9-0.8V16c0-0.5,0.4-0.8,0.9-0.8h5.2c0.5,0,0.9,0.4,0.9,0.8v5
			c0,0.5-0.4,0.8-0.9,0.8h-5.2V21.9z M21.5,20.2v-3.4H18v3.4H21.5z"/>
		<path class="st2" d="M22.3,15.1c0.5,0,0.8,0.4,0.8,0.8V21c0,0.4-0.4,0.8-0.8,0.8h-5.2c-0.5,0-0.8-0.4-0.8-0.8v-5.1
			c0-0.4,0.4-0.8,0.8-0.8C17.1,15.1,22.3,15.1,22.3,15.1z M17.9,20.2h3.6v-3.5h-3.6V20.2z M22.3,15h-5.2c-0.5,0-0.9,0.4-0.9,0.9V21
			c0,0.5,0.4,0.9,0.9,0.9h5.2c0.5,0,0.9-0.4,0.9-0.9v-5.1C23.2,15.4,22.8,15,22.3,15z M18,16.8h3.4v3.3H18V16.8z"/>
		<path class="st2" d="M17.1,30.7c-0.5,0-0.9-0.4-0.9-0.8v-5.1c0-0.5,0.4-0.8,0.9-0.8h5.2c0.5,0,0.9,0.4,0.9,0.8v5.1
			c0,0.5-0.4,0.8-0.9,0.8H17.1z M21.5,29v-3.4H18V29H21.5z"/>
		<path class="st2" d="M22.3,23.9c0.5,0,0.8,0.4,0.8,0.8v5.1c0,0.4-0.4,0.8-0.8,0.8h-5.2c-0.5,0-0.8-0.4-0.8-0.8v-5.1
			c0-0.4,0.4-0.8,0.8-0.8H22.3z M17.9,29h3.6v-3.5h-3.6V29z M22.3,23.8h-5.2c-0.5,0-0.9,0.4-0.9,0.9v5.1c0,0.5,0.4,0.9,0.9,0.9h5.2
			c0.5,0,0.9-0.4,0.9-0.9v-5.1C23.2,24.2,22.8,23.8,22.3,23.8z M18,25.6h3.4V29H18V25.6z"/>
		<path class="st2" d="M17.1,39.5c-0.5,0-0.9-0.4-0.9-0.8v-5.1c0-0.5,0.4-0.8,0.9-0.8h5.2c0.5,0,0.9,0.4,0.9,0.8v5.1
			c0,0.5-0.4,0.8-0.9,0.8H17.1z M21.5,37.8v-3.4H18v3.4H21.5z"/>
		<path class="st2" d="M22.3,32.7c0.5,0,0.8,0.4,0.8,0.8v5.1c0,0.4-0.4,0.8-0.8,0.8h-5.2c-0.5,0-0.8-0.4-0.8-0.8v-5.1
			c0-0.4,0.4-0.8,0.8-0.8H22.3z M17.9,37.9h3.6v-3.5h-3.6V37.9z M22.3,32.6h-5.2c-0.5,0-0.9,0.4-0.9,0.9v5.1c0,0.5,0.4,0.9,0.9,0.9
			h5.2c0.5,0,0.9-0.4,0.9-0.9v-5.1C23.2,33,22.8,32.6,22.3,32.6z M18,34.4h3.4v3.3H18V34.4z"/>
		<path class="st2" d="M28.7,21.1c-0.2,0-0.4-0.1-0.6-0.2l-1.8-1.8c-0.3-0.3-0.3-0.9,0-1.2c0.2-0.2,0.4-0.2,0.6-0.2s0.4,0.1,0.6,0.2
			l1.2,1.2l3.1-3c0.2-0.2,0.4-0.2,0.6-0.2c0.2,0,0.4,0.1,0.6,0.2c0.3,0.3,0.3,0.9,0,1.2l-3.7,3.6C29.2,21,29,21.1,28.7,21.1
			L28.7,21.1z"/>
		<path class="st2" d="M32.4,15.9c0.2,0,0.4,0.1,0.6,0.2c0.3,0.3,0.3,0.8,0,1.1l-3.7,3.6C29.1,21,28.9,21,28.7,21s-0.4-0.1-0.6-0.2
			L26.3,19c-0.3-0.3-0.3-0.8,0-1.1c0.2-0.2,0.4-0.2,0.6-0.2s0.4,0.1,0.6,0.2l1.2,1.2l3.1-3.1C32,15.9,32.2,15.9,32.4,15.9
			 M32.4,15.8c-0.2,0-0.5,0.1-0.6,0.3l-3,3l-1.2-1.2c-0.2-0.2-0.4-0.3-0.6-0.3s-0.5,0.1-0.6,0.3c-0.4,0.3-0.4,0.9,0,1.3l1.8,1.8
			c0.2,0.2,0.4,0.3,0.6,0.3s0.5-0.1,0.6-0.3l3.7-3.6c0.4-0.3,0.4-0.9,0-1.3C32.9,15.9,32.7,15.8,32.4,15.8L32.4,15.8z"/>
		<path class="st2" d="M28.7,29.9c-0.2,0-0.4-0.1-0.6-0.2l-1.8-1.8c-0.3-0.3-0.3-0.9,0-1.2c0.2-0.2,0.4-0.2,0.6-0.2s0.4,0.1,0.6,0.2
			l1.2,1.2l3.1-3c0.2-0.2,0.4-0.2,0.6-0.2c0.2,0,0.4,0.1,0.6,0.2c0.3,0.3,0.3,0.9,0,1.2l-3.7,3.6C29.2,29.8,29,29.9,28.7,29.9
			L28.7,29.9z"/>
		<path class="st2" d="M32.4,24.7c0.2,0,0.4,0.1,0.6,0.2c0.3,0.3,0.3,0.8,0,1.1l-3.7,3.6c-0.2,0.1-0.4,0.2-0.6,0.2s-0.4-0.1-0.6-0.2
			l-1.8-1.8c-0.3-0.3-0.3-0.8,0-1.1c0.2-0.2,0.4-0.2,0.6-0.2s0.4,0.1,0.6,0.2l1.2,1.2l3.1-3.1C32,24.8,32.2,24.7,32.4,24.7
			 M32.4,24.6c-0.2,0-0.5,0.1-0.6,0.3l-3,3l-1.2-1.2c-0.2-0.2-0.4-0.3-0.6-0.3s-0.5,0.1-0.6,0.3C26,27,26,27.6,26.4,28l1.8,1.8
			c0.2,0.2,0.4,0.3,0.6,0.3s0.5-0.1,0.6-0.3l3.7-3.6c0.4-0.3,0.4-0.9,0-1.3C32.9,24.7,32.7,24.6,32.4,24.6L32.4,24.6z"/>
		<path class="st2" d="M31.5,38.8c-0.2,0-0.4-0.1-0.6-0.2l-1.2-1.2l-1.2,1.2c-0.2,0.2-0.4,0.2-0.6,0.2s-0.4-0.1-0.6-0.2
			c-0.3-0.3-0.3-0.9,0-1.2l1.2-1.2L27.3,35c-0.3-0.3-0.3-0.9,0-1.2c0.2-0.2,0.4-0.2,0.6-0.2s0.4,0.1,0.6,0.2l1.2,1.2l1.2-1.2
			c0.2-0.2,0.4-0.2,0.6-0.2s0.4,0.1,0.6,0.2c0.2,0.1,0.3,0.4,0.3,0.6c0,0.2-0.1,0.4-0.3,0.6l-1.2,1.2l1.2,1.2
			c0.2,0.2,0.3,0.4,0.3,0.6c0,0.2-0.1,0.4-0.3,0.6C32,38.7,31.8,38.8,31.5,38.8z"/>
		<path class="st2" d="M31.5,33.5c0.2,0,0.4,0.1,0.6,0.2c0.3,0.3,0.3,0.8,0,1.1L30.8,36l1.3,1.2c0.3,0.3,0.3,0.8,0,1.1
			c-0.2,0.2-0.4,0.2-0.6,0.2s-0.4-0.1-0.6-0.2l-1.3-1.2l-1.3,1.2c-0.2,0.2-0.4,0.2-0.6,0.2s-0.4-0.1-0.6-0.2c-0.3-0.3-0.3-0.8,0-1.1
			l1.3-1.2l-1.3-1.2c-0.3-0.3-0.3-0.8,0-1.1c0.2-0.2,0.4-0.2,0.6-0.2s0.4,0.1,0.6,0.2l1.3,1.2l1.3-1.2
			C31.1,33.6,31.3,33.5,31.5,33.5z M31.5,33.4c-0.2,0-0.5,0.1-0.6,0.3l-1.2,1.2l-1.2-1.2c-0.2-0.2-0.4-0.3-0.6-0.3s-0.5,0.1-0.6,0.3
			c-0.4,0.3-0.4,0.9,0,1.3l1.2,1.2l-1.2,1.2c-0.4,0.3-0.4,0.9,0,1.3c0.2,0.2,0.4,0.3,0.6,0.3s0.5-0.1,0.6-0.3l1.2-1.2l1.2,1.2
			c0.2,0.2,0.4,0.3,0.6,0.3s0.5-0.1,0.6-0.3c0.2-0.2,0.3-0.4,0.3-0.6c0-0.2-0.1-0.5-0.3-0.6L31,36.1l1.2-1.2
			c0.2-0.2,0.3-0.4,0.3-0.6c0-0.2-0.1-0.5-0.3-0.6C32,33.5,31.8,33.4,31.5,33.4z"/>
	</g>
</g>
<g id="圖層_7" class="st0">
	<g class="st4">
		<path class="st2" d="M44.7,21c0-0.3-0.1-0.5-0.3-0.7L37.3,13c-0.2-0.2-0.4-0.3-0.7-0.3h-1.3l1.7-1.8c0.2-0.2,0.3-0.4,0.3-0.7
			S37.2,9.7,37,9.5l-6-6.2C30.9,3.1,30.7,3,30.4,3s-0.5,0.1-0.7,0.3l-2.5,2.6l-6.6,6.8l0,0h-5.3c-0.3,0-0.5,0.1-0.7,0.3l-7.1,7.4
			v0.1l0,0c-0.1,0.2-0.2,0.4-0.2,0.6v23c0,0.5,0.4,1,1,1h35.5c0.5,0,1-0.4,1-1v-8.2c0-0.5-0.4-1-1-1s-1,0.4-1,1V43H9.2V22h33.6v7.2
			c0,0.5,0.4,1,1,1s1-0.4,1-1L44.7,21L44.7,21z M21.3,14.8l7.3-7.6l1.8-1.9l4.6,4.8l-6,6.2h-6.3L21.3,14.8L21.3,14.8z M19.3,15.5
			l0.8,0.8H18c-0.5,0-1,0.4-1,1c0,0.5,0.4,1,1,1h16c0.5,0,1-0.4,1-1c0-0.5-0.4-1-1-1h-2.2l1.6-1.7h2.8l5.2,5.4H10.6l5.2-5.4H19
			C19,15,19,15.3,19.3,15.5L19.3,15.5z"/>
		<path class="st2" d="M18.9,32.5c0,4,3.2,7.3,7.1,7.3s7.1-3.3,7.1-7.3s-3.2-7.3-7.1-7.3S18.9,28.5,18.9,32.5z M20.8,32.5
			c0-3,2.3-5.4,5.2-5.4s5.2,2.4,5.2,5.4s-2.3,5.4-5.2,5.4S20.8,35.5,20.8,32.5z"/>
		<path class="st2" d="M24.6,34.6c0.2,0.2,0.4,0.3,0.7,0.3s0.5-0.1,0.7-0.3l3.1-3.3c0.2-0.2,0.3-0.4,0.3-0.7c0-0.3-0.1-0.5-0.3-0.7
			c-0.2-0.2-0.4-0.3-0.7-0.3s-0.5,0.1-0.7,0.3l-2.5,2.6l-1-1.1c-0.2-0.2-0.4-0.3-0.7-0.3c-0.3,0-0.5,0.1-0.7,0.3
			c-0.4,0.4-0.4,1,0,1.4L24.6,34.6L24.6,34.6z"/>
		<path class="st2" d="M43.8,31.7c-0.2,0-0.4,0.1-0.6,0.2C43,32.1,43,32.3,43,32.5s0.1,0.4,0.2,0.6c0.1,0.2,0.3,0.2,0.6,0.2
			c0.2,0,0.4-0.1,0.6-0.2c0.1-0.2,0.2-0.4,0.2-0.6c0-0.2-0.1-0.4-0.2-0.6C44.2,31.8,44,31.7,43.8,31.7z"/>
	</g>
</g>
</svg>
