<?xml version="1.0" encoding="utf-8"?>
<!-- Generator: Adobe Illustrator 27.9.0, SVG Export Plug-In . SVG Version: 6.00 Build 0)  -->
<svg version="1.1" id="圖層_1" xmlns="http://www.w3.org/2000/svg" xmlns:xlink="http://www.w3.org/1999/xlink" x="0px" y="0px"
	 viewBox="0 0 417 61" style="enable-background:new 0 0 417 61;" xml:space="preserve">
<style type="text/css">
	.st0{fill:#222222;}
	.st1{fill:#0092E5;}
	.st2{fill:#00176F;}
	.st3{fill:#79C3EE;}
	.st4{fill:#0054A4;}
	.st5{fill:#53B7EB;}
	.st6{fill:#FFFFFF;}
	.st7{fill:#DF1808;}
</style>
<path class="st0" d="M199.9,40.4v1.1h7.6c-0.4-0.4-1-0.8-1.5-1.3L199.9,40.4z M201.3,37h-5.4c-0.8,0.5-1.5,0.9-2.3,1.3l9.3-0.1
	c-0.6-0.4-1.3-0.7-1.8-1L201.3,37z M199.9,43.9V45h13v2.7h-29.6V45h12.6v-1.1h-9.3v-2.4h9.3v-1c-5.8,0.1-6.8,0.2-7.6,0.5
	c-0.1-0.5-0.5-1.8-0.8-2.5c0.5-0.1,1.2-0.2,1.8-0.4c0.4-0.1,1.3-0.5,2.3-1h-4.6v-0.6h-3.5v-5.1h29.3v5.1h-3.8v-2.5H187v1h21.8V37
	h-2.4c1.5,0.9,2.9,1.9,3.8,2.6l-2.2,1.8h2v2.4H199.9z M205.3,28.4v-1.2h-14.6v1.2H205.3z M187,25.3h22.3v5.1H187V25.3z M199.9,18.3
	h13.2v2.5h-13.2v1.1h10.4v2.3h-24.6v-2.3h10.1v-1.1H183v-2.5h12.9v-1.7h4.1V18.3z M249.8,27.7l-1.7,0.7c-0.1-0.3-0.2-0.7-0.3-1.1
	c-4.3,0.6-5.2,0.8-5.7,1.1c-0.1-0.4-0.5-1.2-0.8-1.7c0.5-0.1,1-0.5,1.6-1.2c0.3-0.3,1-1.1,1.7-2.1c-1.7,0.2-2.3,0.3-2.7,0.4
	c-0.1-0.3-0.5-1.2-0.7-1.6c0.4-0.1,0.7-0.4,1.1-0.9c0.4-0.4,1.6-2.5,2.1-4.4l2.2,0.8c-0.5,1.2-1.3,2.6-2.1,3.7l1.6-0.1
	c0.3-0.5,0.5-1,0.8-1.5l2.1,0.9c-1,1.7-2.2,3.5-3.6,5l1.9-0.2c-0.1-0.3-0.3-0.6-0.4-0.9l1.7-0.6C248.8,25.2,249.5,26.7,249.8,27.7z
	 M246.6,33.4l-1.8,0.6c0-1.1-0.3-2.9-0.7-4.2l1.7-0.5C246.2,30.6,246.5,32.4,246.6,33.4z M241.9,29.1l1.9,0.5
	c-0.3,1.7-0.7,3.4-1.4,4.5c-0.3-0.3-1.2-0.9-1.6-1.2C241.4,31.9,241.7,30.5,241.9,29.1z M241.2,20v2.1h-8.1V20h3.2
	c-0.2-0.7-0.6-1.7-1-2.4L238,17c0.4,0.8,1,1.9,1.2,2.6l-1.4,0.3H241.2z M240.6,25.6v1.8h-6.5v-1.8H240.6z M236.4,30.2v1.5h1.7v-1.5
	H236.4z M234.1,33.4v-5.1h6.5v5.1H234.1z M240.6,23v1.8h-6.5V23H240.6z M233.7,27.7l-1.7,0.7c-0.1-0.3-0.2-0.6-0.3-1.1
	c-4.3,0.6-5.2,0.8-5.7,1.1c-0.1-0.3-0.5-1.2-0.8-1.7c0.5-0.1,1-0.5,1.6-1.2c0.3-0.3,1-1.1,1.7-2.2c-1.7,0.2-2.3,0.3-2.7,0.4
	c-0.1-0.3-0.5-1.2-0.8-1.6c0.4-0.1,0.8-0.4,1.1-0.9c0.4-0.5,1.5-2.5,2-4.4l2.2,0.8c-0.5,1.3-1.3,2.5-2.1,3.7l1.5-0.1
	c0.3-0.5,0.6-1,0.8-1.5l2.1,1c-1,1.7-2.2,3.4-3.6,5l1.9-0.2c-0.1-0.3-0.3-0.6-0.4-0.9l1.7-0.6C232.8,25.2,233.4,26.7,233.7,27.7z
	 M233.4,32.1l-1.7,0.7c-0.1-1-0.5-2.5-0.9-3.6l1.6-0.6C232.8,29.8,233.3,31.3,233.4,32.1z M230.6,33.1l-1.8,0.6c0-1-0.3-2.7-0.6-3.9
	l1.7-0.4C230.3,30.5,230.5,32.1,230.6,33.1z M225.9,20.5l-2.5,3c-0.9-1.1-3.1-2.7-4.8-3.7L221,17C222.6,18,224.8,19.4,225.9,20.5z
	 M225.2,29.1l-2.4,3.1c-1-1-3.2-2.5-4.9-3.5l2.2-2.8C221.9,26.8,224.1,28.1,225.2,29.1z M222.3,48l-3.6-2c1.2-2.7,3-6.9,4.2-10.9
	l3.2,2C225,40.8,223.6,44.7,222.3,48z M225.8,29.3l1.9,0.5c-0.3,1.7-0.8,3.4-1.4,4.6c-0.4-0.3-1.2-1-1.7-1.2
	C225.3,32,225.6,30.6,225.8,29.3z M231.6,41.1h17c0,0-0.1,1-0.2,1.4c-0.5,2.7-1.2,4.2-2.1,5c-0.9,0.6-1.8,0.8-3.2,0.9
	c-1.1,0-3.2,0-5.3-0.1c-0.1-0.9-0.5-2.1-1.1-3c2,0.2,4.3,0.2,5.1,0.2c0.7,0,1.1,0,1.5-0.3c0.4-0.3,0.7-0.8,1-1.8h-17.2
	c0.5-1.6,1.1-3.9,1.5-5.8h14.5v-1.1h-15.5v-2.2h19.3V40h-15.1L231.6,41.1z M246.8,29.3l1.6-0.6c0.5,1.3,1.1,3.1,1.2,4.1l-1.7,0.8
	C247.8,32.4,247.3,30.6,246.8,29.3z M272.5,18.8l4-1.6c2,4.2,6.1,9.2,9.5,12.1c-1.1,0.8-2.6,2.4-3.4,3.5
	C279.2,29.3,275.1,23.7,272.5,18.8z M263.2,17.4l4.4,1.3c-2.2,5.5-5.8,10.8-9.4,14.1c-0.9-0.7-2.7-2.2-3.8-2.9
	C258.1,27,261.4,22.3,263.2,17.4z M273.3,36.3l3.8-1.8c2.8,3.7,6.1,8.6,7.7,11.7l-4,2.2c-0.5-1.1-1.3-2.4-2.1-3.9
	c-16.5,1.4-18.8,1.5-20.4,2.1c-0.2-0.8-1-3.1-1.6-4.2c1.1-0.3,1.9-1.2,3.2-2.7c1.4-1.5,5.5-7.3,8.1-13l4.5,1.9
	c-2.5,4.7-5.7,9.2-8.8,12.9l12.7-0.9C275.3,39.2,274.3,37.6,273.3,36.3z M308.8,35.8h8.4c-1.6-0.9-3-1.9-4.2-3.1
	C311.7,33.9,310.3,34.9,308.8,35.8z M309.7,43.7h6.4v-4.5h-6.4V43.7z M303.9,33.1v1.1c2.3-1,4.6-2.5,6.5-4.2c-0.8-1-1.5-2-2.1-3
	c-0.6,0.9-1.3,1.6-2,2.3c-0.6-0.6-1.8-1.7-2.7-2.3v2.2h-3.4v4H303.9z M295.3,21.4l0,4.3h4.5v-4.3H295.3z M315.3,23.3h-4.7l-0.3,0.5
	c0.7,1.2,1.5,2.3,2.5,3.5C313.8,26.1,314.6,24.7,315.3,23.3z M317.7,19.7l2.5,1.1c-1.1,3.6-2.7,6.6-4.7,9.1c2,1.6,4.3,2.9,7,3.8
	c-0.8,0.8-2,2.3-2.5,3.4l-0.1,0v11.1h-3.9v-1.1h-6.4v1.2H306v-11l-0.8,0.3c-0.3-0.5-0.7-1.3-1.3-1.9v1h-3.7v4.5l4-0.9l0.4,3.6
	c-4.8,1.2-9.9,2.4-13.8,3.3l-0.7-3.9l1.5-0.3V31.5h3.3v10.7l1.7-0.3V29.1h-4.8V17.9h11.7v8.4c2.5-2.4,4.5-6,5.6-9.7l3.8,1
	c-0.3,0.7-0.5,1.5-0.9,2.3h4.8L317.7,19.7z M336.1,45.9c-5.3,0-9.5-3.7-9.5-10c0-6.2,4.3-10,8.9-10c5.2,0,8,3.8,8,9.1
	c0,0.9-0.1,1.8-0.2,2.3h-11.7c0.4,3.1,2.4,4.8,5.3,4.8c1.6,0,2.9-0.5,4.3-1.3l1.7,3.1C340.9,45.1,338.5,45.9,336.1,45.9z M331.5,34
	h7.8c0-2.6-1.2-4.2-3.6-4.2C333.6,29.8,331.8,31.2,331.5,34z M360,31l0.5,3.7c-1.3,0.4-2.7,0.7-4,1.1V44c0,2-0.3,3-1.5,3.6
	c-1.1,0.6-2.8,0.7-5.1,0.7c-0.1-1-0.6-2.7-1.1-3.7c1.3,0.1,2.7,0.1,3.1,0.1c0.5,0,0.6-0.2,0.6-0.6v-7.2l-3.8,1l-1-3.8
	c1.4-0.3,3-0.7,4.7-1.1v-6.1h-4.2V23h4.2v-6.4h4V23h3.5v3.7h-3.5v5.1C357.7,31.6,358.9,31.3,360,31z M374.2,36.2h-8.7v2.1h8.7V36.2z
	 M365.5,43.7h8.7v-2.2h-8.7V43.7z M361.6,48.4V32.9h16.5v15.4h-4v-1.3h-8.7v1.5H361.6z M368,27.3h5.9c1.7,0,2-0.5,2.2-3.9
	c0.9,0.6,2.5,1.3,3.7,1.5c-0.5,4.8-1.7,6.1-5.6,6.1h-6.6c-4.7,0-6-1.2-6-5.1v-9.2h4v4.5c3.4-0.8,6.8-1.9,9-3l3,2.9
	c-3.5,1.4-8,2.6-12,3.4v1.4C365.8,27.1,366.1,27.3,368,27.3z M403,28.1h-3.9v1.8h3.9V28.1z M410.6,29.9v-1.8h-4v1.8H410.6z
	 M406.6,34.6h4v-1.9h-4V34.6z M399.1,34.6h3.9v-1.9h-3.9V34.6z M399.1,37.5v5.1h-3.8V25.1h7.4c-1.7-0.7-3.4-1.5-4.9-2.1l2.6-2.1
	c1.3,0.5,2.9,1.1,4.4,1.8c1-0.6,2-1.2,2.9-1.9h-12.1v-3.1h15.6l0.8-0.2l2.4,1.9c-1.7,1.6-3.9,3.4-6.2,4.7c0.6,0.3,1.3,0.6,1.8,0.9
	l-0.1,0.1h4.6v14c0,1.7-0.3,2.5-1.4,3c-1.1,0.6-2.6,0.6-4.6,0.6c-0.2-1-0.6-2.3-1-3.2c1.1,0,2.2,0,2.6,0c0.4,0,0.5-0.2,0.5-0.5v-1.6
	h-4v5H403v-5H399.1z M393.5,23.3l-2.9,2.8c-1.2-1.6-3.9-4-5.9-5.8l2.7-2.4C389.4,19.4,392.1,21.8,393.5,23.3z M392.3,29.6v11.9
	c0.5,0.3,1.1,0.8,1.9,1.2c2.2,1.3,5.3,1.5,8.9,1.5s9.3-0.3,12.9-0.8c-0.4,1-1,2.8-1.1,3.9c-2.6,0.1-8.3,0.3-11.9,0.3
	c-4.2,0-7-0.4-9.4-1.7c-1.4-0.8-2.5-1.8-3.2-1.8c-1,0-2.7,2-4.1,4.1l-2.5-3.4c1.5-1.5,3.1-2.8,4.6-3.4v-8.1h-4.3v-3.7H392.3z"/>
<g>
	<path class="st1" d="M91.6,43.3h25.1c-0.9,2-2.3,3.7-4.1,4.9c-1.8,1.2-3.9,1.8-6.1,1.8H91.6V43.3z"/>
	<path class="st2" d="M116.3,43.3h0.4c-0.9,2-2.3,3.7-4.1,4.9c-1.8,1.2-3.9,1.8-6.1,1.8H91.6v-0.3h14.6c2.1,0,4.2-0.6,6-1.7
		C114,46.8,115.4,45.2,116.3,43.3"/>
	<path class="st3" d="M91.6,43.3h25.1c-0.2,0.1-0.3,0.1-0.5,0.2H91.6V43.3z"/>
	<path class="st4" d="M150,15.1c-0.9,2-2.3,3.7-4.1,4.8c-1.8,1.2-3.9,1.8-6.1,1.8H91.6v-6.7H150z"/>
	<path class="st2" d="M150,15.1c-0.9,2-2.3,3.7-4.1,4.8c-1.8,1.2-3.9,1.8-6.1,1.8H91.6v-0.3h47.9c2.1,0,4.2-0.6,6-1.7
		c1.8-1.1,3.2-2.8,4.1-4.7L150,15.1z"/>
	<path class="st5" d="M150,15.1c-0.2,0.1-0.3,0.2-0.5,0.2H91.6v-0.2H150z"/>
	<path class="st4" d="M139.5,24.5c-0.9,2-2.3,3.7-4.1,4.9c-1.8,1.2-3.9,1.8-6.1,1.8H91.6v-6.7H139.5z"/>
	<path class="st2" d="M139.5,24.5c-0.9,2-2.3,3.7-4.1,4.9c-1.8,1.2-3.9,1.8-6.1,1.8H91.6v-0.3h37.4c2.1,0,4.2-0.6,6-1.7
		c1.8-1.1,3.2-2.8,4.1-4.7H139.5z"/>
	<path class="st5" d="M139.5,24.5c-0.2,0.1-0.3,0.2-0.5,0.2H91.6v-0.2H139.5z"/>
	<path class="st1" d="M128.1,33.9c-0.9,2-2.3,3.7-4.1,4.9c-1.8,1.2-3.9,1.8-6.1,1.8H91.6v-6.7H128.1z"/>
	<path class="st2" d="M128.1,33.9c-0.9,2-2.3,3.7-4.1,4.9c-1.8,1.2-3.9,1.8-6.1,1.8H91.6v-0.3h26c2.1,0,4.2-0.6,6-1.7
		c1.8-1.1,3.2-2.8,4.1-4.7H128.1z"/>
	<path class="st3" d="M128.1,33.9c-0.2,0.1-0.3,0.2-0.5,0.2h-36v-0.2H128.1z"/>
	<path class="st1" d="M58.6,43.3H33.6c0.9,2,2.3,3.7,4.1,4.9c1.8,1.2,3.9,1.8,6.1,1.8h14.9L58.6,43.3z"/>
	<path class="st2" d="M33.9,43.3h-0.4c0.9,2,2.3,3.7,4.1,4.9c1.8,1.2,3.9,1.8,6.1,1.8h14.9v-0.3H44c-2.1,0-4.2-0.6-6-1.7
		C36.3,46.8,34.8,45.2,33.9,43.3"/>
	<path class="st3" d="M58.6,43.3H33.6c0.2,0.1,0.3,0.1,0.5,0.2h24.6L58.6,43.3z"/>
	<path class="st4" d="M0.3,15.1c0.9,2,2.3,3.7,4.1,4.8c1.8,1.2,3.9,1.8,6.1,1.8h48.2v-6.7H0.3z"/>
	<path class="st2" d="M0.3,15.1c0.9,2,2.3,3.7,4.1,4.8c1.8,1.2,3.9,1.8,6.1,1.8h48.2v-0.3H10.7c-2.1,0-4.2-0.6-6-1.7
		C3,18.6,1.5,17,0.6,15.1L0.3,15.1z"/>
	<path class="st5" d="M0.3,15.1c0.2,0.1,0.3,0.1,0.5,0.2h57.9v-0.2H0.3z"/>
	<path class="st4" d="M10.8,24.5c0.9,2,2.3,3.7,4.1,4.9s3.9,1.8,6.1,1.8h37.7v-6.7H10.8z"/>
	<path class="st2" d="M10.8,24.5c0.9,2,2.3,3.7,4.1,4.9s3.9,1.8,6.1,1.8h37.7v-0.3H21.2c-2.1,0-4.2-0.6-6-1.7
		c-1.8-1.1-3.2-2.8-4.1-4.7H10.8z"/>
	<path class="st5" d="M10.8,24.5c0.2,0.1,0.3,0.2,0.5,0.2h47.4v-0.2H10.8z"/>
	<path class="st1" d="M22.1,33.9c0.9,2,2.3,3.7,4.1,4.9c1.8,1.2,3.9,1.8,6.1,1.8h26.3v-6.7H22.1z"/>
	<path class="st2" d="M22.1,33.9c0.9,2,2.3,3.7,4.1,4.9c1.8,1.2,3.9,1.8,6.1,1.8h26.3v-0.3h-26c-2.1,0-4.2-0.6-6-1.7
		c-1.8-1.1-3.2-2.8-4.1-4.7H22.1z"/>
	<path class="st3" d="M22.1,33.9c0.2,0.1,0.3,0.2,0.5,0.2h36v-0.2H22.1z"/>
	<path class="st6" d="M101.2,32.5c0,5.2-1.5,10.2-4.4,14.5c-2.9,4.3-6.9,7.6-11.7,9.6c-4.8,2-10,2.5-15,1.5c-5.1-1-9.7-3.5-13.3-7.1
		c-3.6-3.6-6.1-8.3-7.1-13.3c-1-5.1-0.5-10.3,1.5-15c2-4.8,5.3-8.8,9.6-11.7C65,8,70,6.5,75.1,6.5c3.4,0,6.8,0.7,10,2
		c3.2,1.3,6,3.2,8.5,5.6c2.4,2.4,4.3,5.3,5.6,8.5C100.5,25.7,101.2,29.1,101.2,32.5z"/>
	<path class="st7" d="M95,30.9h3.8C98.3,25.3,95.9,20,91.9,16c-4-4-9.3-6.4-14.9-6.8V13c4.6,0.4,8.9,2.5,12.2,5.7
		C92.5,22,94.5,26.3,95,30.9 M88,27.4H62.3c0.9-2.2,2.5-4.2,4.4-5.7c1.9-1.5,4.2-2.4,6.6-2.7v-3.7c-4,0.4-7.7,2.2-10.6,5.1
		c-2.9,2.8-4.6,6.6-5.1,10.6h35.1c-0.4-4-2.2-7.7-5.1-10.6S81,15.7,77,15.2v3.7c2.4,0.3,4.7,1.3,6.6,2.7S87.1,25.1,88,27.4
		 M98.8,34.1H77v10h3.6L77,46.2v9.6c0.1,0,0.2,0,0.3,0h0.1l0.3,0c0,0,0,0,0.1,0c0.1,0,0.2,0,0.3,0h0l0.3,0l0.1,0c0.1,0,0.2,0,0.3,0
		l0.1,0c0.1,0,0.2,0,0.2,0c0,0,0,0,0.1,0l0.2,0l0.1,0l0.3,0c0,0,0.1,0,0.1,0c0.1,0,0.1,0,0.2,0c0,0,0.1,0,0.1,0c0.1,0,0.1,0,0.2,0
		c0,0,0.1,0,0.1,0c0.1,0,0.2,0,0.2-0.1c0,0,0.1,0,0.1,0c0,0,0.1,0,0.2,0c0.1,0,0.1,0,0.2,0c0.1,0,0.1,0,0.2,0c0,0,0.1,0,0.1,0
		c0.1,0,0.1,0,0.2-0.1l0.1,0c0,0,0.1,0,0.1,0l0.2-0.1c0,0,0.1,0,0.1,0l0.1,0l0.1,0c0.1,0,0.1,0,0.2-0.1c0,0,0.1,0,0.1,0
		c0.1,0,0.2-0.1,0.2-0.1c0,0,0.1,0,0.1,0l0.2-0.1h0c4.5-1.6,8.3-4.5,11.1-8.3H83.9l3.6-2.2h8.2c0.6-1.1,1.2-2.3,1.7-3.5h-4.1l5-3
		C98.5,36.4,98.7,35.2,98.8,34.1 M85.6,49.1v0.1c-1.4,0.9-2.9,1.6-4.5,2.1l-0.2,0.1c0,0-0.1,0-0.1,0c-0.1,0-0.1,0-0.2,0
		c0,0-0.1,0-0.1,0c0,0,0,0,0,0v-2.3H85.6z M86.3,40.6h-5.8v-3h10.6L86.3,40.6z M73.3,34.1H51.5c0.3,3.5,1.3,6.9,3.1,10h8.7v4.2
		c-0.8-0.6-1.6-1.3-2.3-2H56c1.8,2.5,4.1,4.6,6.7,6.2l0,0l0.1,0.1c2.9,1.8,6.3,2.9,9.7,3.2l0.1,0l0.1,0c0.2,0,0.3,0,0.5,0v-3.8
		c-0.1,0-0.1,0-0.2,0c0,0-0.1,0-0.1,0c-2.1-0.2-4.2-0.8-6.2-1.7v-1.2h6.3v-2.8h-6.3v-2.2h6.4V34.1z M69.8,40.5H57
		c-0.4-1-0.8-1.9-1.1-3h13.8L69.8,40.5z M73.3,13V9.2C67.7,9.6,62.4,12,58.4,16c-4,4-6.4,9.2-6.9,14.9h3.8c0.4-4.6,2.5-8.9,5.8-12.2
		C64.4,15.4,68.7,13.4,73.3,13z"/>
</g>
</svg>
