<svg width="441" height="52" viewBox="0 0 441 52" fill="none" xmlns="http://www.w3.org/2000/svg">
<g clip-path="url(#clip0_1_458)">
<path d="M91.382 36.8H116.473C115.599 38.7822 114.167 40.4674 112.353 41.6506C110.538 42.8338 108.418 43.4638 106.252 43.464H91.382V36.8Z" fill="#0092E5"/>
<path d="M116.095 36.8H116.472C115.598 38.7822 114.166 40.4674 112.352 41.6506C110.537 42.8338 108.417 43.4638 106.251 43.464H91.382V43.207H105.997C108.115 43.2074 110.189 42.6052 111.978 41.4707C113.766 40.3362 115.195 38.7162 116.097 36.8" fill="#00176F"/>
<path d="M91.382 36.8H116.473C116.308 36.8613 116.148 36.9327 115.992 37.014H91.382V36.8Z" fill="#79C3EE"/>
<path d="M149.776 8.59998C148.902 10.5818 147.471 12.2668 145.657 13.4496C143.842 14.6325 141.723 15.2622 139.557 15.262H91.383V8.59998H149.776Z" fill="#0054A4"/>
<path d="M149.776 8.59998C148.902 10.5818 147.471 12.2668 145.657 13.4496C143.842 14.6325 141.723 15.2622 139.557 15.262H91.383V15.004H139.3C141.417 15.0049 143.491 14.4036 145.279 13.2704C147.068 12.1372 148.497 10.5188 149.4 8.60397L149.776 8.59998Z" fill="#00176F"/>
<path d="M149.776 8.59998C149.62 8.68014 149.46 8.75061 149.296 8.81097H91.383V8.59998H149.776Z" fill="#53B7EB"/>
<path d="M139.27 17.999C138.398 19.9814 136.967 21.6671 135.153 22.8502C133.339 24.0334 131.22 24.663 129.054 24.662H91.382V17.999H139.27Z" fill="#0054A4"/>
<path d="M139.27 17.999C138.398 19.9814 136.967 21.6671 135.153 22.8502C133.339 24.0334 131.22 24.663 129.054 24.662H91.382V24.406H128.797C130.915 24.4061 132.989 23.8037 134.777 22.6692C136.566 21.5348 137.995 19.915 138.897 17.999H139.27Z" fill="#00176F"/>
<path d="M139.27 17.999C139.116 18.0814 138.955 18.1529 138.791 18.213H91.382V17.999H139.27Z" fill="#53B7EB"/>
<path d="M127.886 27.399C127.012 29.3814 125.581 31.0669 123.767 32.2502C121.952 33.4334 119.832 34.0633 117.666 34.063H91.382V27.399H127.886Z" fill="#0092E5"/>
<path d="M127.886 27.399C127.012 29.3814 125.581 31.0669 123.767 32.2502C121.952 33.4334 119.832 34.0633 117.666 34.063H91.382V33.807H117.409C119.527 33.807 121.601 33.2045 123.39 32.0698C125.178 30.9352 126.607 29.3152 127.509 27.399H127.886Z" fill="#00176F"/>
<path d="M127.886 27.399C127.73 27.4826 127.569 27.5547 127.403 27.615H91.382V27.399H127.886Z" fill="#79C3EE"/>
<path d="M58.394 36.8H33.305C34.179 38.7819 35.6102 40.4669 37.4246 41.6501C39.2389 42.8332 41.358 43.4634 43.524 43.464H58.395L58.394 36.8Z" fill="#0092E5"/>
<path d="M33.682 36.8H33.304C34.178 38.7819 35.6093 40.4669 37.4236 41.6501C39.2379 42.8332 41.357 43.4634 43.523 43.464H58.394V43.207H43.778C41.66 43.2078 39.5855 42.6057 37.797 41.4712C36.0085 40.3366 34.5798 38.7165 33.678 36.8" fill="#00176F"/>
<path d="M58.394 36.8H33.305C33.469 36.862 33.6293 36.9334 33.785 37.014H58.395L58.394 36.8Z" fill="#79C3EE"/>
<path d="M0 8.59998C0.874054 10.5818 2.30552 12.2668 4.12007 13.4496C5.93463 14.6324 8.05397 15.2621 10.22 15.262H58.394V8.59998H0Z" fill="#0054A4"/>
<path d="M0 8.59998C0.874054 10.5818 2.30552 12.2668 4.12007 13.4496C5.93463 14.6324 8.05397 15.2621 10.22 15.262H58.394V15.004H10.478C8.36087 15.0048 6.28718 14.4035 4.49885 13.2703C2.71053 12.1371 1.28133 10.5187 0.378 8.60397L0 8.59998Z" fill="#00176F"/>
<path d="M0 8.59998C0.156159 8.67946 0.316757 8.74991 0.481 8.81097H58.394V8.59998H0Z" fill="#53B7EB"/>
<path d="M10.504 17.999C11.3767 19.9811 12.8073 21.6665 14.6213 22.8496C16.4353 24.0327 18.5543 24.6624 20.72 24.662H58.395V17.999H10.504Z" fill="#0054A4"/>
<path d="M10.504 17.999C11.3767 19.9811 12.8073 21.6665 14.6213 22.8496C16.4353 24.0327 18.5543 24.6624 20.72 24.662H58.395V24.406H20.977C18.8592 24.4062 16.7849 23.8039 14.9965 22.6694C13.2081 21.5349 11.7794 19.9151 10.877 17.999H10.504Z" fill="#00176F"/>
<path d="M10.504 17.999C10.6593 18.0806 10.8196 18.1521 10.984 18.213H58.394V17.999H10.504Z" fill="#53B7EB"/>
<path d="M21.891 27.399C22.765 29.3809 24.1962 31.0659 26.0106 32.2491C27.8249 33.4322 29.944 34.0624 32.11 34.063H58.391V27.399H21.891Z" fill="#0092E5"/>
<path d="M21.891 27.399C22.765 29.3809 24.1962 31.0659 26.0106 32.2491C27.8249 33.4322 29.944 34.0624 32.11 34.063H58.391V33.807H32.368C30.2501 33.8069 28.1759 33.2043 26.3875 32.0697C24.5991 30.935 23.1704 29.3151 22.268 27.399H21.891Z" fill="#00176F"/>
<path d="M21.891 27.399C22.0459 27.4826 22.2067 27.5548 22.372 27.615H58.391V27.399H21.891Z" fill="#79C3EE"/>
<path d="M100.936 26.048C100.936 31.1996 99.408 36.2355 96.5457 40.5188C93.6835 44.8021 89.6154 48.1404 84.8558 50.1117C80.0963 52.0829 74.8591 52.5985 69.8065 51.5933C64.7539 50.5881 60.1129 48.1072 56.4703 44.4643C52.8277 40.8214 50.3471 36.1802 49.3423 31.1275C48.3374 26.0749 48.8535 20.8377 50.8251 16.0783C52.7967 11.3189 56.1354 7.25107 60.4189 4.38916C64.7024 1.52724 69.7384 -0.000197758 74.89 1.92059e-08C78.3106 -0.000131338 81.6977 0.673545 84.858 1.98256C88.0182 3.29157 90.8897 5.21028 93.3083 7.62911C95.7269 10.0479 97.6454 12.9195 98.9542 16.0799C100.263 19.2402 100.936 22.6274 100.936 26.048Z" fill="white"/>
<path d="M94.701 24.406H98.49C98.0364 18.7963 95.5998 13.5315 91.617 9.55506C87.6342 5.57866 82.3654 3.15059 76.755 2.70598V6.49398C81.3622 6.92875 85.6741 8.95492 88.9494 12.2242C92.2247 15.4934 94.2588 19.8016 94.702 24.408M87.755 20.895H62.02C62.9646 18.6578 64.4757 16.7054 66.4046 15.2301C68.3335 13.7549 70.6136 12.8077 73.02 12.482V8.76098C69.0137 9.18755 65.2738 10.972 62.4218 13.8178C59.5698 16.6636 57.7773 20.3996 57.342 24.405H92.43C91.9948 20.3999 90.2026 16.6642 87.351 13.8184C84.4994 10.9726 80.76 9.18798 76.754 8.76098V12.479C79.1605 12.8046 81.4406 13.7517 83.3695 15.227C85.2984 16.7023 86.8096 18.6548 87.754 20.892M98.496 27.613H76.754V37.595H80.327L76.753 39.78V49.389C76.853 49.382 76.953 49.374 77.053 49.363H77.109L77.391 49.336C77.413 49.336 77.431 49.329 77.452 49.327C77.544 49.319 77.637 49.307 77.731 49.294H77.743L78.03 49.257L78.096 49.247C78.188 49.237 78.277 49.224 78.369 49.209L78.441 49.2C78.521 49.187 78.605 49.175 78.686 49.159C78.7066 49.1583 78.7271 49.1553 78.747 49.15L78.993 49.109L79.078 49.094L79.33 49.048C79.36 49.048 79.392 49.034 79.422 49.031C79.49 49.016 79.556 49.003 79.622 48.99C79.661 48.981 79.7 48.975 79.739 48.965C79.805 48.952 79.87 48.936 79.939 48.924C79.9742 48.9139 80.0099 48.9059 80.046 48.9C80.122 48.88 80.198 48.865 80.272 48.849C80.313 48.837 80.349 48.829 80.391 48.819C80.433 48.809 80.491 48.796 80.544 48.781C80.597 48.766 80.662 48.752 80.72 48.739C80.778 48.726 80.82 48.713 80.87 48.7C80.92 48.687 80.957 48.678 80.999 48.665C81.07 48.646 81.137 48.63 81.199 48.612L81.339 48.573C81.377 48.561 81.416 48.55 81.456 48.539L81.676 48.474C81.712 48.461 81.749 48.452 81.786 48.44L81.934 48.396L82.059 48.355C82.131 48.333 82.199 48.309 82.27 48.287C82.303 48.277 82.333 48.264 82.37 48.255C82.448 48.228 82.528 48.202 82.607 48.173C82.638 48.161 82.667 48.151 82.699 48.142L82.849 48.09H82.855C87.3109 46.4929 91.1876 43.6 93.987 39.783H83.682L87.256 37.598H95.413C96.0604 36.4735 96.6145 35.2979 97.07 34.083H93.013L97.979 31.049C98.2348 29.9188 98.4076 28.7714 98.496 27.616M85.307 42.629V42.747C83.8919 43.6163 82.3739 44.3057 80.788 44.799L80.62 44.851C80.593 44.857 80.569 44.866 80.542 44.873C80.49 44.888 80.435 44.904 80.386 44.92C80.359 44.928 80.332 44.936 80.306 44.941C80.2925 44.9468 80.2784 44.9512 80.264 44.954V42.629H85.307ZM86.074 34.082H80.264V31.129H90.908L86.074 34.082ZM73.02 27.614H51.281C51.5476 31.1303 52.6012 34.5418 54.364 37.596H63.07V41.805C62.2392 41.1914 61.4569 40.5148 60.73 39.781H55.787C57.6057 42.2686 59.895 44.3751 62.525 45.981L62.559 46.003L62.685 46.081C65.6344 47.8575 68.9372 48.9664 72.361 49.33L72.415 49.336L72.527 49.345C72.692 49.362 72.857 49.378 73.027 49.391V45.603C72.969 45.596 72.913 45.59 72.858 45.586C72.83 45.586 72.8 45.579 72.772 45.574C70.6333 45.3437 68.5458 44.7697 66.59 43.874V42.629H72.937V39.781H66.59V37.596H73.02V27.614ZM69.507 34.081H56.793C56.353 33.1278 55.9908 32.1406 55.71 31.129H69.51L69.507 34.081ZM73.02 6.49198V2.70398C67.4093 3.14816 62.1403 5.57607 58.1572 9.55254C54.1741 13.529 51.7375 18.794 51.284 24.404H55.069C55.5136 19.7976 57.5487 15.4899 60.8246 12.2211C64.1005 8.95228 68.4127 6.92654 73.02 6.49198Z" fill="#DF1808"/>
<path d="M170.27 37.403V47.2802H168.859V42.8811H163.187V47.2802H161.776V37.403H163.187V41.6502H168.859V37.403H170.27ZM173.036 39.8018H174.391V47.2802H173.036V39.8018ZM173.713 38.3625C173.592 38.3663 173.472 38.3457 173.359 38.3021C173.247 38.2585 173.144 38.1927 173.057 38.1085C172.972 38.029 172.906 37.9326 172.861 37.8257C172.816 37.7188 172.794 37.6036 172.796 37.4877C172.794 37.3707 172.817 37.2546 172.861 37.1465C172.906 37.0384 172.973 36.9407 173.057 36.8593C173.143 36.7734 173.245 36.7059 173.358 36.6611C173.471 36.6163 173.592 36.595 173.713 36.5987C173.834 36.5949 173.954 36.615 174.066 36.6577C174.179 36.7005 174.282 36.765 174.369 36.8477C174.454 36.9256 174.521 37.0207 174.566 37.1266C174.611 37.2326 174.633 37.3469 174.631 37.4619C174.633 37.5811 174.611 37.6995 174.566 37.8098C174.521 37.9202 174.454 38.0201 174.369 38.1035C174.283 38.1891 174.181 38.2562 174.068 38.3007C173.955 38.3453 173.835 38.3663 173.713 38.3625ZM184.127 39.8018V46.2643C184.17 46.7885 184.107 47.3161 183.939 47.8148C183.772 48.3135 183.504 48.7727 183.153 49.1644C182.345 49.8451 181.302 50.1818 180.248 50.1023C179.565 50.1056 178.885 50.0083 178.23 49.8134C177.658 49.6568 177.128 49.3747 176.678 48.9876L177.326 47.9442C177.706 48.2634 178.144 48.5055 178.617 48.6572C179.128 48.8312 179.665 48.9195 180.205 48.9187C180.908 48.977 181.606 48.7537 182.145 48.2978C182.371 48.0408 182.543 47.741 182.651 47.4162C182.759 47.0914 182.8 46.7482 182.773 46.407V45.8144C182.458 46.1964 182.053 46.4944 181.594 46.6818C181.113 46.8775 180.598 46.9757 180.078 46.9706C179.404 46.9795 178.738 46.8215 178.14 46.5108C177.575 46.2182 177.103 45.7734 176.778 45.2268C176.443 44.6561 176.272 44.0041 176.284 43.3426C176.272 42.6811 176.443 42.0292 176.778 41.4585C177.102 40.9132 177.575 40.4709 178.14 40.1827C178.739 39.8756 179.404 39.7191 180.077 39.7271C180.618 39.7217 181.155 39.8274 181.654 40.0375C182.125 40.2339 182.536 40.5501 182.846 40.9547V39.8018H184.127ZM180.232 45.7862C180.691 45.7934 181.144 45.6867 181.551 45.4758C181.931 45.2771 182.247 44.9764 182.464 44.6076C182.688 44.2251 182.803 43.7884 182.796 43.3451C182.809 43.0178 182.751 42.6915 182.627 42.3884C182.503 42.0853 182.315 41.8123 182.077 41.588C181.572 41.1315 180.908 40.8907 180.228 40.9173C179.544 40.8891 178.875 41.1298 178.366 41.588C178.127 41.8123 177.939 42.0853 177.815 42.3884C177.691 42.6915 177.633 43.0178 177.646 43.3451C177.639 43.7884 177.754 44.2251 177.978 44.6076C178.195 44.9764 178.512 45.2771 178.891 45.4758C179.305 45.6891 179.766 45.7958 180.232 45.7862ZM190.702 39.7271C191.116 39.7059 191.529 39.7681 191.919 39.91C192.308 40.0518 192.664 40.2705 192.967 40.5529C193.264 40.8784 193.491 41.2608 193.636 41.6768C193.78 42.0929 193.838 42.534 193.806 42.9733V47.2802H192.452V43.1301C192.496 42.5375 192.309 41.9508 191.93 41.4933C191.733 41.3024 191.498 41.1548 191.241 41.06C190.984 40.9652 190.709 40.9254 190.436 40.943C190.118 40.9258 189.8 40.9739 189.502 41.0842C189.203 41.1946 188.93 41.3649 188.7 41.5846C188.477 41.8338 188.306 42.1251 188.197 42.4414C188.088 42.7577 188.043 43.0926 188.065 43.4264V47.2802H186.709V36.8104H188.064V40.86C188.357 40.495 188.738 40.2095 189.171 40.03C189.655 39.8246 190.176 39.7215 190.702 39.7271ZM207.493 39.7976L204.7 47.2802H203.401L201.243 41.6079L199.056 47.2802H197.757L194.978 39.8018H196.262L198.435 45.7563L200.692 39.8018H201.835L204.051 45.7862L206.277 39.8018L207.493 39.7976ZM211.346 39.7271C212.206 39.6686 213.056 39.9412 213.723 40.489C214.013 40.7876 214.237 41.1445 214.38 41.5361C214.522 41.9278 214.58 42.3452 214.549 42.7608V47.2802H213.265V46.2925C213.029 46.6488 212.693 46.9266 212.298 47.0901C211.826 47.2831 211.319 47.3761 210.809 47.3632C210.089 47.3999 209.378 47.1855 208.798 46.7565C208.556 46.569 208.361 46.3268 208.23 46.0497C208.098 45.7727 208.034 45.4685 208.043 45.162C208.033 44.8597 208.094 44.5592 208.22 44.2841C208.345 44.009 208.533 43.7666 208.768 43.5758C209.439 43.1207 210.245 42.9092 211.053 42.9766H213.198V42.7085C213.214 42.4617 213.177 42.2143 213.09 41.9831C213.002 41.7518 212.866 41.542 212.69 41.368C212.269 41.0299 211.735 40.8636 211.196 40.9024C210.754 40.9025 210.315 40.9765 209.898 41.1215C209.508 41.2493 209.144 41.4479 208.826 41.7075L208.261 40.6915C208.67 40.3675 209.138 40.1246 209.638 39.9761C210.192 39.8082 210.767 39.7243 211.346 39.7271ZM211.035 46.3166C211.505 46.3291 211.97 46.2095 212.376 45.9713C212.749 45.744 213.037 45.3993 213.194 44.991V43.9502H211.106C209.958 43.9502 209.384 44.3359 209.384 45.1072C209.378 45.28 209.415 45.4516 209.491 45.6067C209.567 45.7619 209.681 45.8957 209.822 45.9962C210.181 46.2319 210.606 46.3456 211.035 46.3207V46.3166ZM223.537 39.8018L219.911 48.0272C219.688 48.6544 219.3 49.21 218.788 49.6358C218.337 49.9534 217.795 50.1167 217.244 50.1015C216.881 50.1024 216.521 50.0429 216.178 49.9255C215.858 49.8219 215.566 49.6458 215.325 49.4109L215.906 48.3949C216.082 48.5705 216.291 48.7095 216.521 48.804C216.751 48.8984 216.997 48.9464 217.246 48.9452C217.543 48.9557 217.834 48.8636 218.071 48.6846C218.341 48.4394 218.547 48.1316 218.67 47.7882L218.91 47.2661L215.607 39.8018H217.018L219.628 45.7862L222.214 39.8018H223.537ZM235.446 42.1582C235.98 42.2922 236.455 42.5968 236.801 43.0255C237.142 43.4824 237.316 44.0426 237.294 44.6125C237.312 44.997 237.233 45.3799 237.063 45.7254C236.894 46.0709 236.639 46.3679 236.324 46.5888C235.48 47.1023 234.499 47.3437 233.513 47.2802H228.8V37.403H233.231C234.153 37.3462 235.069 37.5833 235.849 38.0803C236.146 38.2917 236.387 38.574 236.548 38.9016C236.709 39.2293 236.786 39.592 236.772 39.957C236.785 40.4292 236.659 40.8949 236.412 41.2974C236.177 41.6693 235.842 41.9676 235.446 42.1582ZM230.211 38.5459V41.7066H233.104C233.689 41.7422 234.271 41.602 234.775 41.3041C234.966 41.1748 235.12 40.9985 235.223 40.7921C235.326 40.5858 235.373 40.3564 235.361 40.1263C235.373 39.896 235.326 39.6665 235.223 39.46C235.12 39.2535 234.966 39.077 234.775 38.9477C234.271 38.65 233.688 38.5101 233.104 38.5459H230.211ZM233.456 46.1373C234.084 46.1781 234.71 46.0412 235.263 45.7422C235.465 45.607 235.628 45.4204 235.734 45.2017C235.841 44.9829 235.887 44.7398 235.869 44.4972C235.869 43.3966 235.065 42.8463 233.456 42.8463H230.211V46.134L233.456 46.1373ZM246.254 39.8018V47.2802H244.97V46.1514C244.695 46.5393 244.323 46.8484 243.891 47.0478C243.434 47.261 242.935 47.3688 242.431 47.3632C241.567 47.4113 240.719 47.1142 240.074 46.5374C239.77 46.2129 239.537 45.8292 239.389 45.4102C239.241 44.9912 239.181 44.5461 239.213 44.1029V39.8018H240.568V43.9518C240.525 44.5463 240.712 45.1347 241.09 45.5953C241.286 45.7882 241.52 45.9375 241.778 46.0335C242.035 46.1294 242.31 46.1699 242.584 46.1522C242.896 46.1685 243.208 46.1191 243.5 46.0073C243.791 45.8955 244.056 45.7238 244.277 45.5032C244.718 44.9972 244.941 44.3381 244.898 43.6688V39.8018H246.254ZM250.135 41.0551C250.369 40.6232 250.735 40.2772 251.179 40.0674C251.705 39.8272 252.28 39.7108 252.858 39.7271V41.0393C252.755 41.0285 252.651 41.0238 252.548 41.0252C252.23 41.0078 251.912 41.0571 251.614 41.17C251.317 41.283 251.046 41.457 250.82 41.6809C250.372 42.1974 250.147 42.8692 250.191 43.5509V47.2802H248.837V39.8018H250.135V41.0551ZM261.211 43.5808C261.209 43.7176 261.2 43.8542 261.183 43.99H255.116C255.148 44.299 255.242 44.5984 255.391 44.8709C255.54 45.1435 255.741 45.3838 255.984 45.5779C256.508 45.988 257.16 46.2004 257.825 46.178C258.229 46.1937 258.631 46.121 259.004 45.9651C259.377 45.8091 259.711 45.5735 259.983 45.2749L260.73 46.1497C260.388 46.5476 259.955 46.8573 259.468 47.0528C258.932 47.2657 258.359 47.3712 257.783 47.3632C257.052 47.3772 256.33 47.2098 255.68 46.876C255.086 46.5684 254.593 46.0957 254.262 45.5148C253.924 44.912 253.752 44.2303 253.764 43.5393C253.754 42.8544 253.922 42.1787 254.251 41.578C254.562 41.008 255.026 40.5362 255.591 40.2159C256.178 39.8863 256.842 39.7177 257.514 39.7271C258.183 39.716 258.842 39.8842 259.424 40.2143C259.98 40.5359 260.435 41.0079 260.736 41.5763C261.061 42.1946 261.224 42.885 261.211 43.5833V43.5808ZM257.514 40.8741C256.915 40.8568 256.332 41.0701 255.885 41.4701C255.444 41.8731 255.17 42.4269 255.117 43.0222H259.914C259.859 42.4273 259.585 41.874 259.145 41.4701C258.699 41.0684 258.114 40.8548 257.514 40.8741ZM265.6 39.7271C266.46 39.6686 267.311 39.9412 267.977 40.489C268.268 40.7876 268.492 41.1445 268.634 41.5361C268.776 41.9278 268.834 42.3452 268.803 42.7608V47.2802H267.519V46.2925C267.283 46.6489 266.946 46.9267 266.552 47.0901C266.08 47.283 265.573 47.376 265.064 47.3632C264.343 47.4008 263.631 47.1869 263.051 46.7581C262.808 46.5706 262.613 46.3285 262.482 46.0514C262.351 45.7743 262.287 45.4702 262.295 45.1637C262.285 44.8616 262.345 44.5613 262.47 44.286C262.594 44.0107 262.781 43.768 263.015 43.5767C263.686 43.1215 264.493 42.91 265.301 42.9774H267.45V42.7093C267.466 42.4625 267.429 42.2151 267.341 41.9839C267.254 41.7526 267.118 41.5429 266.942 41.3688C266.52 41.0308 265.987 40.8644 265.448 40.9032C265.006 40.9033 264.567 40.9774 264.15 41.1223C263.759 41.2501 263.396 41.4488 263.077 41.7083L262.513 40.6924C262.924 40.3685 263.393 40.1265 263.896 39.9794C264.448 39.8107 265.022 39.7257 265.6 39.7271ZM265.292 46.3207C265.762 46.3332 266.227 46.2136 266.632 45.9754C267.006 45.7482 267.294 45.4034 267.451 44.9952V43.9502H265.362C264.215 43.9502 263.641 44.3359 263.641 45.1072C263.635 45.28 263.671 45.4516 263.748 45.6067C263.824 45.7619 263.938 45.8957 264.078 45.9962C264.437 46.2319 264.863 46.3456 265.292 46.3207ZM278.285 39.8018V47.2802H277.001V46.1514C276.726 46.5393 276.354 46.8484 275.922 47.0478C275.465 47.2616 274.966 47.3699 274.461 47.3649C273.597 47.4129 272.749 47.1159 272.105 46.539C271.801 46.2146 271.568 45.8308 271.419 45.4119C271.271 44.9929 271.212 44.5478 271.244 44.1046V39.8018H272.596V43.9518C272.553 44.5463 272.74 45.1347 273.118 45.5953C273.314 45.7882 273.548 45.9375 273.805 46.0335C274.063 46.1294 274.338 46.1699 274.612 46.1522C274.924 46.1685 275.236 46.1191 275.528 46.0073C275.819 45.8955 276.084 45.7238 276.305 45.5032C276.746 44.9972 276.969 44.3381 276.926 43.6688V39.8018H278.285ZM281.206 45.4318C281.328 45.4287 281.45 45.4517 281.563 45.4992C281.676 45.5467 281.778 45.6176 281.861 45.7073C281.948 45.7987 282.015 45.9062 282.06 46.0237C282.105 46.1412 282.126 46.2664 282.122 46.3921C282.123 46.53 282.106 46.6674 282.073 46.8013C282.04 46.933 281.976 47.1352 281.882 47.408L281.218 49.3694H280.329L280.851 47.2669C280.677 47.204 280.526 47.0879 280.421 46.9349C280.311 46.7758 280.253 46.586 280.255 46.3921C280.251 46.2647 280.272 46.1376 280.318 46.0187C280.364 45.8998 280.434 45.7916 280.523 45.7007C280.613 45.6114 280.719 45.5414 280.837 45.4951C280.954 45.4489 281.08 45.4273 281.206 45.4318ZM297.221 47.2802L297.207 40.084L293.638 46.0808H292.989L289.42 40.1263V47.2802H288.065V37.403H289.222L293.342 44.3453L297.409 37.403H298.566L298.576 47.2802H297.221ZM305.998 47.3931C305.059 47.4064 304.133 47.1805 303.307 46.7366C302.524 46.316 301.873 45.6886 301.422 44.923C300.962 44.1413 300.724 43.2488 300.734 42.3416C300.722 41.4346 300.959 40.5417 301.418 39.7594C301.869 38.9941 302.52 38.367 303.302 37.9467C304.13 37.5024 305.058 37.2767 305.998 37.291C306.932 37.2778 307.855 37.5035 308.678 37.9467C309.458 38.3648 310.107 38.9897 310.555 39.7528C311.012 40.5383 311.246 41.4332 311.232 42.3416C311.246 43.2503 311.012 44.1455 310.555 44.9313C310.107 45.6943 309.458 46.3192 308.678 46.7374C307.855 47.1806 306.932 47.4063 305.998 47.3931ZM305.998 46.1373C306.682 46.1465 307.356 45.9747 307.952 45.6393C308.523 45.3174 308.996 44.8467 309.321 44.2772C309.657 43.6864 309.829 43.0163 309.819 42.3366C309.829 41.6569 309.657 40.9869 309.321 40.396C308.996 39.829 308.524 39.3604 307.955 39.0398C307.358 38.7044 306.684 38.5326 306 38.5418C305.312 38.5339 304.634 38.7056 304.032 39.0398C303.453 39.3572 302.972 39.8282 302.643 40.401C302.306 40.9919 302.135 41.6619 302.145 42.3416C302.135 43.0213 302.306 43.6913 302.643 44.2822C302.97 44.8544 303.448 45.3256 304.025 45.6443C304.629 45.9774 305.308 46.1474 305.998 46.1373ZM315.211 38.6306H311.824V37.403H319.994V38.6306H316.608V47.2802H315.211V38.6306ZM325.808 47.3931C324.876 47.4065 323.955 47.1804 323.135 46.7366C322.358 46.3169 321.711 45.6922 321.265 44.9304C320.808 44.1447 320.574 43.2495 320.588 42.3408C320.574 41.4324 320.808 40.5374 321.265 39.752C321.713 38.9889 322.362 38.364 323.142 37.9458C323.965 37.5027 324.888 37.277 325.823 37.2901C326.546 37.2812 327.265 37.4128 327.939 37.6777C328.567 37.928 329.127 38.3217 329.576 38.8273L328.659 39.7163C328.304 39.3358 327.873 39.0347 327.394 38.8328C326.915 38.631 326.399 38.5329 325.879 38.5451C325.183 38.5362 324.497 38.7077 323.887 39.0431C323.307 39.3602 322.826 39.8316 322.497 40.4052C322.161 40.996 321.989 41.6661 321.999 42.3458C321.989 43.0255 322.161 43.6955 322.497 44.2863C322.828 44.8586 323.31 45.3283 323.891 45.6434C324.501 45.9788 325.187 46.1504 325.883 46.1414C326.404 46.1514 326.921 46.0509 327.4 45.8466C327.879 45.6423 328.309 45.3388 328.663 44.9562L329.58 45.8451C329.129 46.3527 328.566 46.7488 327.937 47.0022C327.26 47.2706 326.537 47.4034 325.808 47.3931Z" fill="white"/>
<path d="M175.362 16.606V9.23791H180.566V16.606H175.362ZM165.967 16.606V9.23791H171.113V16.606H165.967ZM182.127 6.47145L180.319 8.47097H175.362V3.59544C176.129 3.48588 176.32 3.18043 176.375 2.80111L171.116 2.30808V8.47097H166.268L161.776 6.77524V20.1385H162.379C164.105 20.1385 165.968 19.2073 165.968 18.7964V17.3721H171.114V28.3018H171.908C173.524 28.3018 175.359 27.2609 175.359 26.8501V17.3729H180.563V19.6737H181.304C182.673 19.6737 184.782 18.9616 184.81 18.7424V9.92267C185.229 9.86282 185.61 9.64775 185.878 9.32008L182.127 6.47145ZM193.249 8.99139C195.057 9.04617 196.509 8.74238 197.057 8.00533L196.838 6.25233H200.837C201.22 6.25233 201.521 6.11538 201.576 5.81408C200.508 4.74585 198.645 3.1298 198.645 3.1298L196.975 5.48539H196.755L196.506 3.54066C197.054 3.37465 197.273 3.07502 197.273 2.77372L192.507 2.44171L192.864 5.48207H188.207L188.426 6.24901H192.946L193.249 8.99139ZM209.217 19.2355H203.081V10.4705H212.339C212.723 10.4705 213.024 10.3335 213.106 10.0322C211.901 9.01878 209.929 7.56708 209.929 7.56708L208.203 9.70355H189.824L190.043 10.4705H199.192V13.8669C198.397 13.1274 197.576 12.4426 197.576 12.4426L196.151 14.4421H195.902V12.1961C196.477 12.0865 196.642 11.8641 196.697 11.5661L193.026 11.2341V14.4388H188.783L189.002 15.2057H193.029V18.6022H193.549C194.617 18.6022 195.905 18.1365 195.905 17.9174V15.2057H199.192V19.2322H189.057L189.276 19.9991H199.192V22.9606H190.399L190.618 23.7275H199.192V28.3018H199.904C201.931 28.3018 203.081 27.5622 203.081 27.3431V23.7275H211.849C212.259 23.7275 212.561 23.5906 212.643 23.2893C211.328 22.1663 209.164 20.5776 209.164 20.5776L207.244 22.9606H203.081V20.0024H213.106C213.521 20.0024 213.791 19.8655 213.873 19.5642C212.75 18.5507 210.885 17.099 210.885 17.099L209.217 19.2355ZM210.093 14.4421H208.669V12.1961C209.244 12.0865 209.408 11.8641 209.463 11.5661L205.793 11.2341V14.4388H203.382L203.601 15.2057H205.789V18.2187H206.31C207.378 18.2187 208.665 17.7531 208.665 17.5613V15.2057H213.541C213.897 15.2057 214.198 15.0688 214.253 14.7675C213.294 13.7814 211.597 12.3297 211.597 12.3297L210.093 14.4421ZM209.819 5.48539H208.395L208.644 3.92413C209.411 3.86935 209.63 3.56805 209.685 3.21197L204.973 2.44503L204.535 5.48539H201.962L202.181 6.25233H204.427L204.044 8.77227C205.364 9.11468 206.766 8.93825 207.961 8.27923L208.262 6.25233H213.685C214.069 6.25233 214.37 6.11538 214.452 5.81408C213.357 4.74585 211.494 3.1298 211.494 3.1298L209.819 5.48539ZM222.665 15.7021V11.0731H227.075C227.116 12.6254 227.272 14.1726 227.541 15.7021H222.665ZM222.665 5.26627H234.498V10.3061H222.665V5.26627ZM241.264 20.1385L240.99 20.0555C240.515 21.103 239.957 22.1111 239.322 23.0702C239.194 23.2532 239.003 23.3825 238.786 23.4331C238.568 23.4836 238.34 23.4519 238.144 23.3441C236.619 22.7782 235.249 21.8607 234.145 20.6662C233.041 19.4717 232.234 18.0338 231.79 16.469H240.606C241.017 16.469 241.318 16.3321 241.4 16.0308C239.976 14.8256 237.593 13.0427 237.593 13.0427L235.512 15.6988H231.567C231.208 14.1824 231.033 12.6281 231.047 11.0698H234.498V12.5762H235.21C236.552 12.5762 238.497 11.8093 238.524 11.5902V5.89293C238.94 5.8408 239.321 5.63571 239.593 5.31773L235.977 2.57867L234.224 4.49601H223.049L218.666 2.90736V22.4958C218.666 23.2901 218.5 23.6188 217.406 24.3036L219.68 28.3848C220.098 28.1597 220.441 27.8168 220.666 27.3987C223.593 25.7087 226.402 23.8231 229.075 21.7546L229.02 21.4807C226.801 22.0559 224.583 22.6311 222.665 23.0693V16.4682H227.702C228.746 21.0159 231.184 24.8779 236.47 27.1514C238.305 27.8361 240.771 28.2744 241.699 26.7131C242.247 25.7818 241.918 24.9875 240.795 23.891L241.264 20.1385ZM257.205 18.139C254.11 18.6047 250.96 19.0155 249.618 19.1251L251.343 22.8776C251.516 22.8306 251.675 22.7408 251.804 22.6163C251.934 22.4918 252.029 22.3367 252.083 22.1654C253.865 21.0096 255.583 19.7568 257.229 18.4129L257.205 18.139ZM254 16.0026H252.934V12.5522H254.003L254 16.0026ZM249.207 25.234V5.10192H265.504V12.2534L261.697 10.6373C261.412 12.0835 260.981 13.4968 260.41 14.8555C260.114 13.2278 259.949 11.5791 259.917 9.92516H264.409C264.792 9.92516 265.066 9.78821 265.148 9.48691C264.783 9.12893 264.399 8.79064 263.998 8.47346C265.176 7.7613 265.121 5.56839 261.04 5.48539L260.791 5.6514C261.394 6.34265 261.842 7.15523 262.105 8.03438L261.256 9.15739H259.887V6.93875C260.517 6.88397 260.791 6.58268 260.845 6.25399L256.709 5.56922C256.709 6.8018 256.737 7.97628 256.792 9.15739H249.671L249.89 9.92433H256.82C256.847 10.6639 256.903 11.4034 256.986 12.1156L254.959 10.6091L253.808 11.7869H253.042L250.412 10.7187V18.0303H250.768C251.56 18.0565 252.333 17.7826 252.932 17.2634V16.7703H254V17.5655H254.438C255.342 17.5655 256.602 16.9629 256.602 16.7438V12.7721C256.753 12.743 256.9 12.6971 257.041 12.6352C257.223 14.7001 257.665 16.7338 258.355 18.6885C256.864 20.8868 254.934 22.752 252.685 24.1666L252.934 24.4679C255.294 23.6972 257.474 22.4581 259.344 20.825C259.78 21.5903 260.284 22.3145 260.85 22.9888C261.699 23.9475 263.644 24.9883 264.822 23.8379C265.26 23.3723 265.123 22.578 264.356 21.1263L264.822 17.2916L264.548 17.2086C264.189 18.1569 263.767 19.0803 263.286 19.9725C263.066 20.356 262.93 20.3834 262.656 20.0273C262.231 19.5369 261.872 18.9937 261.587 18.4113C262.844 16.6844 263.84 14.7829 264.546 12.7671C264.71 12.8022 264.88 12.8032 265.045 12.7702C265.21 12.7373 265.366 12.671 265.504 12.5754V25.234H249.207ZM266.956 2.41764L265.23 4.33499H249.508L245.564 2.77372V28.3018H246.166C247.728 28.3018 249.207 27.3979 249.207 26.9322V26.001H265.504V28.1648H266.079C267.476 28.1648 269.175 27.2883 269.229 27.0144V5.70452C269.651 5.62915 270.036 5.41743 270.325 5.10192L266.956 2.41764ZM273.091 8.33401H279.391C278.209 11.7556 276.172 14.8188 273.475 17.2335L273.641 17.5074C277.359 16.3302 280.653 14.0931 283.118 11.0706C283.775 11.1254 284.049 10.9336 284.159 10.6597L279.585 8.33153H297.606C298.017 8.33153 298.318 8.19457 298.4 7.89328C297.031 6.57853 294.648 4.55162 294.648 4.55162L292.539 7.56459H286.239C288.595 6.87982 288.951 2.33547 281.637 2.25247L281.446 2.38942C282.748 3.72629 283.682 5.37767 284.157 7.18278C284.43 7.35104 284.725 7.48013 285.034 7.56625H272.872L273.091 8.33401ZM287.745 9.07356C290.315 10.9337 292.362 13.424 293.689 16.3047C297.907 18.5233 300.016 10.0322 287.937 8.88183L287.745 9.07356ZM288.458 13.2917C287.699 15.5486 286.578 17.6671 285.139 19.5642C283.108 18.1683 281.482 16.2593 280.428 14.0313L280.096 14.2504C280.832 16.7901 282.071 19.156 283.739 21.2076C280.637 24.4019 276.758 26.7336 272.481 27.9731L272.618 28.3051C278.262 27.5382 282.561 25.7578 285.793 23.3474C288.552 25.6573 291.775 27.3479 295.243 28.3051C295.791 26.3877 296.914 25.1004 298.694 24.7443L298.749 24.4123C295.073 23.9293 291.491 22.894 288.125 21.3412C289.737 19.7159 291.086 17.8492 292.124 15.8083C292.781 15.8631 293.082 15.6714 293.219 15.3701L288.458 13.2917ZM301.55 2.93807C302.736 4.13629 303.578 5.63093 303.988 7.26578C307.686 9.51181 310.562 2.52721 301.715 2.80111L301.55 2.93807ZM315.629 10.6074V13.5955H313.903V10.6074H315.629ZM320.587 10.6074V13.5955H318.861V10.6074H320.587ZM318.861 17.4277V14.3566H320.587V17.4277H318.861ZM313.903 17.4277V14.3566H315.629V17.4277H313.903ZM305.796 22.2211C307.747 20.756 309.301 18.8256 310.315 16.606H310.398V23.618H310.919C312.425 23.618 313.907 22.7963 313.907 22.4402V18.1946H315.632V23.1797H316.208C317.878 23.1797 318.837 22.6045 318.864 22.4676V18.1946H320.589V20.0298C320.589 20.3037 320.534 20.4681 320.206 20.4681C319.85 20.4681 319.028 20.3851 319.028 20.3851V20.7411C319.288 20.7732 319.533 20.8775 319.736 21.0421C319.94 21.2067 320.093 21.4251 320.178 21.6724C320.375 22.3477 320.449 23.0527 320.398 23.7541C323.63 23.4802 324.04 22.3846 324.04 20.3029V11.1826C324.463 11.1293 324.852 10.925 325.136 10.6074L321.849 8.0875L320.315 9.8405H318.562C319.494 9.29269 319.904 8.19706 318.562 7.43345C320.295 6.92077 321.981 6.26099 323.602 5.46132C323.8 5.48238 323.999 5.46155 324.188 5.40019C324.377 5.33883 324.551 5.23833 324.698 5.10524L321.384 1.98271L319.411 3.90006H310.04L310.289 4.66699H319.273C318.78 5.40654 318.15 6.28304 317.575 6.99104C316.024 6.61442 314.431 6.44858 312.836 6.49801L312.726 6.83002C313.971 7.33333 314.986 8.27941 315.575 9.48608C315.7 9.61926 315.839 9.73864 315.99 9.84216H314.1L310.402 8.39046V15.512L307.995 13.6495L306.133 15.5394H305.914C306.735 14.2794 307.831 12.5264 308.543 11.4034C309.039 11.408 309.522 11.2438 309.913 10.9378L306.79 8.08916L305.202 9.67782H300.929L301.178 10.4448H305.177C304.492 11.7321 303.369 13.5399 302.521 14.7725C302.136 14.9246 301.769 15.1174 301.425 15.3477L304.496 17.3746L305.592 16.3063H306.304C305.996 18.316 305.406 20.2721 304.551 22.1165C303.647 22.4485 301.784 23.5682 300.442 24.1434L302.962 27.8959C303.064 27.8508 303.148 27.7714 303.198 27.6714C303.248 27.5714 303.261 27.457 303.236 27.3481C303.784 25.8416 304.332 24.4173 304.743 23.5408C304.992 22.9656 305.318 22.9108 305.729 23.486C308.002 26.3346 310.33 27.622 316.436 27.622H324.05C324.099 26.8603 324.379 26.1318 324.854 25.5343C325.329 24.9369 325.975 24.4993 326.706 24.2803V23.979C323.557 24.1708 320.954 24.1982 317.805 24.1982C311.505 24.2255 308.108 23.8147 306.054 22.363L305.796 22.2211ZM329.242 7.26578H343.157C343.541 7.26578 343.87 7.12883 343.924 6.82753C342.664 5.70452 340.555 4.06108 340.555 4.06108L338.693 6.49885H336.502C338.474 5.92364 339.158 2.69155 333.406 2.47243L333.215 2.60938C333.892 3.57766 334.229 4.74325 334.173 5.92364C334.485 6.18783 334.849 6.38376 335.242 6.49885H329.024L329.242 7.26578ZM331.05 7.89576C331.76 9.44702 332.071 11.1514 331.954 12.8535C334.638 15.5925 338.363 10.1974 331.324 7.7862L331.05 7.89576ZM334.337 24.3849V18.4412H337.815V24.3849H334.337ZM337.706 17.6742H334.635L330.773 16.2225V27.617H331.43C333.238 27.617 334.335 27.0418 334.335 26.7953V25.1518H337.814V27.0418H338.499C340.416 27.0418 341.57 26.4118 341.57 26.2749V18.6877C342.2 18.5781 342.473 18.4138 342.638 18.1672L339.433 15.7295L337.706 17.6742ZM347.758 20.7967V5.70452H349.813C349.453 8.26884 348.95 10.811 348.306 13.3191C349.86 14.8861 350.736 17.0012 350.744 19.2081C350.786 19.4848 350.75 19.768 350.638 20.0249C350.527 20.2818 350.345 20.5019 350.114 20.6598C349.922 20.7656 349.703 20.8132 349.484 20.7967H347.758ZM351.483 3.07502L349.539 4.93758H348.138L344.002 3.04763V14.0313C342.714 12.9082 340.879 11.4839 340.879 11.4839L338.934 14.0039H337.4C338.842 12.5521 340.153 10.9755 341.317 9.29269C341.975 9.32008 342.303 9.01878 342.358 8.71748L337.596 7.29317C337.421 9.54379 337.128 11.7837 336.72 14.0039H328.64L328.859 14.7708H343.567C343.718 14.7751 343.867 14.7467 344.006 14.6878V28.3557H344.69C346.635 28.3557 347.762 27.4792 347.762 27.2053V21.1794C348.214 21.3124 348.609 21.5918 348.885 21.9737C349.209 22.9722 349.357 24.0195 349.323 25.0688C353.017 25.0423 354.305 23.2096 354.28 20.3875C354.28 17.9224 352.718 14.9924 349.021 13.2386C350.818 11.2363 352.439 9.08214 353.865 6.80014C354.549 6.77275 354.906 6.66319 355.125 6.38928L351.483 3.07502ZM363.891 3.75978C362.621 8.6753 360.262 13.2424 356.989 17.1231L357.238 17.3422C362 15.0016 365.803 11.0824 368 6.25233C368.657 6.30711 369.041 6.08633 369.178 5.7593L363.891 3.75978ZM372.684 17.5381C373.915 19.2206 374.91 21.0638 375.642 23.0162C370.602 23.3997 365.59 23.564 362.22 23.5914C365.711 21.0927 368.75 18.0162 371.205 14.4944C371.419 14.511 371.634 14.4656 371.823 14.3636C372.013 14.2616 372.169 14.1074 372.273 13.9192L366.685 11.9214C365.863 15.3726 362.659 21.3437 360.632 22.905C360.217 23.1521 359.763 23.328 359.29 23.4254L360.906 28.4927C361.336 28.3311 361.708 28.045 361.974 27.671C366.724 26.7502 371.416 25.5524 376.026 24.0836C376.368 25.1634 376.606 26.2731 376.738 27.3979C381.172 31.1778 384.818 21.5637 372.93 17.3729L372.684 17.5381ZM372.958 1.98022L371.835 3.84279H369.013L369.262 4.60972H372.631C373.398 10.3617 375.397 14.7442 379.04 17.5655C379.29 16.6769 379.735 15.855 380.341 15.1587C380.947 14.4625 381.7 13.9093 382.546 13.5391L382.601 13.2071C378.027 11.8375 374.603 8.6876 373.288 4.82387C374.575 4.74087 375.644 4.49186 376.027 4.02954L372.958 1.98022ZM403.799 18.6055H400.346L397.524 17.5655C399.365 16.8276 401.096 15.8415 402.67 14.6347C403.45 15.5026 404.355 16.2502 405.354 16.8533L403.799 18.6055ZM400.047 25.4258V19.3724H403.909V25.4258H400.047ZM392.679 17.0426H396.212C395.441 17.544 394.637 17.9924 393.805 18.3847L393.971 18.7167C394.793 18.4976 395.587 18.2785 396.354 18.0046V21.8119C395.122 22.0609 393.889 22.3323 392.684 22.5788L392.679 17.0426ZM389.118 10.9345V5.12433H391.963V10.9345H389.118ZM404.292 6.93543C403.8 8.39152 403.128 9.7808 402.293 11.0714C401.489 10.4679 400.77 9.75849 400.156 8.96234C400.684 8.31897 401.169 7.6419 401.608 6.93543H404.292ZM406.155 4.27938L404.21 6.16933H402.046C402.38 5.58362 402.682 4.98013 402.95 4.36155C403.608 4.38894 403.936 4.14242 404.073 3.78635L399.28 2.25247C398.639 6.03495 397.128 9.61697 394.868 12.7165L395.141 12.9356C396.78 12.1002 398.263 10.9882 399.524 9.64877C399.971 10.6946 400.502 11.7022 401.113 12.6617C399.864 14.2083 398.397 15.5647 396.758 16.6882L396.785 16.6051C395.881 15.5095 394.155 13.8113 394.155 13.8113L392.676 16.2184V12.4385C393.634 12.4136 394.568 12.1398 395.388 11.6441V5.61819C395.768 5.56601 396.117 5.38176 396.374 5.09777L393.224 2.71479L391.69 4.35823H389.472L385.747 2.96131V12.8219H386.35C388.076 12.8219 389.116 12.1098 389.116 11.8906V11.6989H389.308V23.2926L388.459 23.4586V14.8804C388.842 14.8256 388.979 14.6314 389.007 14.4147L385.638 14.1134V23.9741C385.063 24.0836 384.542 24.1658 384.159 24.2231L385.747 28.1673C385.923 28.111 386.084 28.015 386.217 27.8868C386.35 27.7586 386.452 27.6015 386.514 27.4278C391.006 25.3187 394.184 23.5931 396.347 22.3057V28.3018H397.032C398.922 28.3018 400.045 27.7266 400.045 27.48V26.1927H403.907V28.1897H404.619C406.646 28.1897 407.824 27.5871 407.824 27.4228V19.6189C408.028 19.6099 408.229 19.559 408.412 19.4695C408.596 19.38 408.759 19.2537 408.892 19.0985L407.276 17.8659C407.657 18.0583 408.05 18.223 408.454 18.359C408.703 16.4964 409.413 15.346 410.974 14.7434L411.029 14.4421C408.912 14.1012 406.85 13.4843 404.893 12.6069C406.275 11.1209 407.404 9.4184 408.235 7.56708C408.892 7.48408 409.166 7.40107 409.358 7.10144L406.155 4.27938ZM424.425 21.4267V17.4551H427.191V21.4267H424.425ZM430.861 17.8933C431.186 17.8293 431.482 17.6667 431.71 17.4277L428.506 15.0447L426.944 16.6882H424.561L420.864 15.2638V25.0149H421.357C422.836 25.0149 424.428 24.248 424.428 23.9467V22.1937H427.194V23.7275H427.852C429.057 23.7275 430.84 22.988 430.865 22.7415L430.861 17.8933ZM431.08 5.37583V9.29269H420.069V5.37583H431.08ZM435.162 11.347L433.19 13.2643H420.069V10.0596H431.08V11.5387H431.765C433.025 11.5387 435.025 10.9361 435.052 10.7444V6.00581C435.471 5.94597 435.852 5.7309 436.12 5.40322L432.505 2.71894L430.807 4.60889H420.645L416.098 3.07502V12.3057C416.098 17.6468 415.824 23.4279 412.701 28.0005L412.92 28.1665C418.919 24.5235 419.905 18.9084 420.042 14.0329H433.488C433.379 20.4149 433.187 23.3731 432.557 23.9757C432.326 24.1632 432.031 24.2526 431.735 24.2247C431.215 24.2247 429.791 24.1699 428.887 24.0878L428.859 24.3891C429.74 24.5548 430.546 24.996 431.16 25.649C431.589 26.4448 431.761 27.3537 431.653 28.2511C433.022 28.3598 434.381 27.9491 435.46 27.1007C436.885 25.8408 437.186 23.1017 437.323 14.6928C437.749 14.665 438.149 14.4795 438.446 14.1724L435.162 11.347Z" fill="white"/>
</g>
<defs>
<clipPath id="clip0_1_458">
<rect width="441" height="52" fill="white"/>
</clipPath>
</defs>
</svg>
